<svg id="egOenuCNj5f1" xmlns="http://www.w3.org/2000/svg" xmlns:xlink="http://www.w3.org/1999/xlink" viewBox="0 0 681 558" shape-rendering="geometricPrecision" text-rendering="geometricPrecision"><defs><linearGradient id="egOenuCNj5f17-fill" x1="42670.7" y1="22054.8" x2="39498.7" y2="18701.8" spreadMethod="pad" gradientUnits="userSpaceOnUse" gradientTransform="translate(0 0)"><stop id="egOenuCNj5f17-fill-0" offset="0%" stop-color="#085eff"/><stop id="egOenuCNj5f17-fill-1" offset="99.808%" stop-color="#0e0092"/></linearGradient><linearGradient id="egOenuCNj5f23-fill" x1="41163.5" y1="21615.6" x2="37108.2" y2="21615.6" spreadMethod="pad" gradientUnits="userSpaceOnUse" gradientTransform="translate(0 0)"><stop id="egOenuCNj5f23-fill-0" offset="0%" stop-color="#085eff"/><stop id="egOenuCNj5f23-fill-1" offset="99.808%" stop-color="#0e0092"/></linearGradient><linearGradient id="egOenuCNj5f33-fill" x1="531.915" y1="142.724" x2="560.5" y2="142.724" spreadMethod="pad" gradientUnits="userSpaceOnUse" gradientTransform="translate(0 0)"><stop id="egOenuCNj5f33-fill-0" offset="0%" stop-color="#ffc600"/><stop id="egOenuCNj5f33-fill-1" offset="100%" stop-color="#df7d5a"/></linearGradient><linearGradient id="egOenuCNj5f38-fill" x1="474.221" y1="265.033" x2="582.477" y2="265.033" spreadMethod="pad" gradientUnits="userSpaceOnUse" gradientTransform="translate(0 0)"><stop id="egOenuCNj5f38-fill-0" offset="0%" stop-color="#ffc600"/><stop id="egOenuCNj5f38-fill-1" offset="100%" stop-color="#df7d5a"/></linearGradient><linearGradient id="egOenuCNj5f52-fill" x1="338.478" y1="363.662" x2="338.478" y2="314.158" spreadMethod="pad" gradientUnits="userSpaceOnUse" gradientTransform="translate(0 0)"><stop id="egOenuCNj5f52-fill-0" offset="0%" stop-color="#085eff"/><stop id="egOenuCNj5f52-fill-1" offset="99.808%" stop-color="#0e0092"/></linearGradient><linearGradient id="egOenuCNj5f55-fill" x1="149.646" y1="210.933" x2="527.309" y2="210.933" spreadMethod="pad" gradientUnits="userSpaceOnUse" gradientTransform="translate(0 0)"><stop id="egOenuCNj5f55-fill-0" offset="0%" stop-color="#020764"/><stop id="egOenuCNj5f55-fill-1" offset="100%" stop-color="#0f3460"/></linearGradient><linearGradient id="egOenuCNj5f58-fill" x1="79503.9" y1="3583.41" x2="79503.9" y2="3943.8" spreadMethod="pad" gradientUnits="userSpaceOnUse" gradientTransform="translate(0 0)"><stop id="egOenuCNj5f58-fill-0" offset="0%" stop-color="#347bff"/><stop id="egOenuCNj5f58-fill-1" offset="99.808%" stop-color="#0e0092"/></linearGradient><linearGradient id="egOenuCNj5f76-fill" x1="313.561" y1="182.985" x2="336.78" y2="170.665" spreadMethod="pad" gradientUnits="userSpaceOnUse" gradientTransform="translate(0 0)"><stop id="egOenuCNj5f76-fill-0" offset="0.116%" stop-color="#00d1ff"/><stop id="egOenuCNj5f76-fill-1" offset="99.577%" stop-color="#0162ff"/></linearGradient><linearGradient id="egOenuCNj5f77-fill" x1="11558.4" y1="6828.76" x2="12002.2" y2="6444.82" spreadMethod="pad" gradientUnits="userSpaceOnUse" gradientTransform="translate(0 0)"><stop id="egOenuCNj5f77-fill-0" offset="0.116%" stop-color="#00d1ff"/><stop id="egOenuCNj5f77-fill-1" offset="99.577%" stop-color="#0162ff"/></linearGradient><linearGradient id="egOenuCNj5f78-fill" x1="11063.6" y1="9021.14" x2="10618.1" y2="9310.95" spreadMethod="pad" gradientUnits="userSpaceOnUse" gradientTransform="translate(0 0)"><stop id="egOenuCNj5f78-fill-0" offset="0.116%" stop-color="#00d1ff"/><stop id="egOenuCNj5f78-fill-1" offset="99.577%" stop-color="#0162ff"/></linearGradient><linearGradient id="egOenuCNj5f79-fill" x1="16024.8" y1="12186.4" x2="16680.4" y2="11778.4" spreadMethod="pad" gradientUnits="userSpaceOnUse" gradientTransform="translate(0 0)"><stop id="egOenuCNj5f79-fill-0" offset="0.116%" stop-color="#00d1ff"/><stop id="egOenuCNj5f79-fill-1" offset="99.577%" stop-color="#0162ff"/></linearGradient><linearGradient id="egOenuCNj5f80-fill" x1="17467.2" y1="9364.81" x2="18191" y2="8755.92" spreadMethod="pad" gradientUnits="userSpaceOnUse" gradientTransform="translate(0 0)"><stop id="egOenuCNj5f80-fill-0" offset="0.116%" stop-color="#00d1ff"/><stop id="egOenuCNj5f80-fill-1" offset="99.577%" stop-color="#0162ff"/></linearGradient><linearGradient id="egOenuCNj5f81-fill" x1="15196.6" y1="13845" x2="14423.6" y2="14242.8" spreadMethod="pad" gradientUnits="userSpaceOnUse" gradientTransform="translate(0 0)"><stop id="egOenuCNj5f81-fill-0" offset="0.116%" stop-color="#00d1ff"/><stop id="egOenuCNj5f81-fill-1" offset="99.577%" stop-color="#0162ff"/></linearGradient><linearGradient id="egOenuCNj5f82-fill" x1="334.763" y1="174.354" x2="391.039" y2="141.343" spreadMethod="pad" gradientUnits="userSpaceOnUse" gradientTransform="translate(0 0)"><stop id="egOenuCNj5f82-fill-0" offset="0.693%" stop-color="#ff9a25"/><stop id="egOenuCNj5f82-fill-1" offset="100%" stop-color="#ffe000"/></linearGradient><linearGradient id="egOenuCNj5f83-fill" x1="329.02" y1="162.133" x2="380.254" y2="120.478" spreadMethod="pad" gradientUnits="userSpaceOnUse" gradientTransform="translate(0 0)"><stop id="egOenuCNj5f83-fill-0" offset="0%" stop-color="#ffe000"/><stop id="egOenuCNj5f83-fill-1" offset="99.962%" stop-color="rgba(255,224,0,0)"/></linearGradient><linearGradient id="egOenuCNj5f84-fill" x1="34204.5" y1="8837.37" x2="36640.1" y2="6449.55" spreadMethod="pad" gradientUnits="userSpaceOnUse" gradientTransform="translate(0 0)"><stop id="egOenuCNj5f84-fill-0" offset="0.693%" stop-color="#ff9a25"/><stop id="egOenuCNj5f84-fill-1" offset="100%" stop-color="#ffe000"/></linearGradient><linearGradient id="egOenuCNj5f85-fill" x1="12678.4" y1="28795.7" x2="13976.6" y2="28573.2" spreadMethod="pad" gradientUnits="userSpaceOnUse" gradientTransform="translate(0 0)"><stop id="egOenuCNj5f85-fill-0" offset="0.693%" stop-color="#ff9a25"/><stop id="egOenuCNj5f85-fill-1" offset="100%" stop-color="#ffe000"/></linearGradient><linearGradient id="egOenuCNj5f86-fill" x1="19428.8" y1="23249.5" x2="20949" y2="23249.5" spreadMethod="pad" gradientUnits="userSpaceOnUse" gradientTransform="translate(0 0)"><stop id="egOenuCNj5f86-fill-0" offset="0.693%" stop-color="#ff9a25"/><stop id="egOenuCNj5f86-fill-1" offset="100%" stop-color="#ffe000"/></linearGradient><linearGradient id="egOenuCNj5f87-fill" x1="26494.8" y1="26343.3" x2="30521.1" y2="30690.8" spreadMethod="pad" gradientUnits="userSpaceOnUse" gradientTransform="translate(0 0)"><stop id="egOenuCNj5f87-fill-0" offset="0.116%" stop-color="#00d1ff"/><stop id="egOenuCNj5f87-fill-1" offset="99.577%" stop-color="#0162ff"/></linearGradient><linearGradient id="egOenuCNj5f89-fill" x1="21889.5" y1="23534.2" x2="23817.5" y2="23534.2" spreadMethod="pad" gradientUnits="userSpaceOnUse" gradientTransform="translate(0 0)"><stop id="egOenuCNj5f89-fill-0" offset="0.116%" stop-color="#00d1ff"/><stop id="egOenuCNj5f89-fill-1" offset="99.577%" stop-color="#0162ff"/></linearGradient><linearGradient id="egOenuCNj5f90-fill" x1="25392.1" y1="26587.7" x2="28064.8" y2="26587.7" spreadMethod="pad" gradientUnits="userSpaceOnUse" gradientTransform="translate(0 0)"><stop id="egOenuCNj5f90-fill-0" offset="0.116%" stop-color="#00d1ff"/><stop id="egOenuCNj5f90-fill-1" offset="99.577%" stop-color="#0162ff"/></linearGradient><linearGradient id="egOenuCNj5f91-fill" x1="12505" y1="10536.2" x2="12163.2" y2="10721.9" spreadMethod="pad" gradientUnits="userSpaceOnUse" gradientTransform="translate(0 0)"><stop id="egOenuCNj5f91-fill-0" offset="0.116%" stop-color="#00d1ff"/><stop id="egOenuCNj5f91-fill-1" offset="99.577%" stop-color="#0162ff"/></linearGradient><linearGradient id="egOenuCNj5f92-fill" x1="7632.57" y1="4315.59" x2="7432.06" y2="4465.4" spreadMethod="pad" gradientUnits="userSpaceOnUse" gradientTransform="translate(0 0)"><stop id="egOenuCNj5f92-fill-0" offset="0.116%" stop-color="#00d1ff"/><stop id="egOenuCNj5f92-fill-1" offset="99.577%" stop-color="#0162ff"/></linearGradient><linearGradient id="egOenuCNj5f93-fill" x1="8349.63" y1="4523.38" x2="8014.33" y2="4739.61" spreadMethod="pad" gradientUnits="userSpaceOnUse" gradientTransform="translate(0 0)"><stop id="egOenuCNj5f93-fill-0" offset="0.116%" stop-color="#00d1ff"/><stop id="egOenuCNj5f93-fill-1" offset="99.577%" stop-color="#0162ff"/></linearGradient><linearGradient id="egOenuCNj5f94-fill" x1="4819.7" y1="9441.32" x2="5308.58" y2="9734.82" spreadMethod="pad" gradientUnits="userSpaceOnUse" gradientTransform="translate(0 0)"><stop id="egOenuCNj5f94-fill-0" offset="0.116%" stop-color="#00d1ff"/><stop id="egOenuCNj5f94-fill-1" offset="99.577%" stop-color="#0162ff"/></linearGradient><linearGradient id="egOenuCNj5f106-fill" x1="16195.2" y1="17713.2" x2="16195.2" y2="20013.9" spreadMethod="pad" gradientUnits="userSpaceOnUse" gradientTransform="translate(0 0)"><stop id="egOenuCNj5f106-fill-0" offset="0%" stop-color="#085eff"/><stop id="egOenuCNj5f106-fill-1" offset="99.808%" stop-color="#0e0092"/></linearGradient><linearGradient id="egOenuCNj5f107-fill" x1="13017.1" y1="19013.2" x2="13017.1" y2="17114.4" spreadMethod="pad" gradientUnits="userSpaceOnUse" gradientTransform="translate(0 0)"><stop id="egOenuCNj5f107-fill-0" offset="0.116%" stop-color="#00d1ff"/><stop id="egOenuCNj5f107-fill-1" offset="99.577%" stop-color="#0162ff"/></linearGradient><linearGradient id="egOenuCNj5f108-fill" x1="37214.2" y1="31883.9" x2="44612.3" y2="28857.7" spreadMethod="pad" gradientUnits="userSpaceOnUse" gradientTransform="translate(0 0)"><stop id="egOenuCNj5f108-fill-0" offset="0.693%" stop-color="#ff9a25"/><stop id="egOenuCNj5f108-fill-1" offset="100%" stop-color="#ffe000"/></linearGradient><linearGradient id="egOenuCNj5f112-fill" x1="135.438" y1="236.169" x2="135.438" y2="347.367" spreadMethod="pad" gradientUnits="userSpaceOnUse" gradientTransform="translate(0 0)"><stop id="egOenuCNj5f112-fill-0" offset="0%" stop-color="#ff6570"/><stop id="egOenuCNj5f112-fill-1" offset="100%" stop-color="#ec374f"/></linearGradient><linearGradient id="egOenuCNj5f153-fill" x1="5017.83" y1="11737.9" x2="5017.83" y2="10759" spreadMethod="pad" gradientUnits="userSpaceOnUse" gradientTransform="translate(0 0)"><stop id="egOenuCNj5f153-fill-0" offset="0.693%" stop-color="#ff9a25"/><stop id="egOenuCNj5f153-fill-1" offset="100%" stop-color="#ffe000"/></linearGradient><linearGradient id="egOenuCNj5f161-fill" x1="142.949" y1="305.895" x2="172.499" y2="305.895" spreadMethod="pad" gradientUnits="userSpaceOnUse" gradientTransform="translate(0 0)"><stop id="egOenuCNj5f161-fill-0" offset="0%" stop-color="#020764"/><stop id="egOenuCNj5f161-fill-1" offset="100%" stop-color="#0f3460"/></linearGradient><linearGradient id="egOenuCNj5f163-fill" x1="139.725" y1="240.099" x2="212.989" y2="240.099" spreadMethod="pad" gradientUnits="userSpaceOnUse" gradientTransform="translate(0 0)"><stop id="egOenuCNj5f163-fill-0" offset="0%" stop-color="#ffc600"/><stop id="egOenuCNj5f163-fill-1" offset="100%" stop-color="#df7d5a"/></linearGradient><linearGradient id="egOenuCNj5f164-fill" x1="8249.51" y1="16356.9" x2="7443.36" y2="17259.6" spreadMethod="pad" gradientUnits="userSpaceOnUse" gradientTransform="translate(0 0)"><stop id="egOenuCNj5f164-fill-0" offset="0%" stop-color="#ff6570"/><stop id="egOenuCNj5f164-fill-1" offset="100%" stop-color="#ec374f"/></linearGradient><linearGradient id="egOenuCNj5f166-fill" x1="437.606" y1="304.452" x2="454.778" y2="304.452" spreadMethod="pad" gradientUnits="userSpaceOnUse" gradientTransform="translate(0 0)"><stop id="egOenuCNj5f166-fill-0" offset="0%" stop-color="#020764"/><stop id="egOenuCNj5f166-fill-1" offset="100%" stop-color="#0f3460"/></linearGradient><linearGradient id="egOenuCNj5f168-fill" x1="432.816" y1="304.452" x2="447.527" y2="304.452" spreadMethod="pad" gradientUnits="userSpaceOnUse" gradientTransform="translate(0 0)"><stop id="egOenuCNj5f168-fill-0" offset="0%" stop-color="#020764"/><stop id="egOenuCNj5f168-fill-1" offset="100%" stop-color="#0f3460"/></linearGradient><linearGradient id="egOenuCNj5f173-fill" x1="15687.5" y1="7248.5" x2="16965.1" y2="7406" spreadMethod="pad" gradientUnits="userSpaceOnUse" gradientTransform="translate(0 0)"><stop id="egOenuCNj5f173-fill-0" offset="0%" stop-color="#ff6570"/><stop id="egOenuCNj5f173-fill-1" offset="100%" stop-color="#ec374f"/></linearGradient><linearGradient id="egOenuCNj5f181-fill" x1="406.296" y1="242.069" x2="456.849" y2="242.069" spreadMethod="pad" gradientUnits="userSpaceOnUse" gradientTransform="translate(0 0)"><stop id="egOenuCNj5f181-fill-0" offset="0%" stop-color="#ffc600"/><stop id="egOenuCNj5f181-fill-1" offset="100%" stop-color="#df7d5a"/></linearGradient></defs><g transform="translate(.430421 9.877148)"><g clip-path="url(#egOenuCNj5f11)"><g opacity="0.05"><path d="M404.149,210.119C302.692,219.775,251.124,152.884,182.459,151c-66.984-1.884-105.9409,47.342-82.118,126.716c27.185,90.209-23.8229,135.903-19.0583,209.389c1.9618,30.854,38.6763,74.663,84.0793,70.659c59.697-5.417,83.8-63.122,136.49-102.927c47.365-35.566,129.763-60.532,179.37-86.441c48.766-25.437,105.94-44.044,110.705-98.923c3.082-36.272-35.314-73.957-187.778-59.354Z" fill="#df7d5a"/><path d="M517.096,399.958c-31.67,43.573-93.609,25.673-146.019,21.904C268.22,414.325,198.434,529.03,90.5313,469.675C-28.8619,403.962,-29.7027,284.547,89.13,238.854C421.805,110.488,545.963,360.388,517.096,399.958Z" fill="#070c69"/><path d="M49.3324,232.965c10.835,0,19.6186-6.221,19.6186-13.896s-8.7836-13.897-19.6186-13.897-19.6186,6.222-19.6186,13.897s8.7835,13.896,19.6186,13.896Z" fill="#5d8eff"/><path d="M88.009,180.677c0,4.24-3.6434,7.537-7.8474,7.537-4.4843,0-7.8474-3.297-7.8474-7.537c0-4.239,3.6434-7.537,7.8474-7.537s7.8474,3.298,7.8474,7.537Z" fill="#5d8eff"/><path d="M376.122,465.907c0,7.772-9.529,14.132-21.3,14.132s-21.3-6.36-21.3-14.132c0-7.773,9.529-14.132,21.3-14.132s21.3,6.359,21.3,14.132Z" fill="#5d8eff"/><path d="M414.238,449.42c0,4.239-5.045,7.772-11.21,7.772-6.166,0-11.211-3.533-11.211-7.772c0-4.24,5.045-7.773,11.211-7.773c6.165,0,11.21,3.533,11.21,7.773Z" fill="#5d8eff"/></g><clipPath id="egOenuCNj5f11"><rect width="591.641" height="407" rx="0" ry="0" transform="translate(.566162 151)" fill="#fff"/></clipPath></g><g id="egOenuCNj5f13" transform="matrix(.763705-.585968 0.589236 0.767964 28.246064 386.246983)"><path d="M642.135,190.452v-4.911h-2.015c-.119-.369-.264-.729-.435-1.076l1.427-1.473-3.365-3.473-1.427,1.473c-.336-.176-.685-.327-1.043-.449v-2.08h-4.759v2.08c-.358.122-.707.273-1.043.449l-1.427-1.473-3.365,3.473l1.427,1.473c-.171.347-.316.707-.435,1.076h-2.015v4.911h2.015c.119.37.264.73.435,1.077l-1.427,1.472l3.365,3.473l1.427-1.472c.336.176.685.326,1.043.449v2.079h4.759v-2.079c.358-.123.707-.273,1.043-.449l1.427,1.472l3.365-3.473-1.427-1.472c.171-.347.316-.707.435-1.077h2.015Zm-9.238,2.493c-.948,0-1.875-.291-2.663-.834-.788-.544-1.403-1.317-1.766-2.221s-.458-1.899-.273-2.859c.185-.959.642-1.841,1.312-2.533.671-.692,1.525-1.163,2.455-1.354s1.894-.093,2.77.281c.876.375,1.625,1.009,2.152,1.823.526.813.808,1.77.808,2.749c0,1.312-.505,2.57-1.405,3.498-.899.928-2.118,1.45-3.39,1.45v0Zm15.498,18.183v-2.578h-1.057c-.063-.194-.139-.383-.229-.566l.75-.773-1.767-1.823-.749.773c-.177-.092-.36-.171-.548-.235v-1.092h-2.498v1.092c-.188.064-.371.143-.547.235l-.75-.773-1.766,1.823.749.773c-.09.183-.166.372-.228.566h-1.058v2.578h1.058c.062.194.138.383.228.565l-.749.773L641,214.289l.75-.773c.176.093.359.172.547.236v1.092h2.498v-1.092c.188-.064.371-.143.548-.236l.749.773l1.767-1.823-.75-.773c.09-.182.166-.371.229-.565h1.057Zm-4.849,1.308c-.498,0-.984-.152-1.398-.438-.414-.285-.736-.691-.927-1.165-.19-.475-.24-.997-.143-1.501s.337-.967.689-1.33.8-.611,1.288-.711c.489-.1.995-.049,1.455.148.459.197.852.53,1.129.957s.424.929.424,1.443c0,.341-.065.679-.191.994-.127.315-.312.601-.546.843-.234.241-.511.432-.817.563-.305.13-.632.197-.963.197v0Z" fill="#fff"/><path d="M606.27,214.023l2.841,3.275l10.578,1.692-14.192,3.964-3.875-6.931l4.648-2Z" transform="translate(.000002 0)" fill="#030478"/><path d="M606.27,214.023l2.841,3.275l10.578,1.692-14.192,3.964-3.875-6.931l4.648-2Z" transform="translate(.000002 0)" fill="#030478"/><path d="M535.652,158.762c-4.324,12.724.015,16.247,7.546,18.835c2.994,1.029,27.845-1.388,35.272,1.046s23.153,40.183,23.153,40.183l6.828-4.221c0,0-15.537-44.181-17.788-45.793-3.504-2.51-24.016-4.598-29.909-6.227s-10.56-7.867-10.56-7.867l-14.542,4.044Z" fill="url(#egOenuCNj5f17-fill)"/><path d="M604.029,216.083l2.841,3.274l10.578,1.693-14.194,3.963-3.874-6.931l4.649-1.999Z" fill="#030478"/><path d="M604.029,216.083l2.841,3.274l10.578,1.693-14.194,3.963-3.874-6.931l4.649-1.999Z" transform="matrix(.968975 0 0 1.988584 26.496322-231.506752)" fill="#030478"/><g><g><g transform="matrix(.966482-.256736 0.256736 0.966482-28.837838 152.603658)"><path d="M536.216,156.644c-4.324,12.724-2.79,20.426,4.74,23.014c2.995,1.029,38.079,1.314,38.079,1.314l20.346,39.915l6.828-4.221c0,0-16.856-44.554-18.818-46.203-1.961-1.648-22.326-4.613-28.218-6.242-5.893-1.629-8.414-11.62-8.414-11.62l-14.543,4.043Z" transform="matrix(.994332-.106321 0.106321 0.994332-16.623922 61.663783)" fill="url(#egOenuCNj5f23-fill)"/></g></g></g></g><path d="M588.275,165.855h-27.521c-.42,0-.823-.172-1.119-.478-.297-.307-.464-.722-.464-1.155s.167-.849.464-1.155c.296-.306.699-.478,1.119-.478h26.161l3.706-25.117c.031-.212.103-.416.21-.599.108-.184.249-.344.417-.471.167-.127.357-.219.559-.271.202-.051.411-.061.617-.028.205.032.402.106.58.217.178.11.333.257.456.429.123.173.212.369.262.577.05.209.06.425.028.637l-3.91,26.504c-.057.387-.246.739-.533.993-.287.255-.653.395-1.032.395v0Z" transform="matrix(.918536 0 0 1.064132 42.415949-8.46176)" fill="#ff9a25"/><g style="mix-blend-mode:multiply"><path d="M607.296,60.0168h-34.039c-.636,0-1.267.1294-1.855.3807s-1.122.6198-1.572,1.0843c-.45.4644-.807,1.0158-1.051,1.6227-.243.6068-.369,1.2573-.369,1.9141v23.8638c0,.6569.126,1.3073.369,1.9142.244.6068.601,1.1582,1.051,1.6227s.984.8329,1.572,1.0843c.588.2513,1.219.3807,1.855.3807h2.473l-5.347,5.6118l13.937-5.6118h22.976c1.285,0,2.518-.527,3.427-1.465.909-.9381,1.419-2.2103,1.419-3.5369v-23.8638c0-1.3265-.51-2.5988-1.419-3.5368s-2.142-1.465-3.427-1.465v0Z" fill="#e6f4ff"/></g><path d="M602.702,57.3846h-32.401c-3.129,0-5.666,2.618-5.666,5.8474v22.1726c0,3.2295,2.537,5.8474,5.666,5.8474h32.401c3.129,0,5.665-2.6179,5.665-5.8474v-22.1726c0-3.2294-2.536-5.8474-5.665-5.8474Z" fill="#fff"/><path d="M573.567,89.5512l-6.959,7.3054l18.14-7.3054" fill="#fff"/><path d="M537.688,129.658c0,0,1.675,17.934,3.682,21.669c2.008,3.736,25.618,11.93,27.688,12.081c1.892-.141,3.74-.663,5.438-1.536c0,0,5.212,1.933,6.07,1.462.857-.471-4.663-4.54-6.782-4.97-2.119-.429-5.339,1.292-5.339,1.292s-18.242-7.837-20.286-11.209c-2.044-3.373-3.579-20.093-3.579-20.093l-6.892,1.304Z" fill="#f8c3c7"/><path d="M542.169,112.114l-2.247,6.143l5.664,1.278.989-6.928-4.406-.493Z" fill="#fcc"/><path d="M539.88,107.597c.065.204.111.414.139.627.173,1.583.703,3.103,1.549,4.435.454.709,1.053,1.306,1.755,1.749s1.49.722,2.308.816c.744.028,1.486-.1,2.182-.376.695-.276,1.33-.693,1.865-1.228c1.066-1.079,1.868-2.404,2.341-3.865.799-2.26,1.715-5.071.442-7.086-.614-.972-3.82-2.585-6.104-3.6433-.677-.313-1.434-.3948-2.16-.2336-.725.1612-1.382.557-1.875,1.1298l-2.232,2.5871c-.408.473-.688,1.048-.812,1.668-.125.62-.089,1.263.104,1.864l.498,1.556Z" fill="#fcc"/><path d="M543.095,101.261c-.346-.064-.703-.003-1.011.171-.308.175-.549.453-.683.788-.123.34-.175.702-.154,1.064s.115.715.276,1.037c.327.642.739,1.232,1.225,1.755-.876,1.309-2.36,2.952-2.18,4.532-1.189-.779-1.113-1.77-2.045-2.859-1.73-2.021-4.415-10.2077,1.76-12.5757c6.648-8.9596,16.14,4.7186,17.635,4.0166-.151,1.3701-.766,2.6401-1.736,3.5881-.971.948-2.234,1.511-3.567,1.592-1.579.24-3.19-.057-4.592-.845-.655-.455-1.354-.84-2.085-1.15-.554-.191-1.121,2.263-1.587,2.056-.45-.2-.694-3.02-1.256-3.17Z" fill="#241d9e"/><path d="M546.21,118.753c-5.639-4.953-12.465-1.598-13.685,13.913-.696,11.78-.796,23.589-.3,35.379c9.693,2.346,19.783-1.046,28.275-5.012c0,0-7.898-10.233-9.597-20.261-1.379-8.136-.132-20.014-4.693-24.019Z" transform="matrix(1.165483 0 0 0.997709-88.61822 2.878179)" fill="url(#egOenuCNj5f33-fill)"/><path d="M541.806,130.906c-.871.164-1.649.662-2.177,1.395s-.767,1.646-.667,2.554c.591,5.375,1.875,15.606,3.336,18.324c2.007,3.735,20.931,11.106,23,11.256c1.484-.048,2.944-.396,4.298-1.025.756-.313,1.595-.341,2.369-.079c1.597.54,4.251,1.354,4.841,1.03.857-.471-4.662-4.54-6.782-4.969-1.36-.126-2.729.107-3.978.676-.46.181-.953.259-1.444.228-.492-.03-.972-.168-1.408-.405-3.579-1.929-12.482-6.911-14.108-9.593-1.419-2.341-2.592-11.117-3.177-16.264-.056-.49-.208-.963-.448-1.39s-.562-.798-.947-1.092c-.384-.293-.823-.502-1.289-.613s-.949-.122-1.419-.033v0Z" fill="#fcc"/><path d="M540.581,119.482c-7.055,1.985-3.784,17.205-3.784,17.205c3.262,1.195,7.295.724,11.724-.603-1.34-3.63-1.582-18.391-7.94-16.602Z" fill="#fff"/></g><g style="mix-blend-mode:multiply"><path d="M491.88,177.907h84.472c3.154,0,6.179,1.293,8.409,3.595c2.23,2.301,3.483,5.423,3.483,8.678v149.707c0,3.255-1.253,6.377-3.483,8.678-2.23,2.302-5.255,3.595-8.408,3.595h-84.473c-3.154,0-6.179-1.293-8.409-3.595-2.23-2.301-3.483-5.423-3.483-8.678v-149.707c0-3.255,1.253-6.377,3.483-8.678c2.23-2.302,5.255-3.595,8.409-3.595v0Z" fill="#e6f4ff"/></g><path d="M486.113,177.907h84.472c3.154,0,6.179,1.293,8.409,3.595c2.23,2.301,3.483,5.423,3.483,8.678v149.707c0,3.255-1.253,6.377-3.483,8.678-2.23,2.302-5.255,3.595-8.409,3.595h-84.472c-3.154,0-6.179-1.293-8.409-3.595-2.23-2.301-3.483-5.423-3.483-8.678v-149.707c0-3.255,1.253-6.377,3.483-8.678c2.23-2.302,5.255-3.595,8.409-3.595v0Z" fill="url(#egOenuCNj5f38-fill)"/><path d="M582.477,189.667h-108.256v150.743h108.256v-150.743Z" fill="#fff"/><path d="M197.434,333.296c-1.098.064-2.192.127-3.281.189" fill="none" stroke="#fff" stroke-width="0.88029" stroke-linecap="round" stroke-linejoin="round"/><path d="M451.703,130.517c.038,1.118.09,2.247.155,3.388" fill="none" stroke="#fff" stroke-width="0.88029" stroke-linecap="round" stroke-linejoin="round"/><path d="M420.019,120.917c.687-.88,1.315-1.807,1.879-2.776" fill="none" stroke="#fff" stroke-width="0.88029" stroke-linecap="round" stroke-linejoin="round"/><path d="M170.147,157.607c1.095.013,2.191.025,3.286.038" fill="none" stroke="#fff" stroke-width="0.88029" stroke-linecap="round" stroke-linejoin="round"/><path d="M345.043,325.19c1.096.004,2.191.009,3.287.013" fill="none" stroke="#fff" stroke-width="0.88029" stroke-linecap="round" stroke-linejoin="round"/><g id="egOenuCNj5f45" transform="translate(159.100991 34.98)"><path d="M290.997,325.228c108.763.382,217.526.104,326.288-.834c13.436-.116,27.273-.317,39.647-5.256C669.306,314.198,680,303.29,680,290.617c0-17.144-18.246-28.986-35.378-34.711-33.117-11.067-69.044-11.256-104.178-11.321-75.83-.141-151.659-.282-227.489-.423" fill="none" stroke="#ddd" stroke-width="0.88029" stroke-linecap="round" stroke-linejoin="round" stroke-dasharray="4.42,4.42"/><path d="M595.872,324.308c1.446-.779,50.787-18.186,50.787-18.186l4.494,6.879-55.281,11.307Z" fill="#70d9ff"/><path d="M651.153,313.001l-.455,23.279-54.826-11.972l55.281-11.307Z" fill="#0bf"/><path d="M650.698,336.284l-54.826-11.971l61.02-3.535-6.194,15.506Z" fill="#0bf"/><path d="M656.892,320.778l-61.02,3.535l68.112,8.657-7.092-12.192Z" fill="#70d9ff"/></g><path d="M373.591,244.152c-1.096-.002-2.191-.004-3.287-.006" fill="none" stroke="#fff" stroke-width="0.88029" stroke-linecap="round" stroke-linejoin="round"/><path d="M373.907,315.688h-70.859v28.256h70.859v-28.256Z" fill="url(#egOenuCNj5f52-fill)"/><g style="mix-blend-mode:multiply" opacity="0.18"><path d="M373.907,315.688h-70.859v10.635h70.859v-10.635Z" fill="#0e0092"/></g><path d="M513.875,100.601h-350.795c-7.42,0-13.434,6.207-13.434,13.865v192.934c0,7.657,6.014,13.865,13.434,13.865h350.795c7.42,0,13.434-6.208,13.434-13.865v-192.934c0-7.658-6.014-13.865-13.434-13.865Z" opacity="0.7" fill="url(#egOenuCNj5f55-fill)"/><path d="M168.064,110.609h340.827c2.242,0,4.391.919,5.976,2.555s2.476,3.854,2.476,6.167v183.208c0,2.314-.891,4.532-2.476,6.168s-3.734,2.555-5.976,2.555h-340.827c-2.241,0-4.391-.919-5.976-2.555s-2.475-3.854-2.475-6.168v-183.208c0-2.313.89-4.532,2.475-6.167c1.585-1.636,3.735-2.555,5.976-2.555Z" fill="#def2fb"/><path d="M517.343,123.553h-357.73v174.756h357.73v-174.756Z" fill="#fff"/><path d="M440.83,343.943h-204.705c-2.032,0-3.679,1.7-3.679,3.798v.625c0,2.097,1.647,3.798,3.679,3.798h204.705c2.032,0,3.679-1.701,3.679-3.798v-.625c0-2.098-1.647-3.798-3.679-3.798Z" fill="url(#egOenuCNj5f58-fill)"/><path d="M174.582,194.137c2.776,7.396,8.129,13.455,15.009,16.99c6.879,3.535,14.79,4.291,22.182,2.121c7.391-2.171,13.731-7.112,17.778-13.855c4.046-6.743,5.506-14.803,4.095-22.599-1.412-7.797-5.593-14.769-11.725-19.549-6.133-4.781-13.774-7.026-21.426-6.296-7.653.73-14.765,4.384-19.944,10.244s-8.05,13.505-8.053,21.436c-.001,3.936.705,7.838,2.084,11.508Zm13.068-20.846c1.577-2.819,3.841-5.162,6.567-6.797c2.727-1.636,5.82-2.507,8.973-2.527c3.154-.02,6.257.812,9.002,2.413c2.746,1.601,5.038,3.915,6.648,6.713c1.611,2.798,2.484,5.982,2.534,9.236.049,3.254-.727,6.465-2.252,9.313-1.525,2.849-3.746,5.236-6.442,6.925-2.695,1.689-5.772,2.62-8.924,2.702-.147.009-.303.019-.459.019-3.627.003-7.17-1.121-10.169-3.226s-5.314-5.093-6.644-8.575c-1.002-2.616-1.418-5.432-1.216-8.236.201-2.805,1.016-5.527,2.382-7.96Z" fill="#43ffd9"/><path d="M203.297,214.406v-13.118c.156,0,.312-.01.459-.019c3.605-.091,7.102-1.295,10.039-3.455s5.181-5.178,6.441-8.666c1.261-3.487,1.481-7.285.633-10.902-.849-3.618-2.727-6.891-5.394-9.397l8.461-9.794c4.618,4.305,7.863,9.952,9.308,16.199c1.446,6.246,1.023,12.797-1.212,18.791-2.235,5.993-6.177,11.147-11.306,14.782-5.13,3.634-11.207,5.58-17.429,5.579v0Z" fill="#ff6570"/><path d="M172.502,182.628c-.008-5.648,1.447-11.195,4.216-16.066l10.935,6.727c-1.366,2.433-2.181,5.154-2.384,7.959-.203,2.804.211,5.62,1.212,8.236l-11.899,4.652c-1.38-3.67-2.086-7.572-2.08-11.508v0Z" fill="#00d1ff"/><path d="M176.718,166.561c2.313-4.075,5.477-7.566,9.262-10.221c3.785-2.654,8.096-4.405,12.619-5.124c4.522-.719,9.144-.388,13.527.967c4.384,1.356,8.419,3.703,11.813,6.871l-8.466,9.79c-1.995-1.879-4.373-3.273-6.959-4.078-2.585-.805-5.313-1.002-7.982-.576-2.669.427-5.212,1.465-7.441,3.04-2.229,1.574-4.087,3.645-5.438,6.058l-10.935-6.727Z" fill="#ffe000"/><path d="M261.1,152.995c-7.166,2.866-13.036,8.39-16.461,15.49s-4.158,15.264-2.055,22.892c2.103,7.629,6.891,14.172,13.424,18.347c6.534,4.176,14.343,5.683,21.897,4.226s14.309-5.772,18.941-12.101c4.632-6.328,6.807-14.214,6.099-22.112-.707-7.897-4.247-15.237-9.925-20.582-5.678-5.344-13.085-8.308-20.77-8.31-3.814-.002-7.594.727-11.15,2.15v0Zm20.199,13.487c2.73,1.628,5.001,3.965,6.586,6.778c1.584,2.814,2.428,6.006,2.448,9.261.019,3.254-.787,6.457-2.338,9.29-1.551,2.834-3.794,5.199-6.505,6.862-2.711,1.662-5.796,2.563-8.949,2.614s-6.264-.75-9.024-2.324-5.073-3.866-6.709-6.648c-1.637-2.782-2.539-5.957-2.619-9.211-.009-.151-.018-.312-.018-.473-.003-3.743,1.086-7.4,3.126-10.495c2.039-3.095,4.935-5.485,8.309-6.857c2.534-1.035,5.262-1.464,7.98-1.256c2.718.209,5.355,1.049,7.713,2.459v0Z" fill="#def2fb"/><path d="M241.46,182.636h12.71c0,.161.009.322.018.474.089,3.721,1.255,7.33,3.348,10.361c2.093,3.032,5.018,5.347,8.397,6.648s7.058,1.528,10.564.653c3.505-.876,6.676-2.815,9.105-5.567l9.489,8.733c-4.171,4.765-9.643,8.114-15.695,9.606s-12.4,1.055-18.208-1.251c-5.807-2.307-10.8-6.375-14.322-11.669s-5.407-11.566-5.406-17.988Z" opacity="0.75" fill="#00d1ff"/><path d="M272.251,150.846c5.472-.008,10.847,1.494,15.567,4.351L281.3,166.483c-2.358-1.41-4.994-2.251-7.712-2.46-2.717-.21-5.445.218-7.98,1.25l-4.507-12.28c3.555-1.425,7.336-2.153,11.15-2.147v0Z" opacity="0.22" fill="#00d1ff"/><path d="M287.819,155.198c3.948,2.387,7.331,5.653,9.903,9.559s4.268,8.355,4.965,13.023.377,9.437-.937,13.961-3.588,8.689-6.657,12.192l-9.486-8.738c1.821-2.059,3.171-4.513,3.951-7.181.781-2.669.971-5.484.558-8.239s-1.419-5.379-2.945-7.679-3.532-4.218-5.87-5.612l6.518-11.286Z" opacity="0.48" fill="#00d1ff"/><path d="M291.381,233.71h-108.307c-.982,0-1.924-.403-2.618-1.119-.694-.717-1.084-1.689-1.084-2.702v-.63c0-.501.095-.998.281-1.462.187-.464.459-.885.803-1.24.344-.354.752-.636,1.201-.828s.931-.291,1.417-.291h108.307c.982,0,1.923.403,2.618,1.119.694.717,1.084,1.689,1.084,2.702v.63c0,1.013-.39,1.985-1.084,2.702-.695.716-1.636,1.119-2.618,1.119v0Zm0,5.866h-108.307c-.486,0-.968.099-1.417.291s-.857.473-1.201.828-.616.776-.803,1.24c-.186.463-.281.96-.281,1.462v.63c0,.501.095.998.281,1.462.187.464.459.885.803,1.24.344.354.752.636,1.201.828s.931.291,1.417.291h108.307c.982,0,1.923-.403,2.618-1.119.694-.717,1.084-1.689,1.084-2.702v-.63c0-.502-.096-.999-.282-1.462-.186-.464-.458-.885-.802-1.24s-.752-.636-1.201-.828c-.45-.192-.931-.291-1.417-.291v0Zm0,14.138h-108.307c-.486,0-.968.099-1.417.291s-.857.473-1.201.828-.616.776-.803,1.24c-.186.463-.281.96-.281,1.462v.629c0,.502.095.999.281,1.463.187.463.459.885.803,1.239.344.355.752.637,1.201.829s.931.291,1.417.291h108.307c.982,0,1.923-.403,2.618-1.12.694-.716,1.084-1.688,1.084-2.702v-.629c0-.502-.096-.999-.282-1.462-.186-.464-.458-.885-.802-1.24s-.752-.636-1.201-.828c-.45-.192-.931-.291-1.417-.291v0Zm0,14.138h-108.307c-.486,0-.968.098-1.417.29-.449.193-.857.474-1.201.829s-.616.776-.803,1.239c-.186.464-.281.961-.281,1.463v.629c0,.502.095.999.281,1.463.187.463.459.884.803,1.239s.752.637,1.201.829.931.29,1.417.29h108.307c.486,0,.967-.098,1.417-.29.449-.192.857-.474,1.201-.829s.616-.776.802-1.239c.186-.464.282-.961.282-1.463v-.629c0-.502-.096-.999-.282-1.463-.186-.463-.458-.884-.802-1.239s-.752-.636-1.201-.829c-.45-.192-.931-.29-1.417-.29v0Z" fill="#def2fb"/><path d="M390.348,165.424h102.321c2.774,0,5.433,1.137,7.394,3.161s3.063,4.769,3.063,7.631v100.943c0,2.862-1.102,5.607-3.063,7.631s-4.62,3.161-7.394,3.161h-102.321c-2.774,0-5.433-1.137-7.394-3.161s-3.063-4.769-3.063-7.631v-100.943c0-2.862,1.102-5.607,3.063-7.631s4.62-3.161,7.394-3.161v0Z" fill="#def2fb"/><path d="M426.752,220.099h-31.464c-1.625,0-3.183-.666-4.333-1.852-1.149-1.186-1.794-2.795-1.794-4.472v-32.472c0-1.677.645-3.286,1.794-4.472c1.15-1.186,2.708-1.852,4.333-1.852h31.464c1.625,0,3.184.666,4.333,1.852s1.794,2.795,1.794,4.472v32.472c0,1.677-.645,3.286-1.794,4.472-1.15,1.186-2.708,1.852-4.333,1.852Zm67.104-40.263v-.315c0-.251-.048-.5-.141-.732s-.229-.443-.401-.62c-.172-.178-.377-.318-.601-.414-.225-.097-.466-.146-.709-.146h-51.108c-.243,0-.484.049-.709.146-.225.096-.429.236-.601.414-.172.177-.308.388-.401.62s-.141.481-.141.732v.315c0,.251.048.499.141.731s.229.443.401.62c.172.178.376.319.601.415s.466.145.709.145h51.108c.243,0,.484-.049.709-.145.224-.096.429-.237.601-.415.172-.177.308-.388.401-.62s.141-.48.141-.731v0Zm0,11.592v.315c0,.507-.195.993-.542,1.352-.348.358-.819.56-1.31.56h-51.108c-.491,0-.962-.202-1.31-.56-.347-.359-.542-.845-.542-1.352v-.315c0-.251.048-.5.141-.732.093-.231.229-.442.401-.62.172-.177.376-.318.601-.414s.466-.146.709-.146h51.108c.243,0,.484.05.709.146.224.096.429.237.601.414.172.178.308.389.401.62.093.232.141.481.141.732v0Zm0,11.907v.315c0,.251-.048.5-.141.732s-.229.443-.401.62c-.172.178-.377.318-.601.415-.225.096-.466.145-.709.145h-51.108c-.243,0-.484-.049-.709-.145-.225-.097-.429-.237-.601-.415-.172-.177-.308-.388-.401-.62s-.141-.481-.141-.732v-.315c0-.251.048-.499.141-.731s.229-.443.401-.62c.172-.178.376-.319.601-.415s.466-.145.709-.145h51.108c.243,0,.484.049.709.145.224.096.429.237.601.415.172.177.308.388.401.62s.141.48.141.731v0Zm0,11.908v.315c0,.251-.048.499-.141.731s-.229.443-.401.62c-.172.178-.377.319-.601.415-.225.096-.466.145-.709.145h-51.108c-.243,0-.484-.049-.709-.145s-.429-.237-.601-.415c-.172-.177-.308-.388-.401-.62s-.141-.48-.141-.731v-.315c0-.507.195-.994.542-1.352.348-.359.819-.56,1.31-.56h51.108c.491,0,.962.201,1.31.56.347.358.542.845.542,1.352Z" fill="#fff"/><path d="M426.752,278.23h-31.464c-1.625,0-3.183-.666-4.333-1.852-1.149-1.186-1.794-2.795-1.794-4.472v-32.472c0-1.677.645-3.286,1.794-4.472c1.15-1.186,2.708-1.852,4.333-1.852h31.464c1.625,0,3.183.666,4.333,1.852c1.149,1.186,1.794,2.795,1.794,4.472v32.472c0,1.677-.645,3.286-1.794,4.472-1.15,1.186-2.708,1.852-4.333,1.852v0Zm67.104-40.264v-.314c0-.252-.048-.5-.141-.732s-.229-.443-.401-.62c-.172-.178-.377-.319-.601-.415-.225-.096-.466-.145-.709-.145h-51.108c-.243,0-.484.049-.709.145s-.429.237-.601.415c-.172.177-.308.388-.401.62s-.141.48-.141.732v.314c0,.508.195.994.542,1.352.348.359.819.56,1.31.56h51.108c.491,0,.962-.201,1.31-.56.347-.358.542-.844.542-1.352v0Zm0,11.593v.315c0,.251-.048.5-.141.731-.093.232-.229.443-.401.621-.172.177-.377.318-.601.414-.225.096-.466.146-.709.146h-51.108c-.243,0-.484-.05-.709-.146s-.429-.237-.601-.414c-.172-.178-.308-.389-.401-.621-.093-.231-.141-.48-.141-.731v-.315c0-.251.048-.5.141-.732s.229-.442.401-.62c.172-.177.376-.318.601-.414s.466-.146.709-.146h51.108c.243,0,.484.05.709.146.224.096.429.237.601.414.172.178.308.388.401.62s.141.481.141.732v0Zm0,11.907v.315c0,.251-.048.5-.141.732s-.229.442-.401.62-.377.318-.601.414c-.225.096-.466.146-.709.146h-51.108c-.243,0-.484-.05-.709-.146s-.429-.236-.601-.414-.308-.388-.401-.62-.141-.481-.141-.732v-.315c0-.507.195-.993.542-1.352.348-.358.819-.56,1.31-.56h51.108c.491,0,.962.202,1.31.56.347.359.542.845.542,1.352Zm0,11.908v.315c0,.251-.048.499-.141.731s-.229.443-.401.62c-.172.178-.377.319-.601.415-.225.096-.466.145-.709.145h-51.108c-.243,0-.484-.049-.709-.145s-.429-.237-.601-.415c-.172-.177-.308-.388-.401-.62s-.141-.48-.141-.731v-.315c0-.251.048-.5.141-.732s.229-.443.401-.62c.172-.178.376-.318.601-.415.225-.096.466-.145.709-.145h51.108c.243,0,.484.049.709.145.224.097.429.237.601.415.172.177.308.388.401.62s.141.481.141.732v0Z" fill="#fff"/><path d="M325.268,252.571c9.67,4.3,21.965,4.509,30.108,2.86l-1.996-11.599-26.631-24.442-1.481,33.181Z" fill="#ffd2d2"/><path d="M330.921,254.568c-1.929-.521-3.819-1.189-5.653-1.997l1.481-33.181l5.584,5.124c-.983,9.986-1.454,20.017-1.412,30.054v0Z" fill="#ffdede"/><path d="M339.639,256.122c5.251.516,10.547.282,15.736-.697l-1.996-11.594-16.31-9.335c.487,7.251,1.345,14.469,2.57,21.626v0Z" fill="#fccaca"/><path d="M344.141,195.428c8.46-3.155,15.16-1.11,21.661,10.385c6.502,11.495,15.499,21.481,11.215,25.032s-12.666,13.922-25.361,12.93c-19.005-1.486-32.22-39.135-7.515-48.347Z" fill="#fccaca"/><path d="M367.406,235.139c-2.008,1.155-4.377,1.439-6.588.791-2.211-.649-4.081-2.177-5.2-4.249l-27.207-50.383l21.618-12.434l21.213,55.164c.776,2.017.814,4.257.108,6.301-.705,2.044-2.107,3.754-3.944,4.81v0Z" fill="#f8b024"/><path d="M316.086,166.069l5.061-2.91c2.822-1.623,6.153-2.023,9.26-1.111c3.108.911,5.737,3.06,7.31,5.972l.977,1.81c1.573,2.912,1.96,6.35,1.077,9.557-.884,3.207-2.965,5.921-5.787,7.544l-5.061,2.911c-2.822,1.623-6.154,2.023-9.261,1.111-3.108-.912-5.737-3.06-7.31-5.973l-.977-1.809c-.778-1.442-1.274-3.029-1.459-4.669-.185-1.639-.055-3.301.383-4.889.437-1.588,1.173-3.072,2.166-4.366s2.224-2.374,3.621-3.178v0Z" fill="url(#egOenuCNj5f76-fill)"/><path style="mix-blend-mode:screen" d="M317.074,174.678l9.365-5.386c1.115-.641,2.341-1.05,3.608-1.202c1.268-.152,2.552-.045,3.78.315c1.227.361,2.374.967,3.375,1.784c1,.818,1.835,1.831,2.456,2.981l2.95,5.463c-.143-1.324-.541-2.605-1.17-3.768l-3.376-6.251c-1.255-2.324-3.352-4.038-5.831-4.765s-5.137-.409-7.388.886l-9.365,5.387c-2.251,1.294-3.912,3.459-4.616,6.018-.705,2.558-.396,5.301.859,7.624l.425.789c-.212-1.964.142-3.949,1.019-5.706s2.237-3.207,3.909-4.169v0Z" opacity="0.44" fill="url(#egOenuCNj5f77-fill)"/><path style="mix-blend-mode:multiply" d="M339.894,172.053l-3.376-6.252c-.427-.786-.955-1.508-1.57-2.148l1.767,3.271c1.255,2.324,1.564,5.067.859,7.625-.705,2.559-2.366,4.723-4.617,6.018l-9.364,5.386c-1.858,1.068-4.003,1.476-6.108,1.164-2.104-.313-4.051-1.329-5.542-2.893l1.609,2.979c1.255,2.324,3.353,4.038,5.832,4.765s5.136.408,7.388-.886l9.364-5.387c1.115-.641,2.096-1.502,2.888-2.535.793-1.032,1.38-2.216,1.729-3.483s.452-2.592.305-3.9c-.147-1.309-.543-2.574-1.164-3.724Z" opacity="0.42" fill="url(#egOenuCNj5f78-fill)"/><path d="M325.908,153.67l10.706-6.158c3.588-2.063,7.823-2.572,11.774-1.413c3.951,1.16,7.294,3.891,9.293,7.594l3.324,6.156c2,3.703,2.492,8.074,1.369,12.151-1.123,4.078-3.769,7.528-7.357,9.592l-10.706,6.158c-3.588,2.063-7.823,2.572-11.775,1.413-3.951-1.16-7.294-3.891-9.293-7.594l-3.324-6.155c-2-3.703-2.492-8.075-1.369-12.152c1.123-4.078,3.77-7.528,7.358-9.592v0Z" fill="url(#egOenuCNj5f79-fill)"/><path style="mix-blend-mode:screen" d="M326.323,163.881l17.236-9.914c1.348-.775,2.831-1.269,4.363-1.453c1.533-.184,3.086-.054,4.57.381c1.484.436,2.871,1.169,4.08,2.157c1.21.989,2.219,2.213,2.97,3.604l5.912,10.949c-.217-1.399-.671-2.747-1.341-3.984l-6.963-12.895c-1.517-2.809-4.053-4.881-7.05-5.761-2.998-.879-6.211-.494-8.933,1.072l-17.236,9.914c-1.347.775-2.534,1.816-3.492,3.065-.958,1.248-1.668,2.679-2.09,4.211s-.547,3.135-.369,4.716c.178,1.582.657,3.112,1.408,4.503l1.051,1.947c-.381-2.457-.02-4.975,1.032-7.213c1.053-2.238,2.747-4.088,4.852-5.299v0Z" opacity="0.44" fill="url(#egOenuCNj5f80-fill)"/><path style="mix-blend-mode:multiply" d="M362.825,163.212l-6.963-12.895c-1.046-1.944-2.593-3.553-4.469-4.648.06.104.121.207.179.313l6.963,12.895c1.517,2.81,1.89,6.126,1.038,9.219-.852,3.094-2.86,5.711-5.582,7.277l-17.236,9.914c-1.761,1.014-3.745,1.542-5.762,1.535-2.016-.007-3.997-.55-5.751-1.577c1.566,2.707,4.092,4.678,7.042,5.495c2.951.817,6.093.416,8.762-1.118l17.236-9.914c1.348-.775,2.534-1.817,3.492-3.065.958-1.249,1.668-2.68,2.09-4.212.422-1.531.547-3.134.369-4.716s-.656-3.112-1.408-4.503v0Z" opacity="0.42" fill="url(#egOenuCNj5f81-fill)"/><path d="M427.739,174.233c-30.793,2.056-47.877-2.051-66.824,8.832-12.897,7.408-35.301-34.141-22.405-41.549c20.621-11.844,26.07-28.4,42.415-53.9764l46.814,86.6934Z" fill="url(#egOenuCNj5f82-fill)"/><path style="mix-blend-mode:screen" d="M341.845,151.99c20.62-11.844,27.105-26.068,43.45-51.644l-1.967-4.6598c-16.346,25.5758-22.83,39.7998-43.451,51.6438-5.958,3.422-2.931,13.49,1.761,23.292-3.036-8.33-4.814-15.748.207-18.632Z" fill="url(#egOenuCNj5f83-fill)"/><path style="mix-blend-mode:multiply" d="M422.91,165.297c-29.78,1.812-46.604-1.958-65.217,8.733-7.016,4.03-16.845-6.43-22.274-17.999c3.331,14.169,16.65,32.123,25.497,27.042c18.947-10.883,36.03-6.777,66.823-8.832l-4.829-8.944Z" opacity="0.3" fill="url(#egOenuCNj5f84-fill)"/><path d="M427.74,174.237c7.458-4.29,3.025-27.175-9.902-51.114-12.928-23.9402-29.453-39.8696-36.912-35.5798-7.458,4.2899-3.025,27.1748,9.903,51.1138c12.927,23.94,29.453,39.87,36.911,35.58Z" fill="url(#egOenuCNj5f85-fill)"/><path style="mix-blend-mode:multiply" d="M424.395,174.904c2.322-8.788-2.575-27.31-12.949-46.522-11.246-20.827-25.214-35.5836-33.567-36.2465-2.322,8.7875,2.575,27.3105,12.949,46.5215c11.246,20.827,25.213,35.584,33.567,36.247Z" opacity="0.3" fill="url(#egOenuCNj5f86-fill)"/><path d="M421.726,120.883c-14.555-26.953-34.468-44.1358-44.477-38.3786-10.01,5.7572-6.325,32.2746,8.229,59.2276c14.555,26.953,34.468,44.136,44.477,38.379c10.01-5.758,6.325-32.275-8.229-59.228Zm6.013,53.351c-7.458,4.29-23.984-11.639-36.911-35.579s-17.361-46.8244-9.903-51.1142c7.459-4.2898,23.984,11.6395,36.912,35.5792c12.927,23.94,17.361,46.825,9.902,51.114Z" fill="url(#egOenuCNj5f87-fill)"/><g style="mix-blend-mode:multiply" opacity="0.5"><path style="mix-blend-mode:multiply" d="M419.012,119.886c-12.927-23.9401-29.453-39.8696-36.911-35.5796-.884.5998-1.631,1.3908-2.19,2.3182-.558.9274-.915,1.969-1.045,3.0526.493-.8862,1.203-1.6227,2.059-2.1354c7.459-4.2898,23.984,11.6395,36.912,35.5792c10.074,18.657,14.988,36.67,13.137,45.743c4.288-7.318-.486-27.727-11.962-48.978Z" opacity="0.5" fill="url(#egOenuCNj5f89-fill)"/><path style="mix-blend-mode:multiply" d="M431.131,176.878c-10.009,5.757-29.922-11.426-44.477-38.379-11.107-20.568-15.882-40.8807-13.074-51.9095-4.941,9.8819-.407,32.3565,11.898,55.1455c14.555,26.953,34.468,44.136,44.478,38.378c1.249-.813,2.324-1.881,3.157-3.14s1.407-2.681,1.687-4.178c-.801,1.709-2.079,3.13-3.669,4.083Z" opacity="0.5" fill="url(#egOenuCNj5f90-fill)"/></g><path d="M390.828,138.654c2.681,4.985,5.642,9.804,8.867,14.433l13.075-7.52-16.097-29.808-13.074,7.52c2.118,5.266,4.531,10.399,7.229,15.375Z" fill="url(#egOenuCNj5f91-fill)"/><path style="mix-blend-mode:screen" d="M387.133,131.348c0,0-2.482-5.437-3.534-8.069l13.074-7.52l4.362,8.078-13.902,7.511Z" fill="url(#egOenuCNj5f92-fill)"/><path style="mix-blend-mode:multiply" d="M407.01,137.43l-12.714,7.312c1.767,2.947,3.576,5.74,5.401,8.346l13.074-7.52-5.761-8.138Z" opacity="0.5" fill="url(#egOenuCNj5f93-fill)"/><path d="M412.77,145.573c2.564-1.475,1.04-9.343-3.405-17.575-4.445-8.231-10.127-13.708-12.692-12.233-2.564,1.475-1.04,9.344,3.405,17.575s10.127,13.708,12.692,12.233Z" fill="url(#egOenuCNj5f94-fill)"/><path d="M374.667,221.533c4.029-1.065,8.187,6.645,3.016,9.85-3.881,2.427-8.174,4.07-12.65,4.841-4.065.614-5.845-5.025-1.783-8.304c3.354-2.895,7.236-5.067,11.417-6.387v0Z" fill="#ffdede"/><path d="M365.03,236.228c4.477-.769,8.77-2.411,12.65-4.839.905-.511,1.621-1.317,2.035-2.292s.504-2.065.255-3.098c-.294.281-.616.53-.959.743-3.88,2.428-8.174,4.07-12.65,4.839-.89.167-1.809-.038-2.553-.569-.744-.532-1.254-1.347-1.416-2.266-2.909,3.314-1.098,8.049,2.638,7.482Z" fill="#ffd2d2"/><path d="M372.184,211.565c4.757-1.258,9.667,7.846,3.561,11.631-4.583,2.866-9.652,4.806-14.938,5.716-4.799.726-6.901-5.934-2.104-9.805c3.96-3.419,8.544-5.984,13.481-7.542v0Z" fill="#ffdede"/><path d="M360.807,228.911c5.285-.913,10.355-2.853,14.939-5.717c1.12-.641,1.991-1.66,2.468-2.886.476-1.226.528-2.584.147-3.845-.428,1.409-1.364,2.595-2.615,3.313-4.582,2.868-9.653,4.808-14.939,5.717-.969.185-1.969-.005-2.81-.534s-1.463-1.359-1.747-2.332c-1.022,3.393,1.044,6.819,4.557,6.284Z" fill="#ffd2d2"/><path d="M365.263,200c5.062-2.75,13.009,6.2,7.078,12.191-4.445,4.525-9.683,8.137-15.435,10.641-5.25,2.159-9.374-4.803-4.95-10.527c3.594-4.978,8.118-9.163,13.307-12.305v0Z" fill="#ffdede"/><path d="M356.907,222.835c5.753-2.505,10.991-6.117,15.435-10.644.951-.886,1.622-2.046,1.926-3.33.303-1.285.225-2.634-.224-3.872-.379.984-.96,1.872-1.702,2.603-4.446,4.522-9.684,8.132-15.435,10.636-.618.274-1.284.41-1.957.399-.672-.01-1.334-.167-1.943-.46-.61-.294-1.152-.717-1.592-1.241-.44-.525-.767-1.14-.96-1.804-1.571,4.91,2.042,9.526,6.452,7.713Z" fill="#ffd2d2"/><path d="M357.023,191.049c4.701-2.554,12.078,5.756,6.571,11.318-3.906,4.096-8.342,7.615-13.183,10.455-5.126,2.687-9.723-3.384-5.615-8.698c4.108-5.315,8.214-10.895,12.227-13.075Z" fill="#ffdede"/><path d="M350.409,212.824c4.841-2.838,9.278-6.356,13.183-10.452c1.116-1.064,1.808-2.52,1.939-4.082.132-1.562-.306-3.119-1.227-4.366-.029.822-.216,1.631-.551,2.378s-.81,1.418-1.398,1.974c-3.904,4.098-8.341,7.616-13.184,10.452-.939.571-2.039.791-3.117.624s-2.067-.712-2.802-1.542c-.137.923-.018,1.868.344,2.725.362.856.951,1.589,1.7,2.114s1.627.82,2.532.851s1.8-.203,2.581-.676v0Z" fill="#ffd2d2"/><path d="M351.54,185.359c4.831.017,8.672,9.853-6.69,17.421.298,4.203-2.595,6.959.276,10.548c4.377,5.47,6.662,8.554,5.738,14.429-.952,6.052-8.117,9.891-15.12,6.122-7.179-3.864-17.23-22.362.952-39.037c1.677-1.538,9.746-5.748,10.469-6.518c2.341-2.493,3.068-2.97,4.375-2.965Z" fill="#ffdede"/><path d="M335.747,233.878c7.002,3.769,14.166-.071,15.118-6.124.921-5.877-1.362-8.959-5.741-14.429-2.87-3.585.024-6.34-.271-10.548c15.358-7.569,11.521-17.399,6.685-17.423-.103-.003-.207.003-.309.016c2.065,3.29.967,9.917-10.105,15.371.302,4.2-2.592,6.955.279,10.548c4.371,5.47,6.661,8.552,5.733,14.429-.859,5.478-3.057,8.041-11.389,8.16Z" fill="#ffd2d2"/><path d="M356.549,244.148h-35.187v54.163h35.187v-54.163Z" fill="#fff"/><path d="M360.175,250.795h-42.438v47.52h42.438v-47.52Z" fill="url(#egOenuCNj5f106-fill)"/><path style="mix-blend-mode:multiply" d="M360.175,298.315h-33.656c9.384-14.355,15.859-30.518,19.038-47.52h14.618v47.52Z" opacity="0.8" fill="url(#egOenuCNj5f107-fill)"/><path id="egOenuCNj5f108" d="M416.258,93.375c-.627-.0008-1.241-.1757-1.78-.5063-.539-.3307-.981-.8048-1.281-1.3728s-.447-1.2087-.424-1.8551c.022-.6464.213-1.2747.552-1.8188l30.971-49.698c.502-.8019,1.292-1.3656,2.196-1.5673s1.849-.025,2.626.4914c.778.5164,1.326,1.3303,1.523,2.2629s.028,1.9079-.471,2.7117l-30.972,49.698c-.316.508-.751.9258-1.265,1.2148s-1.09.4403-1.675.4395v0Zm21.611,21.939l51.195-26.4544c.827-.429,1.454-1.1788,1.745-2.0848s.222-1.8941-.192-2.7477-1.139-1.5026-2.016-1.8048c-.878-.3023-1.835-.233-2.663.1926L434.742,108.869c-.411.212-.777.505-1.078.862-.301.358-.53.773-.675,1.223-.146.449-.204.923-.171,1.396.033.472.155.934.361,1.357.205.424.489.801.836,1.111s.75.547,1.186.696c.435.149.895.208,1.353.174s.904-.161,1.315-.374v0Zm7.303,32.49l57.209-2.348c.925-.038,1.798-.454,2.426-1.156s.961-1.633.924-2.588-.44-1.856-1.12-2.504c-.68-.649-1.582-.992-2.508-.954l-57.209,2.348c-.458.019-.908.131-1.324.329-.417.198-.791.479-1.102.827s-.553.755-.711,1.199c-.159.444-.231.916-.213,1.389s.127.938.319,1.367c.192.43.464.816.801,1.137s.732.571,1.162.735c.43.163.888.238,1.346.219Z" transform="matrix(.587353 0 0 0.441605 200.921782 59.564158)" fill="url(#egOenuCNj5f108-fill)"/><path d="M171.924,117.463c0,.433-.124.856-.357,1.216-.233.359-.564.64-.951.805-.388.166-.814.209-1.225.125-.411-.085-.789-.293-1.085-.599s-.498-.696-.58-1.12-.04-.864.121-1.264c.16-.4.432-.741.78-.981.349-.241.759-.369,1.178-.369.562,0,1.101.23,1.498.641.398.41.621.966.621,1.546v0Zm4.793-2.187c-.419,0-.829.128-1.177.369-.349.24-.62.582-.781.981-.16.4-.202.84-.12,1.264.081.425.283.814.58,1.12.296.306.674.515,1.085.599s.837.041,1.225-.124c.387-.166.718-.446.951-.806s.357-.783.357-1.216c0-.287-.055-.571-.161-.837-.107-.265-.263-.506-.46-.709-.197-.204-.43-.365-.687-.475-.258-.11-.533-.166-.812-.166Zm6.913,0c-.419,0-.829.128-1.177.369-.349.24-.62.582-.781.981-.16.4-.202.84-.121,1.264.082.425.284.814.581,1.12.296.306.674.515,1.085.599s.837.041,1.225-.124c.387-.166.718-.446.951-.806s.357-.783.357-1.216c0-.287-.055-.571-.161-.837-.107-.265-.263-.506-.46-.709-.197-.204-.43-.365-.687-.475-.258-.11-.533-.166-.812-.166v0Z" fill="#fff"/><g style="mix-blend-mode:multiply"><path d="M100.257,269.209h83.033c4.519,0,8.853,1.852,12.048,5.15c3.196,3.298,4.991,7.771,4.991,12.435v47.784c0,4.664-1.795,9.137-4.991,12.435-3.195,3.298-7.529,5.151-12.048,5.151h-83.033c-2.2376,0-4.4534-.455-6.5207-1.339s-3.9457-2.179-5.528-3.812-2.8374-3.572-3.6937-5.705c-.8563-2.134-1.2971-4.421-1.2971-6.73v-47.784c0-4.664,1.7952-9.137,4.9907-12.435s7.5296-5.15,12.0488-5.15v0Z" fill="#e6f4ff"/></g><path d="M176.954,269.209h-83.0324c-9.4106,0-17.0394,7.873-17.0394,17.585v47.784c0,9.712,7.6288,17.586,17.0394,17.586h83.0324c9.411,0,17.04-7.874,17.04-17.586v-47.784c0-9.712-7.629-17.585-17.04-17.585Z" fill="url(#egOenuCNj5f112-fill)"/><path d="M118.711,327.994v-34.61c0-.641.167-1.27.483-1.822s.769-1.006,1.313-1.316c.545-.309,1.159-.462,1.78-.442.621.019,1.225.21,1.75.552l26.513,17.306c.495.323.902.77,1.185,1.299.282.529.43,1.124.43,1.728s-.148,1.199-.43,1.728c-.283.529-.69.976-1.185,1.299l-26.513,17.305c-.525.343-1.129.534-1.75.553-.621.02-1.236-.133-1.78-.443-.544-.309-.997-.763-1.313-1.315s-.483-1.181-.483-1.822v0Z" fill="#fff"/><g style="mix-blend-mode:multiply"><path d="M105.192,162.804h34.039c.637,0,1.267.13,1.855.381s1.122.62,1.572,1.084c.45.465.807,1.016,1.051,1.623.243.607.369,1.257.369,1.914v23.864c0,.657-.126,1.307-.369,1.914-.244.607-.601,1.158-1.051,1.623-.45.464-.984.833-1.572,1.084-.588.252-1.218.381-1.855.381h-2.472l5.346,5.612-13.937-5.612h-22.976c-.636,0-1.266-.129-1.854-.381-.588-.251-1.123-.62-1.573-1.084-.45-.465-.807-1.016-1.05-1.623-.244-.607-.369-1.257-.369-1.914v-23.864c0-.657.125-1.307.369-1.914.243-.607.6-1.158,1.05-1.623.45-.464.985-.833,1.573-1.084s1.218-.381,1.854-.381v0Z" fill="#e6f4ff"/></g><path d="M102.747,194.034h32.401c3.129,0,5.665-2.618,5.665-5.847v-22.173c0-3.229-2.536-5.847-5.665-5.847h-32.401c-3.129,0-5.6656,2.618-5.6656,5.847v22.173c0,3.229,2.5366,5.847,5.6656,5.847Z" fill="#fff"/><path d="M131.881,192.34l6.961,7.304-18.141-7.304" fill="#fff"/><path d="M136.065,171.532h-34.236c-.339,0-.664-.139-.904-.386-.239-.248-.374-.583-.374-.933c0-.349.135-.685.374-.932.24-.247.565-.386.904-.386h34.236c.339,0,.664.139.904.386.239.247.374.583.374.932c0,.35-.135.685-.374.933-.24.247-.565.386-.904.386v0Zm1.278,5.565c0-.174-.033-.345-.097-.505-.065-.16-.159-.305-.277-.428-.119-.122-.26-.219-.415-.286-.155-.066-.321-.1-.489-.1h-34.236c-.339,0-.664.139-.904.386-.239.247-.374.583-.374.933c0,.349.135.685.374.932.24.247.565.386.904.386h34.236c.339,0,.664-.139.904-.386.239-.247.374-.583.374-.932v0Zm0,6.883c0-.173-.033-.345-.097-.505-.065-.16-.159-.305-.277-.427-.119-.123-.26-.22-.415-.286-.155-.067-.321-.101-.489-.101h-34.236c-.339,0-.664.139-.904.387-.239.247-.374.582-.374.932s.135.685.374.932c.24.248.565.387.904.387h34.236c.339,0,.664-.139.904-.387.239-.247.374-.582.374-.932v0Z" fill="#def2fb"/><path d="M568.105,67.4314c0-.3497.134-.6851.374-.9324.24-.2472.564-.3862.903-.3862h34.237c.339,0,.664.1389.903.3862.24.2473.374.5827.374.9324s-.134.6852-.374.9325c-.239.2473-.564.3862-.903.3862h-34.237c-.339,0-.663-.139-.903-.3863-.24-.2472-.374-.5827-.374-.9324v0Zm1.277,8.2021h34.237c.339,0,.664-.1389.903-.3862.24-.2473.374-.5827.374-.9324s-.134-.6852-.374-.9325c-.239-.2472-.564-.3862-.903-.3862h-34.237c-.339,0-.663.139-.903.3862s-.374.5827-.374.9325.134.6851.374.9324.564.3862.903.3862v0Zm0,6.8833h34.237c.339,0,.664-.139.903-.3862.24-.2473.374-.5827.374-.9325c0-.3497-.134-.6851-.374-.9324-.239-.2473-.564-.3862-.903-.3862h-34.237c-.339,0-.663.1389-.903.3862s-.374.5827-.374.9324c0,.3498.134.6852.374.9325.24.2472.564.3862.903.3862Z" fill="#def2fb"/><path d="M116.392,231.143l-2.569-4.031-1.653,1.123c-.291-.237-.599-.451-.921-.641l.401-2.004-4.578-.974-.401,2.003c-.368.043-.733.114-1.091.213l-1.088-1.706-3.905,2.651l1.088,1.707c-.23.3-.437.617-.621.949l-1.9414-.413-.9445,4.725l1.9419.413c.041.38.11.757.206,1.126l-1.654,1.123l2.569,4.03l1.654-1.122c.291.237.598.451.92.641l-.4,2.003l4.578.975.4-2.004c.369-.042.733-.113,1.091-.212l1.088,1.706l3.905-2.651-1.088-1.707c.23-.3.438-.618.621-.95l1.942.414.944-4.725-1.941-.414c-.041-.38-.11-.756-.206-1.126l1.653-1.122Zm-6.276,7.192c-.778.529-1.691.807-2.622.8-.932-.007-1.84-.298-2.611-.838s-1.369-1.303-1.72-2.194c-.35-.891-.436-1.869-.248-2.81.188-.942.643-1.805,1.306-2.48.663-.674,1.506-1.131,2.42-1.312.915-.181,1.861-.078,2.719.297.859.374,1.59,1.002,2.102,1.805.686,1.077.93,2.391.678,3.654-.253,1.262-.981,2.37-2.024,3.078v0Zm-17.5956-.542l-1.6155-2.534-1.0397.706c-.1828-.149-.3763-.284-.5787-.403l.2519-1.26-2.8786-.613-.252,1.26c-.2315.027-.4608.071-.6858.133l-.684-1.073-2.4556,1.668.6841,1.073c-.1444.188-.2749.388-.3906.597l-1.2207-.26-.5939,2.971l1.2208.26c.0259.239.0692.476.1295.708l-1.0398.706l1.6156,2.534l1.0398-.706c.1828.149.3762.284.5785.403l-.2518,1.26l2.8786.613.2519-1.26c.2316-.027.4609-.072.6859-.134l.6841,1.073l2.4554-1.667-.6839-1.073c.1444-.189.2749-.388.3904-.597l1.2208.26.594-2.971-1.2207-.26c-.0261-.239-.0695-.476-.1298-.708l1.0398-.706Zm-3.9466,4.522c-.4893.333-1.0631.508-1.6487.504-.5857-.005-1.157-.188-1.6417-.528-.4846-.339-.8609-.819-1.0812-1.379s-.2747-1.175-.1564-1.767.4042-1.135.8213-1.559.9467-.712,1.5219-.825c.5752-.114,1.1702-.049,1.7097.186s.9993.631,1.3212,1.136c.4317.677.585,1.503.4263,2.297-.1586.794-.6164,1.49-1.2724,1.935v0Z" fill="#fff"/><path d="M298.334,61.715l-3.49-5.4752-2.246,1.5255c-.395-.3222-.813-.6132-1.25-.8707l.544-2.7222-6.22-1.3243-.544,2.722c-.5.058-.995.1546-1.482.2889l-1.478-2.3183-5.305,3.6023l1.478,2.3183c-.312.4077-.594.839-.843,1.2902l-2.638-.5616-1.283,6.4187l2.637.5617c.056.5163.15,1.0276.28,1.5294l-2.246,1.5255l3.49,5.4749l2.247-1.5252c.395.3221.813.6131,1.25.8707l-.545,2.7221l6.22,1.3243.544-2.7221c.5-.0579.996-.1545,1.482-.289l1.478,2.3183l5.305-3.6023-1.478-2.3181c.312-.4077.594-.8389.844-1.2901l2.637.5614l1.283-6.4188-2.637-.5616c-.056-.5163-.15-1.0275-.28-1.5294l2.246-1.5253Zm-8.526,9.7712c-1.058.7177-2.297,1.0959-3.562,1.0866-1.266-.0093-2.5-.4057-3.547-1.1389s-1.86-1.7706-2.336-2.9806-.593-2.5386-.338-3.8176c.256-1.279.873-2.4511,1.775-3.3679.901-.9168,2.045-1.5373,3.288-1.783c1.242-.2456,2.528-.1054,3.694.4029c1.165.5084,2.158,1.362,2.854,2.453.933,1.463,1.264,3.2484.921,4.9635s-1.332,3.2194-2.749,4.182v0Zm-23.903-.7369l-2.195-3.4428-1.412.9591c-.249-.2025-.512-.3855-.787-.5474l.343-1.7117-3.911-.8326-.342,1.7116c-.315.0364-.626.0971-.932.1815l-.929-1.4578-3.336,2.2652.929,1.4576c-.196.2564-.373.5276-.53.8113l-1.659-.353-.806,4.0358l1.658.3532c.035.3247.094.6462.176.9619l-1.412.959l2.194,3.4427l1.413-.9592c.248.2024.511.3855.786.5476l-.342,1.7114l3.91.8327.342-1.7115c.315-.0364.626-.0971.932-.1816l.93,1.4576l3.335-2.2649-.929-1.4577c.196-.2564.373-.5276.53-.8113l1.659.3531.807-4.036-1.659-.3532c-.035-.3246-.094-.646-.176-.9616l1.413-.959Zm-5.362,6.1438c-.664.4514-1.444.6892-2.239.6834-.796-.0059-1.572-.2551-2.231-.7161-.658-.4611-1.169-1.1132-1.468-1.8741-.3-.7609-.374-1.5963-.213-2.4005s.549-1.5412,1.116-2.1177c.566-.5765,1.286-.9666,2.067-1.1211.782-.1545,1.59-.0663,2.323.2533s1.357.8564,1.795,1.5424c.29.4555.491.9655.59,1.501.1.5355.096,1.086-.011,1.6199-.107.534-.314,1.0411-.611,1.4922-.297.4512-.676.8377-1.118,1.1373Z" fill="#fff"/><path d="M155.768,84.0714c8.236,0,14.913-6.8905,14.913-15.3904s-6.677-15.3904-14.913-15.3904c-8.235,0-14.912,6.8905-14.912,15.3904s6.677,15.3904,14.912,15.3904Z" fill="#df7d5a"/><path d="M154.732,81.6047v-3.1781c-1.65-.0056-3.265-.4853-4.664-1.3852l.731-2.1085c1.308.8764,2.832,1.3462,4.391,1.3533c2.164,0,3.628-1.2906,3.628-3.0835c0-1.7315-1.189-2.801-3.446-3.7454-3.109-1.2574-5.031-2.7052-5.031-5.4423.019-1.2846.501-2.5157,1.353-3.4527.851-.937,2.011-1.5125,3.252-1.6141v-3.1786h1.889v3.0521c1.391.0115,2.756.3907,3.965,1.1014l-.763,2.0778c-1.161-.714-2.49-1.0845-3.842-1.0707-2.347,0-3.231,1.4476-3.231,2.7065c0,1.6369,1.127,2.4547,3.78,3.587c3.141,1.3212,4.726,2.9582,4.726,5.7579-.024,1.3474-.529,2.6382-1.417,3.6255-.889.9872-2.099,1.6015-3.4,1.725v3.2726h-1.921Z" fill="#fff"/><g id="egOenuCNj5f124" transform="matrix(.983289-.182052 0.182052 0.983289-2.8679 52.490103)"><g transform="translate(-1.471161 12.195302)"><path d="M381.579,66.4489c9.041,0,16.37-7.5641,16.37-16.8949s-7.329-16.8948-16.37-16.8948-16.37,7.5641-16.37,16.8948s7.329,16.8949,16.37,16.8949Z" transform="translate(0 0.000001)" fill="#070c69"/><path d="M380.44,63.7284v-3.4887c-1.811-.0061-3.584-.5326-5.12-1.5206l.803-2.3146c1.435.9623,3.108,1.478,4.82,1.4858c2.376,0,3.982-1.4169,3.982-3.3851c0-1.9007-1.305-3.0747-3.783-4.1114-3.412-1.3805-5.522-2.9696-5.522-5.9744.021-1.4101.55-2.7615,1.485-3.7901s2.208-1.6604,3.57-1.7719v-3.4895h2.074v3.3506c1.527.0127,3.025.429,4.352,1.2092l-.837,2.2808c-1.275-.784-2.734-1.1907-4.218-1.1756-2.577,0-3.547,1.5894-3.547,2.9713c0,1.7969,1.238,2.6947,4.149,3.9376c3.449,1.4504,5.189,3.2474,5.189,6.3208-.027,1.479-.581,2.8961-1.556,3.9798-.976,1.0838-2.304,1.758-3.732,1.8936v3.5924h-2.109Z" fill="#fff"/></g></g><path d="M619.006,131.423c6.636,0,12.016-5.552,12.016-12.401s-5.38-12.402-12.016-12.402-12.016,5.553-12.016,12.402s5.38,12.401,12.016,12.401Z" fill="#df7d5a"/><path d="M618.17,129.425v-2.561c-1.329-.005-2.631-.391-3.759-1.116l.59-1.699c1.053.706,2.282,1.085,3.538,1.09c1.744,0,2.923-1.04,2.923-2.484c0-1.395-.958-2.257-2.777-3.018-2.505-1.013-4.053-2.18-4.053-4.386.015-1.035.404-2.027,1.09-2.782s1.62-1.218,2.62-1.3v-2.562h1.523v2.46c1.121.009,2.22.315,3.194.887l-.614,1.674c-.936-.575-2.007-.873-3.096-.862-1.892,0-2.604,1.166-2.604,2.18c0,1.32.909,1.978,3.046,2.891c2.531,1.064,3.808,2.384,3.808,4.639-.019,1.086-.426,2.126-1.142,2.922-.716.795-1.691,1.29-2.739,1.39v2.637h-1.548Z" fill="#fff"/><path d="M108.302,133.184c7.099,0,12.854-5.939,12.854-13.266s-5.755-13.266-12.854-13.266c-7.1,0-12.8545,5.939-12.8545,13.266s5.7545,13.266,12.8545,13.266Z" fill="#fff"/><path d="M108.302,109.855c.411,1.651.681,3.336.807,5.035.144,1.678.202,3.357.183,5.035l-.99-1.021c1.436.021,2.871.08,4.306.245c1.454.138,2.894.398,4.307.776-1.413.378-2.853.638-4.307.776-1.435.165-2.87.224-4.306.245l-.978.015-.011-1.036c-.019-1.678.038-3.357.182-5.035.126-1.699.396-3.384.807-5.035Z" fill="#7fd4ff"/><path d="M522.025,78.6442c8.268,0,14.97-6.9173,14.97-15.4502s-6.702-15.4502-14.97-15.4502-14.97,6.9173-14.97,15.4502s6.702,15.4502,14.97,15.4502Z" transform="matrix(.492252 0 0 0.505832 273.316624 24.512919)" fill="#fff"/><path d="M530.769,62.7549c.716-1.2598,1.066-2.7054,1.009-4.1647-.058-1.4593-.52-2.8707-1.333-4.0663s-1.942-2.1249-3.252-2.6772-2.746-.7045-4.137-.4382c-1.392.2662-2.68.9396-3.711,1.9399s-1.762,2.2854-2.105,3.7023c-.344,1.4168-.285,2.9057.168,4.2892.453,1.3836,1.282,2.6036,2.388,3.5147l-4.205,7.4672c-.072.1268-.118.2668-.137.4121s-.01.293.026.4347c.037.1417.1.2747.186.3912.086.1166.194.2145.316.2882.123.0737.259.1217.4.1413.14.0195.284.0103.421-.0273s.266-.1026.379-.1915.208-.1999.279-.3266l4.205-7.4674c1.64.6773,3.461.7246,5.131.1333c1.671-.5912,3.08-1.7817,3.972-3.3549Zm-9.006.8279c-.892-.5354-1.61-1.3319-2.064-2.2887s-.622-2.0311-.485-3.0868c.138-1.0558.576-2.0456,1.259-2.8444.683-.7989,1.58-1.3708,2.578-1.6435.998-.2726,2.051-.2338,3.028.1116.976.3454,1.831.9818,2.457,1.8289s.995,1.8666,1.059,2.9298c.065,1.0632-.178,2.1223-.696,3.0433-.697,1.234-1.839,2.1323-3.177,2.4979-1.338.3655-2.762.1684-3.959-.5481v0Z" fill="#070c69"/><path d="M615.579,287.149c5.086,0,9.209-4.255,9.209-9.505c0-5.249-4.123-9.505-9.209-9.505-5.087,0-9.21,4.256-9.21,9.505c0,5.25,4.123,9.505,9.21,9.505Z" fill="#0bf"/><path d="M618.898,277.985c.702-.883,1.044-2.012.955-3.149-.089-1.138-.603-2.195-1.432-2.95-.57-.521-1.264-.875-2.011-1.028-.746-.152-1.519-.096-2.238.161-.719.258-1.358.709-1.853,1.306-.494.597-.826,1.319-.96,2.092-.111.624-.088,1.265.066,1.88.154.614.436,1.186.826,1.676.747.886,1.173,2.013,1.205,3.188v.512h-.105v2.132h4.457v-2.132h-.104v-.513c.027-1.17.45-2.293,1.194-3.175v0Zm-5.958-.593c-.309-.388-.532-.842-.654-1.329s-.139-.995-.051-1.49c.134-.731.488-1.4,1.011-1.913.523-.512,1.19-.841,1.904-.94.479-.063.965-.02,1.426.126.462.146.887.392,1.249.721.362.33.652.734.851,1.188s.301.946.301,1.444c.003.804-.268,1.584-.766,2.203-.876,1.046-1.371,2.376-1.396,3.758v.189h-.45c.323-1.095.888-3.255.522-3.936-.032-.062-.075-.117-.127-.162s-.112-.079-.177-.099c-.157-.037-.321-.011-.46.073-.068-.096-.156-.175-.258-.231-.102-.055-.214-.086-.329-.09h-.001c-.113-.002-.224.028-.322.086-.097.058-.178.143-.233.244-.024-.013-.049-.026-.074-.036-.099-.047-.208-.063-.316-.048-.107.015-.209.061-.292.133-.448.391.043,2.513.48,4.066h-.433v-.188c-.03-1.386-.527-2.719-1.405-3.769Zm2.306,3.957c-.434-1.196-.653-2.463-.646-3.741.023-.019.051-.045.137-.007.028.014.055.03.08.049-.035.104-.043.216-.024.324.019.109.064.211.131.296.053.047.118.077.188.085.069.009.139-.004.202-.037.06-.028.111-.074.146-.132.034-.059.051-.127.047-.195-.016-.166-.08-.323-.184-.45.016-.036.035-.069.058-.101.027-.039.081-.103.135-.101.053.004.105.02.15.049s.083.069.11.116c-.091.098-.162.213-.208.339-.022.052-.032.107-.031.163s.014.111.038.161.058.095.1.13c.042.036.091.061.143.075.063.021.13.024.194.008s.122-.049.169-.097c.067-.092.113-.198.133-.311.021-.114.015-.23-.017-.34.045-.034.097-.056.152-.065.017.011.03.027.038.045.071,1.276-.131,2.552-.593,3.737h-.648Z" fill="#fff"/><g style="mix-blend-mode:multiply"><path d="M194.015,293.143h74.29c1.098,0,2.151.45,2.928,1.252.777.801,1.213,1.889,1.213,3.022v50.467c0,.561-.107,1.117-.315,1.636-.208.518-.514.99-.898,1.386-.385.397-.841.712-1.344.927-.502.215-1.041.325-1.584.325h-74.29c-1.098,0-2.152-.45-2.928-1.252-.777-.801-1.213-1.888-1.213-3.022v-50.467c0-.561.107-1.117.315-1.636.208-.518.513-.989.897-1.386.385-.397.842-.712,1.344-.927.502-.214,1.041-.325,1.585-.325v0Z" fill="#e6f4ff"/></g><path d="M189.36,293.143h74.29c1.098,0,2.151.45,2.928,1.252.777.801,1.213,1.889,1.213,3.022v50.467c0,.561-.107,1.117-.315,1.636-.208.518-.513.99-.898,1.386-.385.397-.841.712-1.344.927-.502.215-1.04.325-1.584.325h-74.29c-1.099,0-2.152-.45-2.929-1.252-.776-.801-1.212-1.888-1.212-3.022v-50.467c0-1.133.436-2.221,1.212-3.022.777-.802,1.83-1.252,2.929-1.252Z" fill="#fc0"/><g style="mix-blend-mode:multiply" opacity="0.22"><path d="M189.258,348.329l36.659-39.447c.085-.089.186-.16.298-.208.112-.049.231-.073.352-.073s.241.024.353.073c.111.048.213.119.298.208l35.626,38.523-73.586.924Z" fill="#fc0"/></g><path d="M189.258,348.325l35.216-33.419c.553-.526,1.278-.818,2.031-.818.752,0,1.477.292,2.031.818l35.215,33.419c.317.301.539.694.636,1.127s.066.886-.091,1.301c-.156.414-.43.77-.786,1.021s-.777.385-1.208.385h-71.595c-.431,0-.852-.134-1.207-.385-.356-.251-.63-.607-.787-1.021-.156-.415-.188-.868-.091-1.301.098-.433.319-.826.636-1.127v0Z" fill="#ffda00"/><path d="M223.257,327.442L188.463,296.07c-.248-.224-.424-.52-.505-.85-.08-.329-.061-.676.055-.994.115-.318.322-.592.593-.786.27-.193.592-.297.921-.297h73.953c.329,0,.651.104.921.297.271.194.478.468.594.786.115.318.134.665.054.994-.081.33-.257.626-.505.85L229.75,327.442c-.899.811-2.052,1.258-3.246,1.258s-2.348-.447-3.247-1.258v0Z" fill="#ffe356"/><g style="mix-blend-mode:multiply" opacity="0.22"><path d="M224.322,331.393l-35.858-35.32h76.081l-35.858,35.32c-.604.545-1.38.845-2.182.845-.803,0-1.578-.3-2.183-.845v0Z" fill="#df7d5a"/></g><path d="M615.183,360h-551.9284c-.5019,0-.9988-.102-1.4624-.3-.4637-.198-.8849-.489-1.2398-.855-.3548-.366-.6363-.801-.8283-1.28-.1921-.478-.2909-.991-.2909-1.509v0c0-.518.0988-1.031.2909-1.509.192-.479.4735-.913.8283-1.28.3549-.366.7762-.656,1.2398-.855.4636-.198.9605-.3,1.4624-.3h551.9284c.502,0,.999.102,1.462.3.464.199.885.489,1.24.855.355.367.636.801.828,1.28.193.478.291.991.291,1.509v0c0,.518-.099,1.031-.291,1.509-.192.479-.473.914-.828,1.28s-.776.657-1.24.855c-.463.198-.96.3-1.462.3v0Z" fill="#334ec5"/><g opacity="0.55"><path d="M572.567,200.917h-88.436c-.556,0-1.089-.228-1.483-.634-.393-.406-.614-.956-.614-1.531v0c0-.574.221-1.124.614-1.53.394-.406.927-.634,1.483-.634h88.436c.275,0,.548.056.803.164.254.109.485.269.68.47s.349.439.455.702c.105.263.159.544.159.828v0c0,.285-.054.566-.159.829-.106.263-.26.501-.455.702s-.426.361-.68.469c-.255.109-.528.165-.803.165Z" opacity="0.69" fill="#c2eeff"/><path d="M572.567,210.393h-88.436c-.556,0-1.09-.228-1.483-.634s-.614-.957-.614-1.531.221-1.125.614-1.531c.393-.405.927-.634,1.483-.634h88.436c.275,0,.548.056.802.165.255.109.486.268.681.469.194.201.349.44.454.703.106.262.16.544.16.828v0c0,.284-.054.566-.16.829-.105.262-.259.501-.454.702s-.426.36-.681.469c-.254.109-.527.165-.802.165v0Z" opacity="0.69" fill="#c2eeff"/><path d="M572.567,219.863h-88.436c-.556,0-1.09-.228-1.483-.634s-.614-.957-.614-1.531.221-1.124.614-1.53.927-.634,1.483-.634h88.436c.275,0,.548.056.802.164.255.109.486.269.681.47.194.201.349.439.454.702.106.263.16.544.16.828v0c0,.285-.054.566-.16.829-.105.262-.259.501-.454.702s-.426.361-.681.469c-.254.109-.527.165-.802.165v0Z" opacity="0.69" fill="#c2eeff"/><path d="M572.567,229.335h-88.436c-.556,0-1.09-.228-1.483-.634s-.614-.956-.614-1.53v0c0-.284.054-.566.159-.829.106-.262.26-.501.455-.702s.426-.36.68-.469c.255-.109.528-.165.803-.165h88.436c.275,0,.548.056.802.165.255.109.486.268.681.469.194.201.349.44.454.702.106.263.16.545.16.829s-.054.566-.16.828c-.105.263-.26.501-.454.702-.195.201-.426.361-.681.47-.254.108-.527.164-.802.164Z" opacity="0.69" fill="#c2eeff"/><path d="M488.855,234.17h78.988c1.809,0,3.544.742,4.823,2.062c1.28,1.32,1.998,3.111,1.998,4.978v58.765c0,1.867-.718,3.657-1.998,4.978-1.279,1.32-3.014,2.062-4.823,2.062h-78.988c-1.809,0-3.544-.742-4.823-2.062-1.28-1.321-1.998-3.111-1.998-4.978v-58.765c0-1.867.718-3.658,1.997-4.978c1.28-1.32,3.015-2.062,4.824-2.062v0Z" opacity="0.55" fill="#c2eeff"/></g><path d="M569.603,332.297h-82.507c-1.343,0-2.63-.55-3.579-1.53-.95-.98-1.483-2.308-1.483-3.694v-.861c0-1.385.533-2.714,1.483-3.694.949-.979,2.236-1.53,3.579-1.53h82.507c1.342,0,2.63.551,3.579,1.53.949.98,1.482,2.309,1.482,3.694v.861c0,1.386-.533,2.714-1.482,3.694s-2.237,1.53-3.579,1.53v0Zm3.011-19.784h-88.529c-.544,0-1.066.223-1.45.62-.385.397-.601.935-.601,1.496c0,.562.216,1.1.601,1.497.384.397.906.62,1.45.62h88.529c.544,0,1.065-.223,1.45-.62.384-.397.6-.935.6-1.497c0-.561-.216-1.099-.6-1.496-.385-.397-.906-.62-1.45-.62v0Z" opacity="0.55" fill="#c2eeff"/><path d="M163.258,221.265c6.994-7.992,11.812-17.755,13.963-28.293l4.517-.943c0,0-1.767,22.427-8.986,30.181-7.218,7.754-9.494-.945-9.494-.945Z" fill="url(#egOenuCNj5f153-fill)"/><path d="M178.297,192.679c-.624-.512-1.091-1.199-1.347-1.979-.256-.779-.289-1.618-.096-2.416.692-2.77,2.437-3.134,2.162-1.576-.074.486-.054.983.059,1.461.113.479.317.929.599,1.326.413.881.518,1.882.298,2.834l-1.675.35Z" fill="#fcc"/><path d="M164.326,211.959c.392.718-.788,6.281-.788,6.281l4.826-1.352-1.087-5.546-2.951.617Z" fill="#fcc"/><path d="M164.87,212.405c-1.716-.068-3.397-.521-4.926-1.328l-3.798-3.12-.378-6.985l7.771-5.52c0,0,11.202,15.372,1.331,16.953Z" fill="#fcc"/><path d="M157.493,203.936c2.562-1.358,4.655-3.499,5.994-6.131c1.338-2.631,1.856-5.626,1.482-8.573-1.354,1.429-3.014,2.51-4.847,3.158-1.828.644-3.547,1.582-5.093,2.777-.767.609-1.36,1.42-1.718,2.348-.358.927-.467,1.937-.316,2.924-2.083.65-2.766,3.47-2.214,5.642.299,1.153.832,2.226,1.563,3.15s1.643,1.678,2.677,2.213c2.068,1.051,5.006.469,7.13-.455-2.026-.619-6.005-3.037-2.734-3.907-.533-1.115-1.178-2.17-1.924-3.146Z" fill="#030478"/><path d="M160.505,218.314c.501-1.383,1.071-2.739,1.708-4.062l8.551-.665.487,2.483-10.746,2.244Z" fill="#fff"/><path d="M171.718,343.803l.137,3.9l8.789,4.415-13.921-.162l1.764-9.031l3.231.878Z" fill="#030478"/><path d="M143.731,343.791l-.139,3.9-8.789,4.415l13.922-.16-1.764-9.031-3.23.876Z" fill="#030478"/><path d="M160.484,264.069c.007-.083.016-.171.021-.241l-2.889.121-2.673-.112c.005.064.013.147.019.223l-12.013.502v83.391l5.442-.439c0,0,5.749-38.062,9.332-63.002c3.583,24.94,9.333,63.011,9.333,63.011l5.443.439v-83.391l-12.015-.502Z" fill="url(#egOenuCNj5f161-fill)"/><path d="M208.251,205.401c0,0,.781-3.087,2.357-3.251l-.466,1.82c1.172-.707,2.207-1.632,3.052-2.728.69-1.257,2.652,3.459.711,5.287-.92,1.008-2.149,1.657-3.48,1.836l-2.174-2.964Z" fill="#fcc"/><path d="M139.725,275.743c0,0,10.408-51.732,21.094-58.341c4.149-2.566,16.217-.177,27.127-2.604c14.407-3.206,20.499-10.343,20.499-10.343l4.544,2.962c0,0-8.8,12.577-36.628,20.631-5.834,16.295-.759,47.695-.759,47.695s-25.1-2.131-35.877,0Z" fill="url(#egOenuCNj5f163-fill)"/><path d="M446.026,271.9c-1.836.435-12.795-2.752-17.455-6.73c0,0,6.063-23.24,5.892-28.978-.172-5.738,2.823-17.781,6.82-8.764c3.998,9.016,4.743,44.472,4.743,44.472Z" fill="url(#egOenuCNj5f164-fill)"/><path d="M445.697,342.978l.235,3.895-8.326,5.286h14.259L449.77,341.86l-4.073,1.118Z" fill="#030478"/><path d="M454.775,261.703c.14,6.996-4.084,84.51-4.084,84.51l-5.374.989-7.711-84.681l17.169-.818Z" fill="url(#egOenuCNj5f166-fill)"/><path d="M438.445,342.978l.235,3.895-8.327,5.286l14.155-.507-1.991-9.792-4.072,1.118Z" fill="#030478"/><path d="M447.524,261.703c.14,6.996-4.084,84.51-4.084,84.51l-5.374.989-5.25-85.326l14.708-.173Z" fill="url(#egOenuCNj5f168-fill)"/><path d="M450.052,266.255c-11.617.361-17.274-2.907-17.889-4.044-.614-1.136.253-1.931.642-3.476c1.55-6.147,5.395-21.909,5.258-26.495-.171-5.738,2.823-17.781,6.821-8.764c3.998,9.016,5.168,42.779,5.168,42.779Z" fill="#fff"/><path d="M388.954,238.724l29.372,25.34l7.385-13.897-25.523-19.613-11.234,8.17Z" fill="#fdb42c"/><path d="M391.122,239.034l27.153,22.669l6.357-11.371-24.315-18.705-9.195,7.407Z" fill="#fff"/><path d="M390.293,236.512l1.199.89l7.236-5.268-.958-.695-7.477,5.073Z" fill="#00d1ff"/><path d="M408.728,222.345l-.507,5.277c0,0,19.48,21.326,37.221,1.013l-1.297-12.003c0,0-11.302,24.307-35.417,5.713Z" fill="url(#egOenuCNj5f173-fill)"/><path d="M408.727,222.344c-2.447-.858-3.443-3.507-4.797-.637-2.494,5.285,4.29,5.913,4.29,5.913l.507-5.276Z" fill="#fcc"/><path d="M406.914,211.813l-3.961,15.391.091,2.09l1.25-1.622l3.868-15.377c.159-1.187-.793-1.595-1.248-.482Z" fill="#030478"/><path d="M406.593,223.203c0,0-2.916,1.063-3.205.453-.289-.611,2.267-1.784,2.822-2.703.555-.918,1.655,1.517,1.655,1.517l-1.272.733Z" fill="#fcc"/><path d="M438.701,208.38l2.89,6.933l2.588-2.35.381-7.616-5.859,3.033Z" fill="#fcc"/><path d="M434.237,197.41c-1.24,7.596-2.12,12.684,3.412,13.017c5.013.303,9.313-7.77,9.313-7.77c3.86-8.889-10.575-18.409-12.725-5.247Z" fill="#fcc"/><path d="M429.175,189.845c5.062,7.571,12.214,8.716,14.445,7.92c1.04-.371,1.071.796.655,3.065c2.81-1.335,1.806,2.34-.236,3.677-.41,1.058-.714,2.158-.907,3.28c0,0,6.951-4.634,6.966-9.59.019-6.001-4.29-5.333-4.29-5.333s-2.552-8.102-9.593-5.56l-7.04,2.541Z" fill="#030478"/><path d="M438.966,213.32l6.895-3.972l1.955,3.615-10.034,5.781l1.184-5.424Z" fill="#fff"/><path d="M406.296,250.167l.799,6.38c-.185.165,21.475,8.621,30.687-16.402-1.421,9.783-3.368,19.478-5.832,29.038c7.819,3.351,16.408,4.307,24.74,2.756c0,0,1.919-44.32-7.574-58.173-5.031-7.341-12.088,4.671-13.839,12.043-2.225,9.366-7.473,30.3-28.981,24.358Z" fill="url(#egOenuCNj5f181-fill)"/><path d="M406.295,250.17c0,0-3.732-1.046-5.138-.094-1.407.952.555,4.071,2.188,5.821.483.495,1.103.823,1.774.94.672.117,1.362.016,1.976-.287l-.8-6.38Z" fill="#fcc"/><g id="egOenuCNj5f183" transform="matrix(.907151 0.420804-.420804 0.907151-167.650548 46.303327)"><path d="M163.382,0c1.179.571448,15.35,11.6278,15.35,11.6278l44.117-6.82915L163.382,0Z" fill="#13c0ff"/><path d="M177.559,30.9904l1.173-19.3617L222.85,4.79968L177.559,30.9904Z" fill="#70d9ff"/><path d="M190.279,19.4535l17.859,13.1787L222.849,4.79968L190.279,19.4535Z" fill="#13c0ff"/><path d="M177.559,30.9904l12.72-11.5369L222.85,4.79968L177.559,30.9904Z" fill="#0bf"/></g>
</svg>
