<svg width="66" height="66" viewBox="0 0 66 66" fill="none" xmlns="http://www.w3.org/2000/svg">
<g clip-path="url(#clip0_201_51)">
<path opacity="0.05" d="M33.3853 65.3816C51.3345 65.3816 65.8853 50.8308 65.8853 32.8816C65.8853 14.9323 51.3345 0.381592 33.3853 0.381592C15.436 0.381592 0.885254 14.9323 0.885254 32.8816C0.885254 50.8308 15.436 65.3816 33.3853 65.3816Z" fill="#070C69"/>
<path d="M45.1529 21.3337H21.6177C21.2132 21.3337 20.8853 21.6617 20.8853 22.0662V39.8396C20.8853 40.2441 21.2132 40.572 21.6177 40.572H28.9908V42.9646H27.1841C26.7796 42.9646 26.4517 43.2925 26.4517 43.697C26.4517 44.1015 26.7796 44.4295 27.1841 44.4295H39.5865C39.991 44.4295 40.3189 44.1015 40.3189 43.697C40.3189 43.2925 39.991 42.9646 39.5865 42.9646H37.7798V40.572H45.1529C45.5574 40.572 45.8853 40.2441 45.8853 39.8396V22.0662C45.8853 21.6617 45.5574 21.3337 45.1529 21.3337ZM44.4205 24.2634H25.2798V22.7986H44.4205V24.2634ZM22.3501 22.7986H23.815V39.1072H22.3501V22.7986ZM36.315 42.9646H30.4556V40.572H36.315V42.9646ZM25.2798 39.1072V25.7283H44.4205V39.1072H25.2798Z" fill="#0F3460"/>
<path d="M36.608 27.9255C36.608 27.5211 36.28 27.1931 35.8755 27.1931H27.5259C27.1214 27.1931 26.7935 27.5211 26.7935 27.9255C26.7935 28.33 27.1214 28.658 27.5259 28.658H35.8755C36.28 28.658 36.608 28.3301 36.608 27.9255Z" fill="#0F3460"/>
<path d="M33.9065 31.5877H35.9C36.3045 31.5877 36.6324 31.2597 36.6324 30.8552C36.6324 30.4507 36.3045 30.1228 35.9 30.1228H33.9065C33.502 30.1228 33.1741 30.4507 33.1741 30.8552C33.1741 31.2597 33.502 31.5877 33.9065 31.5877Z" fill="#0F3460"/>
<path d="M41.0513 33.7849C41.0513 33.3804 40.7234 33.0525 40.3189 33.0525H33.9224C33.5179 33.0525 33.19 33.3804 33.19 33.7849C33.19 34.1894 33.5179 34.5173 33.9224 34.5173H40.3189C40.7234 34.5173 41.0513 34.1894 41.0513 33.7849Z" fill="#0F3460"/>
<path d="M42.2232 35.9822H39.1056C38.7011 35.9822 38.3732 36.3101 38.3732 36.7146C38.3732 37.1191 38.7011 37.447 39.1056 37.447H42.2232C42.6277 37.447 42.9556 37.1191 42.9556 36.7146C42.9556 36.3101 42.6277 35.9822 42.2232 35.9822Z" fill="#0F3460"/>
</g>
<defs>
<clipPath id="clip0_201_51">
<rect width="65" height="65" fill="white" transform="translate(0.885254 0.381592)"/>
</clipPath>
</defs>
</svg>
