<svg width="65" height="65" viewBox="0 0 65 65" fill="none" xmlns="http://www.w3.org/2000/svg">
<g clip-path="url(#clip0_201_7)">
<path opacity="0.05" d="M32.5 65C50.4493 65 65 50.4493 65 32.5C65 14.5507 50.4493 0 32.5 0C14.5507 0 0 14.5507 0 32.5C0 50.4493 14.5507 65 32.5 65Z" fill="#070C69"/>
<path d="M25.1532 24.2124C24.9003 24.2124 24.6625 24.3109 24.4833 24.4899C24.1142 24.8593 24.1144 25.4602 24.4835 25.8293C24.6625 26.0083 24.9003 26.1068 25.1532 26.1068C25.4061 26.1068 25.6441 26.0083 25.8231 25.8293C26.1923 25.4602 26.1923 24.8593 25.8229 24.4897C25.6439 24.3109 25.4061 24.2124 25.1532 24.2124Z" fill="url(#paint0_linear_201_7)"/>
<path d="M43.3319 28.4494L46.997 19L37.5476 22.6651L33.2264 26.9863L25.2463 19.0064L19 25.2527L26.9801 33.2328L21.0798 39.1331L19.752 40.4608C19.273 40.9399 19.009 41.577 19.009 42.2546C19.009 42.9322 19.273 43.569 19.752 44.0484L21.9486 46.2451C22.4432 46.7396 23.0928 46.9868 23.7424 46.9868C24.3921 46.9868 25.0417 46.7396 25.5362 46.2451L32.7644 39.0169L40.7473 47L46.9936 40.7537L39.0107 32.7706L43.3319 28.4494ZM25.7114 41.4454L40.3177 26.8391L41.4702 27.9916L26.8639 42.5979L25.7114 41.4454ZM42.3202 26.5223L39.4747 23.6768L44.1234 21.8739L42.3202 26.5223ZM26.991 30.9244L28.5114 29.4041L27.3516 28.2443L25.8312 29.7647L21.3195 25.2527L25.2463 21.3257L32.0667 28.1461L28.1399 32.0731L26.991 30.9244ZM38.0054 24.5269L39.1579 25.6794L24.5518 40.2856L23.3991 39.1331L38.0054 24.5269ZM24.3767 45.0853C24.2073 45.2547 23.9821 45.3478 23.7424 45.3478C23.503 45.3478 23.2778 45.2547 23.1084 45.0853L20.9117 42.8886C20.7425 42.7192 20.6492 42.494 20.6492 42.2546C20.6492 42.0151 20.7425 41.7897 20.9117 41.6205L22.2396 40.2927L25.7043 43.7576L24.3767 45.0853ZM44.6743 40.7537L40.7473 44.6807L38.5523 42.4857L40.0726 40.9654L38.9129 39.8056L37.3927 41.326L36.24 40.1735L37.7604 38.6531L36.6006 37.4933L35.0803 39.0137L33.9239 37.8574L37.851 33.9303L44.6743 40.7537Z" fill="#0F3460"/>
</g>
<defs>
<linearGradient id="paint0_linear_201_7" x1="24.2066" y1="25.1596" x2="26.1" y2="25.1596" gradientUnits="userSpaceOnUse">
<stop stop-color="#020764"/>
<stop offset="1" stop-color="#0F3460"/>
</linearGradient>
<clipPath id="clip0_201_7">
<rect width="65" height="65" fill="white"/>
</clipPath>
</defs>
</svg>
