<svg width="65" height="66" viewBox="0 0 65 66" fill="none" xmlns="http://www.w3.org/2000/svg">
<g clip-path="url(#clip0_201_63)">
<path opacity="0.05" d="M32.5 65.3816C50.4493 65.3816 65 50.8308 65 32.8816C65 14.9323 50.4493 0.381592 32.5 0.381592C14.5507 0.381592 0 14.9323 0 32.8816C0 50.8308 14.5507 65.3816 32.5 65.3816Z" fill="#DF7D5A"/>
<path d="M21.3748 23.3728C20.3392 23.3728 19.4998 24.2123 19.4998 25.2478V30.2478H20.7497V25.2478C20.7497 24.9026 21.0296 24.6228 21.3748 24.6228H36.3748V23.3728H21.3748Z" fill="#DF7D5A"/>
<path d="M21.3748 42.1224C21.0296 42.1224 20.7497 41.8425 20.7497 41.4974V35.2473H19.4998V41.4974C19.4998 42.5329 20.3392 43.3724 21.3748 43.3724H27.6248V42.1224H21.3748Z" fill="#DF7D5A"/>
<path d="M36.8168 43.7341L21.638 28.5553C21.394 28.3113 20.9983 28.3113 20.7542 28.5553L17.183 32.1266C16.939 32.3707 16.939 32.7663 17.183 33.0104L32.3618 48.1892C32.479 48.3064 32.638 48.3723 32.8037 48.3723C32.9694 48.3722 33.1283 48.3063 33.2455 48.1892L36.8168 44.6179C37.0608 44.3738 37.0608 43.9782 36.8168 43.7341ZM32.8037 46.8635L18.5086 32.5685L21.1961 29.8809L35.4912 44.1761L32.8037 46.8635Z" fill="#DF7D5A"/>
<path d="M44.4999 42.1223H35.1249V43.3723H41.9999V46.4973C41.9999 46.8425 42.2797 47.1223 42.6249 47.1223H44.4999C45.8806 47.1223 46.9999 46.0031 46.9999 44.6223C46.9999 43.2416 45.8806 42.1223 44.4999 42.1223ZM44.4999 45.8723H43.2499V43.3723H44.4999C45.1903 43.3723 45.7499 43.9319 45.7499 44.6223C45.7499 45.3127 45.1903 45.8723 44.4999 45.8723Z" fill="#DF7D5A"/>
<path d="M44.5 23.3728H41.375V24.6228H44.5C45.1903 24.6228 45.75 25.1824 45.75 25.8728V44.6229H47V25.8728C47 24.4921 45.8807 23.3728 44.5 23.3728Z" fill="#DF7D5A"/>
<path d="M28.4333 36.0553L26.5581 37.9304L27.442 38.8143L29.3171 36.9391L28.4333 36.0553Z" fill="#DF7D5A"/>
<path d="M25.9334 33.5558L24.0582 35.4309L24.9421 36.3148L26.8172 34.4396L25.9334 33.5558Z" fill="#DF7D5A"/>
<path d="M30.9319 38.5553L29.0568 40.4304L29.9406 41.3143L31.8158 39.4391L30.9319 38.5553Z" fill="#DF7D5A"/>
<path d="M33.433 41.0566L31.5579 42.9318L32.4417 43.8157L34.3169 41.9405L33.433 41.0566Z" fill="#DF7D5A"/>
<path d="M23.4316 31.0553L21.5564 32.9304L22.4403 33.8143L24.3154 31.9391L23.4316 31.0553Z" fill="#DF7D5A"/>
<path d="M43.9587 19.7774L43.0949 18.9136C42.364 18.216 41.2138 18.216 40.483 18.9136L30.9793 28.4174C30.7353 28.6615 30.7353 29.0571 30.9793 29.3012L33.5712 31.8931C33.688 32.0108 33.8472 32.0767 34.013 32.0762C34.1788 32.0761 34.3377 32.0103 34.4549 31.8931L43.9587 22.3893C43.959 22.389 43.9593 22.3887 43.9596 22.3884C44.6803 21.6672 44.6799 20.4981 43.9587 19.7774ZM43.0755 21.5049L34.013 30.5674L32.3049 28.8593L41.3674 19.7974C41.6034 19.5718 41.9752 19.5718 42.2112 19.7974L43.0755 20.6605C43.0756 20.6606 43.0757 20.6607 43.0758 20.6608C43.3088 20.8939 43.3087 21.2719 43.0755 21.5049Z" fill="#DF7D5A"/>
<path d="M33.8125 30.8587L31.115 31.7594L32.0156 29.0575L30.8281 28.6619L29.5318 32.55C29.5106 32.6138 29.4998 32.6805 29.4998 32.7476C29.4998 33.0928 29.7797 33.3726 30.1249 33.3725C30.191 33.3727 30.2568 33.3626 30.3199 33.3425L34.208 32.0462L33.8125 30.8587Z" fill="#DF7D5A"/>
<path d="M39.6386 20.6412L38.7548 21.5251L41.3467 24.117L42.2306 23.2332L39.6386 20.6412Z" fill="#DF7D5A"/>
<path d="M39.4999 32.1223H30.1249V33.3723H39.4999V32.1223Z" fill="#DF7D5A"/>
<path d="M41.9999 32.1223H40.7499V33.3723H41.9999V32.1223Z" fill="#DF7D5A"/>
<path d="M44.5 32.1223H43.25V33.3723H44.5V32.1223Z" fill="#DF7D5A"/>
</g>
<defs>
<clipPath id="clip0_201_63">
<rect width="65" height="65" fill="white" transform="translate(0 0.381592)"/>
</clipPath>
</defs>
</svg>
