<svg width="66" height="65" viewBox="0 0 66 65" fill="none" xmlns="http://www.w3.org/2000/svg">
<g clip-path="url(#clip0_201_24)">
<path opacity="0.05" d="M33.3853 65C51.3345 65 65.8853 50.4493 65.8853 32.5C65.8853 14.5507 51.3345 0 33.3853 0C15.436 0 0.885254 14.5507 0.885254 32.5C0.885254 50.4493 15.436 65 33.3853 65Z" fill="#DF7D5A"/>
<path d="M32.0958 37.1875V23.5625C32.0958 22.7354 31.4229 22.0625 30.5957 22.0625H27.3457C26.5186 22.0625 25.8457 22.7354 25.8457 23.5625V24.6109C25.8457 24.887 26.0696 25.1109 26.3457 25.1109C26.6219 25.1109 26.8457 24.887 26.8457 24.6109V23.5625C26.8457 23.2868 27.0701 23.0625 27.3457 23.0625H30.5957C30.8714 23.0625 31.0957 23.2868 31.0957 23.5625V32.9375H28.505C28.2289 32.9375 28.005 33.1614 28.005 33.4375C28.005 33.7136 28.2289 33.9375 28.505 33.9375H31.0957V37.1875C31.0957 37.4632 30.8714 37.6875 30.5957 37.6875H27.3457C27.0701 37.6875 26.8457 37.4632 26.8457 37.1875V27.8125H29.3497C29.6259 27.8125 29.8497 27.5886 29.8497 27.3125C29.8497 27.0364 29.6259 26.8125 29.3497 26.8125H26.3457C26.0696 26.8125 25.8457 27.0364 25.8457 27.3125V37.1875C25.8457 38.0146 26.5186 38.6875 27.3457 38.6875H30.5957C31.4228 38.6875 32.0958 38.0146 32.0958 37.1875Z" fill="url(#paint0_linear_201_24)"/>
<path d="M52.4142 36.1186L49.1031 29.25C48.6242 28.2566 47.4263 27.8381 46.433 28.3169L45.2082 28.9074L45.9503 27.7681C46.5536 26.8419 46.2924 25.6041 45.366 25.0008L38.9767 20.8391C38.0529 20.2374 36.8112 20.4994 36.2093 21.4235L35.9051 21.8907C35.7544 22.1221 35.8197 22.4318 36.0512 22.5826C36.2826 22.7333 36.5923 22.6679 36.743 22.4364L37.0472 21.9693C37.3481 21.5073 37.9689 21.3761 38.431 21.6771L44.8203 25.8385C45.2835 26.1402 45.4141 26.759 45.1125 27.2222L43.4688 29.7458C33.4254 34.5874 34.0498 34.2815 33.9921 34.3229C33.8877 34.3976 33.8139 34.5121 33.7912 34.6427C33.7789 34.7126 33.7832 34.1469 33.7832 43.1874C33.7832 45.8411 31.6244 47.9999 28.9707 47.9999C26.3171 47.9999 24.1582 45.8411 24.1582 43.1874V21C24.1582 20.4486 24.6069 20 25.1582 20H32.7832C33.3346 20 33.7832 20.4486 33.7832 21V31.4173C33.7832 31.6934 34.0071 31.9173 34.2832 31.9173C34.5594 31.9173 34.7832 31.6934 34.7832 31.4173V30.3697L35.5813 29.1444L37.3619 30.3042C37.4462 30.3591 37.5408 30.3853 37.6344 30.3853C38.1308 30.3853 38.3234 29.737 37.9077 29.4662L36.1271 28.3064L37.9009 25.5831C38.0514 25.352 38.3607 25.2859 38.5927 25.4371L41.3159 27.2108C41.5476 27.3616 41.6129 27.671 41.4621 27.9027L40.8404 28.8571C40.6897 29.0885 40.7551 29.3983 40.9865 29.549C41.2179 29.6998 41.5276 29.6343 41.6783 29.4029L42.2999 28.4484C42.7524 27.7538 42.5565 26.8253 41.8617 26.3729L39.1384 24.5992C38.4439 24.1468 37.5154 24.3427 37.0629 25.0374L34.7832 28.5374V21C34.7832 19.8972 33.8861 19 32.7832 19H25.1582C24.0554 19 23.1582 19.8972 23.1582 21V43.1875C23.1582 46.3925 25.7657 49 28.9707 49C32.0667 49 34.6047 46.5669 34.774 43.5126C35.1062 43.5821 35.4396 43.5383 35.7326 43.397L48.0059 37.4804C48.7526 37.1205 49.0659 36.2248 48.7057 35.4779L47.2944 32.5503C46.9352 31.8052 46.0367 31.4914 45.2919 31.8504L36.3965 36.1386C36.1477 36.2584 36.0433 36.5573 36.1632 36.8061L37.5285 39.6382C37.6484 39.8869 37.9472 39.9914 38.1961 39.8714C38.4447 39.7516 38.5492 39.4527 38.4293 39.2039L37.2812 36.8222L45.7261 32.7512C45.9746 32.6315 46.2739 32.7361 46.3937 32.9844L47.8049 35.9121C47.9249 36.161 47.8206 36.4596 47.5717 36.5796L44.6441 37.9909L43.6486 35.9258C43.5286 35.6771 43.2297 35.5726 42.9811 35.6926C42.7323 35.8124 42.6279 36.1113 42.7478 36.3601L43.7432 38.4251L35.2982 42.4963C35.1277 42.5784 34.9291 42.5553 34.7832 42.4473V35.043L46.8673 29.2177C47.3641 28.9782 47.9629 29.1876 48.2024 29.6843L51.5135 36.5528C51.7529 37.0495 51.5436 37.6484 51.0469 37.8879L37.5363 44.4009C37.2876 44.5208 37.1831 44.8196 37.3031 45.0684C37.3892 45.2471 37.5678 45.3514 37.7538 45.3514C37.9306 45.3514 37.0434 45.7487 51.4811 38.7887C52.4745 38.3098 52.8931 37.1119 52.4142 36.1186Z" fill="#DF7D5A"/>
<path d="M28.9706 44.5625C28.2124 44.5625 27.5956 43.9457 27.5956 43.1875C27.5956 42.9114 27.3718 42.6875 27.0956 42.6875C26.8195 42.6875 26.5956 42.9114 26.5956 43.1875C26.5956 44.4971 27.6611 45.5625 28.9706 45.5625C30.2802 45.5625 31.3456 44.4971 31.3456 43.1875C31.3456 41.8779 30.2802 40.8125 28.9706 40.8125C28.6945 40.8125 28.4706 41.0364 28.4706 41.3125C28.4706 41.5886 28.6945 41.8125 28.9706 41.8125C29.7288 41.8125 30.3456 42.4293 30.3456 43.1875C30.3456 43.9457 29.7287 44.5625 28.9706 44.5625Z" fill="url(#paint1_linear_201_24)"/>
</g>
<defs>
<linearGradient id="paint0_linear_201_24" x1="25.8457" y1="30.375" x2="32.0958" y2="30.375" gradientUnits="userSpaceOnUse">
<stop stop-color="#FFC600"/>
<stop offset="1" stop-color="#DF7D5A"/>
</linearGradient>
<linearGradient id="paint1_linear_201_24" x1="26.5956" y1="43.1875" x2="31.3456" y2="43.1875" gradientUnits="userSpaceOnUse">
<stop stop-color="#FFC600"/>
<stop offset="1" stop-color="#DF7D5A"/>
</linearGradient>
<clipPath id="clip0_201_24">
<rect width="65" height="65" fill="white" transform="translate(0.885254)"/>
</clipPath>
</defs>
</svg>
