<svg width="681" height="558" viewBox="0 0 681 558" fill="none" xmlns="http://www.w3.org/2000/svg">
<g opacity="0.05" clip-path="url(#clip0_202_809)">
<path d="M404.149 210.119C302.692 219.775 251.124 152.884 182.459 151C115.475 149.116 76.5181 198.342 100.341 277.716C127.526 367.925 76.5181 413.619 81.2827 487.105C83.2445 517.959 119.959 561.768 165.362 557.764C225.059 552.347 249.162 494.642 301.852 454.837C349.217 419.271 431.615 394.305 481.222 368.396C529.988 342.959 587.162 324.352 591.927 269.473C595.009 233.201 556.613 195.516 404.149 210.119Z" fill="#DF7D5A"/>
<path d="M517.096 399.958C485.426 443.531 423.487 425.631 371.077 421.862C268.22 414.325 198.434 529.03 90.5313 469.675C-28.8619 403.962 -29.7027 284.547 89.13 238.854C421.805 110.488 545.963 360.388 517.096 399.958Z" fill="#070C69"/>
<path d="M49.3324 232.965C60.1674 232.965 68.951 226.744 68.951 219.069C68.951 211.394 60.1674 205.172 49.3324 205.172C38.4973 205.172 29.7138 211.394 29.7138 219.069C29.7138 226.744 38.4973 232.965 49.3324 232.965Z" fill="#5D8EFF"/>
<path d="M88.009 180.677C88.009 184.917 84.3656 188.214 80.1616 188.214C75.6773 188.214 72.3142 184.917 72.3142 180.677C72.3142 176.438 75.9576 173.14 80.1616 173.14C84.3656 173.14 88.009 176.438 88.009 180.677Z" fill="#5D8EFF"/>
<path d="M376.122 465.907C376.122 473.679 366.593 480.039 354.822 480.039C343.051 480.039 333.522 473.679 333.522 465.907C333.522 458.134 343.051 451.775 354.822 451.775C366.593 451.775 376.122 458.134 376.122 465.907Z" fill="#5D8EFF"/>
<path d="M414.238 449.42C414.238 453.659 409.193 457.192 403.028 457.192C396.862 457.192 391.817 453.659 391.817 449.42C391.817 445.18 396.862 441.647 403.028 441.647C409.193 441.647 414.238 445.18 414.238 449.42Z" fill="#5D8EFF"/>
</g>
<path d="M197.434 333.296C196.336 333.36 195.242 333.423 194.153 333.485" stroke="white" stroke-width="0.88029" stroke-linecap="round" stroke-linejoin="round"/>
<path d="M451.703 130.517C451.741 131.635 451.793 132.764 451.858 133.905" stroke="white" stroke-width="0.88029" stroke-linecap="round" stroke-linejoin="round"/>
<path d="M420.019 120.917C420.706 120.037 421.334 119.11 421.898 118.141" stroke="white" stroke-width="0.88029" stroke-linecap="round" stroke-linejoin="round"/>
<path d="M170.147 157.607C171.242 157.62 172.338 157.632 173.433 157.645" stroke="white" stroke-width="0.88029" stroke-linecap="round" stroke-linejoin="round"/>
<path d="M345.043 325.19C346.139 325.194 347.234 325.199 348.33 325.203" stroke="white" stroke-width="0.88029" stroke-linecap="round" stroke-linejoin="round"/>
<path d="M290.997 325.228C399.76 325.61 508.523 325.332 617.285 324.394C630.721 324.278 644.558 324.077 656.932 319.138C669.306 314.198 680 303.29 680 290.617C680 273.473 661.754 261.631 644.622 255.906C611.505 244.839 575.578 244.65 540.444 244.585C464.614 244.444 388.785 244.303 312.955 244.162" stroke="#DDDDDD" stroke-width="0.88029" stroke-linecap="round" stroke-linejoin="round" stroke-dasharray="4.42 4.42"/>
<path d="M373.591 244.152C372.495 244.15 371.4 244.148 370.304 244.146" stroke="white" stroke-width="0.88029" stroke-linecap="round" stroke-linejoin="round"/>
<path d="M373.907 315.688H303.048V343.944H373.907V315.688Z" fill="url(#paint0_linear_202_809)"/>
<g style="mix-blend-mode:multiply" opacity="0.18">
<path d="M373.907 315.688H303.048V326.323H373.907V315.688Z" fill="#0E0092"/>
</g>
<path opacity="0.7" d="M513.875 100.601H163.08C155.66 100.601 149.646 106.808 149.646 114.466V307.4C149.646 315.057 155.66 321.265 163.08 321.265H513.875C521.295 321.265 527.309 315.057 527.309 307.4V114.466C527.309 106.808 521.295 100.601 513.875 100.601Z" fill="url(#paint1_linear_202_809)"/>
<path d="M168.064 110.609H508.891C511.133 110.609 513.282 111.528 514.867 113.164C516.452 114.8 517.343 117.018 517.343 119.331V302.539C517.343 304.853 516.452 307.071 514.867 308.707C513.282 310.343 511.133 311.262 508.891 311.262H168.064C165.823 311.262 163.673 310.343 162.088 308.707C160.503 307.071 159.613 304.853 159.613 302.539V119.331C159.613 117.018 160.503 114.799 162.088 113.164C163.673 111.528 165.823 110.609 168.064 110.609Z" fill="#DEF2FB"/>
<path d="M517.343 123.553H159.613V298.309H517.343V123.553Z" fill="white"/>
<path d="M440.83 343.943H236.125C234.093 343.943 232.446 345.643 232.446 347.741V348.366C232.446 350.463 234.093 352.164 236.125 352.164H440.83C442.862 352.164 444.509 350.463 444.509 348.366V347.741C444.509 345.643 442.862 343.943 440.83 343.943Z" fill="url(#paint2_linear_202_809)"/>
<path d="M174.582 194.137C177.358 201.533 182.711 207.592 189.591 211.127C196.47 214.662 204.381 215.418 211.773 213.248C219.164 211.077 225.504 206.136 229.551 199.393C233.597 192.65 235.057 184.59 233.646 176.794C232.234 168.997 228.053 162.025 221.921 157.245C215.788 152.464 208.147 150.219 200.495 150.949C192.842 151.679 185.73 155.333 180.551 161.193C175.372 167.053 172.501 174.698 172.498 182.629C172.497 186.565 173.203 190.467 174.582 194.137ZM187.65 173.291C189.227 170.472 191.491 168.129 194.217 166.494C196.944 164.858 200.037 163.987 203.19 163.967C206.344 163.947 209.447 164.779 212.192 166.38C214.938 167.981 217.23 170.295 218.84 173.093C220.451 175.891 221.324 179.075 221.374 182.329C221.423 185.583 220.647 188.794 219.122 191.642C217.597 194.491 215.376 196.878 212.68 198.567C209.985 200.256 206.908 201.187 203.756 201.269C203.609 201.278 203.453 201.288 203.297 201.288C199.67 201.291 196.127 200.167 193.128 198.062C190.129 195.957 187.814 192.969 186.484 189.487C185.482 186.871 185.066 184.055 185.268 181.251C185.469 178.446 186.284 175.724 187.65 173.291Z" fill="#43FFD9"/>
<path d="M203.297 214.406V201.288C203.453 201.288 203.609 201.278 203.756 201.269C207.361 201.178 210.858 199.974 213.795 197.814C216.732 195.654 218.976 192.636 220.236 189.148C221.497 185.661 221.717 181.863 220.869 178.246C220.02 174.628 218.142 171.355 215.475 168.849L223.936 159.055C228.554 163.36 231.799 169.007 233.244 175.254C234.69 181.5 234.267 188.051 232.032 194.045C229.797 200.038 225.855 205.192 220.726 208.827C215.596 212.461 209.519 214.407 203.297 214.406V214.406Z" fill="#FF6570"/>
<path d="M172.502 182.628C172.494 176.98 173.949 171.433 176.718 166.562L187.653 173.289C186.287 175.722 185.472 178.443 185.269 181.248C185.066 184.052 185.48 186.868 186.481 189.484L174.582 194.136C173.202 190.466 172.496 186.564 172.502 182.628V182.628Z" fill="#00D1FF"/>
<path d="M176.718 166.561C179.031 162.486 182.195 158.995 185.98 156.34C189.765 153.686 194.076 151.935 198.599 151.216C203.121 150.497 207.743 150.828 212.126 152.183C216.51 153.539 220.545 155.886 223.939 159.054L215.473 168.844C213.478 166.965 211.1 165.571 208.514 164.766C205.929 163.961 203.201 163.764 200.532 164.19C197.863 164.617 195.32 165.655 193.091 167.23C190.862 168.804 189.004 170.875 187.653 173.288L176.718 166.561Z" fill="#FFE000"/>
<path d="M261.1 152.995C253.934 155.861 248.064 161.385 244.639 168.485C241.214 175.585 240.481 183.749 242.584 191.377C244.687 199.006 249.475 205.549 256.008 209.724C262.542 213.9 270.351 215.407 277.905 213.95C285.459 212.493 292.214 208.178 296.846 201.849C301.478 195.521 303.653 187.635 302.945 179.737C302.238 171.84 298.698 164.5 293.02 159.155C287.342 153.811 279.935 150.847 272.25 150.845C268.436 150.843 264.656 151.572 261.1 152.995V152.995ZM281.299 166.482C284.029 168.11 286.3 170.447 287.885 173.26C289.469 176.074 290.313 179.266 290.333 182.521C290.352 185.775 289.546 188.978 287.995 191.811C286.444 194.645 284.201 197.01 281.49 198.673C278.779 200.335 275.694 201.236 272.541 201.287C269.388 201.338 266.277 200.537 263.517 198.963C260.757 197.389 258.444 195.097 256.808 192.315C255.171 189.533 254.269 186.358 254.189 183.104C254.18 182.953 254.171 182.792 254.171 182.631C254.168 178.888 255.257 175.231 257.297 172.136C259.336 169.041 262.232 166.651 265.606 165.279C268.14 164.244 270.868 163.815 273.586 164.023C276.304 164.232 278.941 165.072 281.299 166.482V166.482Z" fill="#DEF2FB"/>
<path opacity="0.75" d="M241.46 182.636H254.17C254.17 182.797 254.179 182.958 254.188 183.11C254.277 186.831 255.443 190.44 257.536 193.471C259.629 196.503 262.554 198.818 265.933 200.119C269.312 201.42 272.991 201.647 276.497 200.772C280.002 199.896 283.173 197.957 285.602 195.205L295.091 203.938C290.92 208.703 285.448 212.052 279.396 213.544C273.344 215.036 266.996 214.599 261.188 212.293C255.381 209.986 250.388 205.918 246.866 200.624C243.344 195.33 241.459 189.058 241.46 182.636Z" fill="#00D1FF"/>
<path opacity="0.22" d="M272.251 150.846C277.723 150.838 283.098 152.34 287.818 155.197L281.3 166.483C278.942 165.073 276.306 164.232 273.588 164.023C270.871 163.813 268.143 164.241 265.608 165.273L261.101 152.993C264.656 151.568 268.437 150.84 272.251 150.846V150.846Z" fill="#00D1FF"/>
<path opacity="0.48" d="M287.819 155.198C291.767 157.585 295.15 160.851 297.722 164.757C300.294 168.663 301.99 173.112 302.687 177.78C303.384 182.448 303.064 187.217 301.75 191.741C300.436 196.265 298.162 200.43 295.093 203.933L285.607 195.195C287.428 193.136 288.778 190.682 289.558 188.014C290.339 185.345 290.529 182.53 290.116 179.775C289.703 177.02 288.697 174.396 287.171 172.096C285.645 169.796 283.639 167.878 281.301 166.484L287.819 155.198Z" fill="#00D1FF"/>
<path d="M291.381 233.71H183.074C182.092 233.71 181.15 233.307 180.456 232.591C179.762 231.874 179.372 230.902 179.372 229.889V229.259C179.372 228.758 179.467 228.261 179.653 227.797C179.84 227.333 180.112 226.912 180.456 226.557C180.8 226.203 181.208 225.921 181.657 225.729C182.106 225.537 182.588 225.438 183.074 225.438H291.381C292.363 225.438 293.304 225.841 293.999 226.557C294.693 227.274 295.083 228.246 295.083 229.259V229.889C295.083 230.902 294.693 231.874 293.999 232.591C293.304 233.307 292.363 233.71 291.381 233.71V233.71ZM291.381 239.576H183.074C182.588 239.576 182.106 239.675 181.657 239.867C181.208 240.059 180.8 240.34 180.456 240.695C180.112 241.05 179.84 241.471 179.653 241.935C179.467 242.398 179.372 242.895 179.372 243.397V244.027C179.372 244.528 179.467 245.025 179.653 245.489C179.84 245.953 180.112 246.374 180.456 246.729C180.8 247.083 181.208 247.365 181.657 247.557C182.106 247.749 182.588 247.848 183.074 247.848H291.381C292.363 247.848 293.304 247.445 293.999 246.729C294.693 246.012 295.083 245.04 295.083 244.027V243.397C295.083 242.895 294.987 242.398 294.801 241.935C294.615 241.471 294.343 241.05 293.999 240.695C293.655 240.34 293.247 240.059 292.798 239.867C292.348 239.675 291.867 239.576 291.381 239.576V239.576ZM291.381 253.714H183.074C182.588 253.714 182.106 253.813 181.657 254.005C181.208 254.197 180.8 254.478 180.456 254.833C180.112 255.188 179.84 255.609 179.653 256.073C179.467 256.536 179.372 257.033 179.372 257.535V258.164C179.372 258.666 179.467 259.163 179.653 259.627C179.84 260.09 180.112 260.512 180.456 260.866C180.8 261.221 181.208 261.503 181.657 261.695C182.106 261.887 182.588 261.986 183.074 261.986H291.381C292.363 261.986 293.304 261.583 293.999 260.866C294.693 260.15 295.083 259.178 295.083 258.164V257.535C295.083 257.033 294.987 256.536 294.801 256.073C294.615 255.609 294.343 255.188 293.999 254.833C293.655 254.478 293.247 254.197 292.798 254.005C292.348 253.813 291.867 253.714 291.381 253.714V253.714ZM291.381 267.852H183.074C182.588 267.852 182.106 267.95 181.657 268.142C181.208 268.335 180.8 268.616 180.456 268.971C180.112 269.326 179.84 269.747 179.653 270.21C179.467 270.674 179.372 271.171 179.372 271.673V272.302C179.372 272.804 179.467 273.301 179.653 273.765C179.84 274.228 180.112 274.649 180.456 275.004C180.8 275.359 181.208 275.641 181.657 275.833C182.106 276.025 182.588 276.123 183.074 276.123H291.381C291.867 276.123 292.348 276.025 292.798 275.833C293.247 275.641 293.655 275.359 293.999 275.004C294.343 274.649 294.615 274.228 294.801 273.765C294.987 273.301 295.083 272.804 295.083 272.302V271.673C295.083 271.171 294.987 270.674 294.801 270.21C294.615 269.747 294.343 269.326 293.999 268.971C293.655 268.616 293.247 268.335 292.798 268.142C292.348 267.95 291.867 267.852 291.381 267.852V267.852Z" fill="#DEF2FB"/>
<path d="M390.348 165.424H492.669C495.443 165.424 498.102 166.561 500.063 168.585C502.024 170.609 503.126 173.354 503.126 176.216V277.159C503.126 280.021 502.024 282.766 500.063 284.79C498.102 286.814 495.443 287.951 492.669 287.951H390.348C387.574 287.951 384.915 286.814 382.954 284.79C380.993 282.766 379.891 280.021 379.891 277.159V176.216C379.891 173.354 380.993 170.609 382.954 168.585C384.915 166.561 387.574 165.424 390.348 165.424V165.424Z" fill="#DEF2FB"/>
<path d="M426.752 220.099H395.288C393.663 220.099 392.105 219.433 390.955 218.247C389.806 217.061 389.161 215.452 389.161 213.775V181.303C389.161 179.626 389.806 178.017 390.955 176.831C392.105 175.645 393.663 174.979 395.288 174.979H426.752C428.377 174.979 429.936 175.645 431.085 176.831C432.234 178.017 432.879 179.626 432.879 181.303V213.775C432.879 215.452 432.234 217.061 431.085 218.247C429.935 219.433 428.377 220.099 426.752 220.099ZM493.856 179.836V179.521C493.856 179.27 493.808 179.021 493.715 178.789C493.622 178.557 493.486 178.346 493.314 178.169C493.142 177.991 492.937 177.851 492.713 177.755C492.488 177.658 492.247 177.609 492.004 177.609H440.896C440.653 177.609 440.412 177.658 440.187 177.755C439.962 177.851 439.758 177.991 439.586 178.169C439.414 178.346 439.278 178.557 439.185 178.789C439.092 179.021 439.044 179.27 439.044 179.521V179.836C439.044 180.087 439.092 180.335 439.185 180.567C439.278 180.799 439.414 181.01 439.586 181.187C439.758 181.365 439.962 181.506 440.187 181.602C440.412 181.698 440.653 181.747 440.896 181.747H492.004C492.247 181.747 492.488 181.698 492.713 181.602C492.937 181.506 493.142 181.365 493.314 181.187C493.486 181.01 493.622 180.799 493.715 180.567C493.808 180.335 493.856 180.087 493.856 179.836V179.836ZM493.856 191.428V191.743C493.856 192.25 493.661 192.736 493.314 193.095C492.966 193.453 492.495 193.655 492.004 193.655H440.896C440.405 193.655 439.934 193.453 439.586 193.095C439.239 192.736 439.044 192.25 439.044 191.743V191.428C439.044 191.177 439.092 190.928 439.185 190.696C439.278 190.465 439.414 190.254 439.586 190.076C439.758 189.899 439.962 189.758 440.187 189.662C440.412 189.566 440.653 189.516 440.896 189.516H492.004C492.247 189.516 492.488 189.566 492.713 189.662C492.937 189.758 493.142 189.899 493.314 190.076C493.486 190.254 493.622 190.465 493.715 190.696C493.808 190.928 493.856 191.177 493.856 191.428V191.428ZM493.856 203.335V203.65C493.856 203.901 493.808 204.15 493.715 204.382C493.622 204.614 493.486 204.825 493.314 205.002C493.142 205.18 492.937 205.32 492.713 205.417C492.488 205.513 492.247 205.562 492.004 205.562H440.896C440.653 205.562 440.412 205.513 440.187 205.417C439.962 205.32 439.758 205.18 439.586 205.002C439.414 204.825 439.278 204.614 439.185 204.382C439.092 204.15 439.044 203.901 439.044 203.65V203.335C439.044 203.084 439.092 202.836 439.185 202.604C439.278 202.372 439.414 202.161 439.586 201.984C439.758 201.806 439.962 201.665 440.187 201.569C440.412 201.473 440.653 201.424 440.896 201.424H492.004C492.247 201.424 492.488 201.473 492.713 201.569C492.937 201.665 493.142 201.806 493.314 201.984C493.486 202.161 493.622 202.372 493.715 202.604C493.808 202.836 493.856 203.084 493.856 203.335V203.335ZM493.856 215.243V215.558C493.856 215.809 493.808 216.057 493.715 216.289C493.622 216.521 493.486 216.732 493.314 216.909C493.142 217.087 492.937 217.228 492.713 217.324C492.488 217.42 492.247 217.469 492.004 217.469H440.896C440.653 217.469 440.412 217.42 440.187 217.324C439.962 217.228 439.758 217.087 439.586 216.909C439.414 216.732 439.278 216.521 439.185 216.289C439.092 216.057 439.044 215.809 439.044 215.558V215.243C439.044 214.736 439.239 214.249 439.586 213.891C439.934 213.532 440.405 213.331 440.896 213.331H492.004C492.495 213.331 492.966 213.532 493.314 213.891C493.661 214.249 493.856 214.736 493.856 215.243Z" fill="white"/>
<path d="M426.752 278.23H395.288C393.663 278.23 392.105 277.564 390.955 276.378C389.806 275.192 389.161 273.583 389.161 271.906V239.434C389.161 237.757 389.806 236.148 390.955 234.962C392.105 233.776 393.663 233.11 395.288 233.11H426.752C428.377 233.11 429.935 233.776 431.085 234.962C432.234 236.148 432.879 237.757 432.879 239.434V271.906C432.879 273.583 432.234 275.192 431.085 276.378C429.935 277.564 428.377 278.23 426.752 278.23V278.23ZM493.856 237.966V237.652C493.856 237.4 493.808 237.152 493.715 236.92C493.622 236.688 493.486 236.477 493.314 236.3C493.142 236.122 492.937 235.981 492.713 235.885C492.488 235.789 492.247 235.74 492.004 235.74H440.896C440.653 235.74 440.412 235.789 440.187 235.885C439.962 235.981 439.758 236.122 439.586 236.3C439.414 236.477 439.278 236.688 439.185 236.92C439.092 237.152 439.044 237.4 439.044 237.652V237.966C439.044 238.474 439.239 238.96 439.586 239.318C439.934 239.677 440.405 239.878 440.896 239.878H492.004C492.495 239.878 492.966 239.677 493.314 239.318C493.661 238.96 493.856 238.474 493.856 237.966V237.966ZM493.856 249.559V249.874C493.856 250.125 493.808 250.374 493.715 250.605C493.622 250.837 493.486 251.048 493.314 251.226C493.142 251.403 492.937 251.544 492.713 251.64C492.488 251.736 492.247 251.786 492.004 251.786H440.896C440.653 251.786 440.412 251.736 440.187 251.64C439.962 251.544 439.758 251.403 439.586 251.226C439.414 251.048 439.278 250.837 439.185 250.605C439.092 250.374 439.044 250.125 439.044 249.874V249.559C439.044 249.308 439.092 249.059 439.185 248.827C439.278 248.595 439.414 248.385 439.586 248.207C439.758 248.03 439.962 247.889 440.187 247.793C440.412 247.697 440.653 247.647 440.896 247.647H492.004C492.247 247.647 492.488 247.697 492.713 247.793C492.937 247.889 493.142 248.03 493.314 248.207C493.486 248.385 493.622 248.595 493.715 248.827C493.808 249.059 493.856 249.308 493.856 249.559V249.559ZM493.856 261.466V261.781C493.856 262.032 493.808 262.281 493.715 262.513C493.622 262.745 493.486 262.955 493.314 263.133C493.142 263.311 492.937 263.451 492.713 263.547C492.488 263.643 492.247 263.693 492.004 263.693H440.896C440.653 263.693 440.412 263.643 440.187 263.547C439.962 263.451 439.758 263.311 439.586 263.133C439.414 262.955 439.278 262.745 439.185 262.513C439.092 262.281 439.044 262.032 439.044 261.781V261.466C439.044 260.959 439.239 260.473 439.586 260.114C439.934 259.756 440.405 259.554 440.896 259.554H492.004C492.495 259.554 492.966 259.756 493.314 260.114C493.661 260.473 493.856 260.959 493.856 261.466ZM493.856 273.374V273.689C493.856 273.94 493.808 274.188 493.715 274.42C493.622 274.652 493.486 274.863 493.314 275.04C493.142 275.218 492.937 275.359 492.713 275.455C492.488 275.551 492.247 275.6 492.004 275.6H440.896C440.653 275.6 440.412 275.551 440.187 275.455C439.962 275.359 439.758 275.218 439.586 275.04C439.414 274.863 439.278 274.652 439.185 274.42C439.092 274.188 439.044 273.94 439.044 273.689V273.374C439.044 273.123 439.092 272.874 439.185 272.642C439.278 272.41 439.414 272.199 439.586 272.022C439.758 271.844 439.962 271.704 440.187 271.607C440.412 271.511 440.653 271.462 440.896 271.462H492.004C492.247 271.462 492.488 271.511 492.713 271.607C492.937 271.704 493.142 271.844 493.314 272.022C493.486 272.199 493.622 272.41 493.715 272.642C493.808 272.874 493.856 273.123 493.856 273.374V273.374Z" fill="white"/>
<path d="M325.268 252.571C334.938 256.871 347.233 257.08 355.376 255.431L353.38 243.832L326.749 219.39L325.268 252.571Z" fill="#FFD2D2"/>
<path d="M330.921 254.568C328.992 254.047 327.102 253.379 325.268 252.571L326.749 219.39L332.333 224.514C331.35 234.5 330.879 244.531 330.921 254.568V254.568Z" fill="#FFDEDE"/>
<path d="M339.639 256.122C344.89 256.638 350.186 256.404 355.375 255.425L353.379 243.831L337.069 234.496C337.556 241.747 338.414 248.965 339.639 256.122V256.122Z" fill="#FCCACA"/>
<path d="M344.141 195.428C352.601 192.273 359.301 194.318 365.802 205.813C372.304 217.308 381.301 227.294 377.017 230.845C372.733 234.396 364.351 244.767 351.656 243.775C332.651 242.289 319.436 204.64 344.141 195.428Z" fill="#FCCACA"/>
<path d="M367.406 235.139C365.398 236.294 363.029 236.578 360.818 235.93C358.607 235.281 356.737 233.753 355.618 231.681L328.411 181.298L350.029 168.864L371.242 224.028C372.018 226.045 372.056 228.285 371.35 230.329C370.645 232.373 369.243 234.083 367.406 235.139V235.139Z" fill="#F8B024"/>
<path d="M316.086 166.069L321.147 163.159C323.969 161.536 327.3 161.136 330.407 162.048C333.515 162.959 336.144 165.108 337.717 168.02L338.694 169.83C340.267 172.742 340.654 176.18 339.771 179.387C338.887 182.594 336.806 185.308 333.984 186.931L328.923 189.842C326.101 191.465 322.769 191.865 319.662 190.953C316.554 190.041 313.925 187.893 312.352 184.98L311.375 183.171C310.597 181.729 310.101 180.142 309.916 178.502C309.731 176.863 309.861 175.201 310.299 173.613C310.736 172.025 311.472 170.541 312.465 169.247C313.458 167.953 314.689 166.873 316.086 166.069V166.069Z" fill="url(#paint3_linear_202_809)"/>
<path style="mix-blend-mode:screen" opacity="0.44" d="M317.074 174.678L326.439 169.292C327.554 168.651 328.78 168.242 330.047 168.09C331.315 167.938 332.599 168.045 333.827 168.405C335.054 168.766 336.201 169.372 337.202 170.189C338.202 171.007 339.037 172.02 339.658 173.17L342.608 178.633C342.465 177.309 342.067 176.028 341.438 174.865L338.062 168.614C336.807 166.29 334.71 164.576 332.231 163.849C329.752 163.122 327.094 163.44 324.843 164.735L315.478 170.122C313.227 171.416 311.566 173.581 310.862 176.14C310.157 178.698 310.466 181.441 311.721 183.764L312.146 184.553C311.934 182.589 312.288 180.604 313.165 178.847C314.042 177.09 315.402 175.64 317.074 174.678V174.678Z" fill="url(#paint4_linear_202_809)"/>
<path style="mix-blend-mode:multiply" opacity="0.42" d="M339.894 172.053L336.518 165.801C336.091 165.015 335.563 164.293 334.948 163.653L336.715 166.924C337.97 169.248 338.279 171.991 337.574 174.549C336.869 177.108 335.208 179.272 332.957 180.567L323.593 185.953C321.735 187.021 319.59 187.429 317.485 187.117C315.381 186.804 313.434 185.788 311.943 184.224L313.552 187.203C314.807 189.527 316.905 191.241 319.384 191.968C321.863 192.695 324.52 192.376 326.772 191.082L336.136 185.695C337.251 185.054 338.232 184.193 339.024 183.16C339.817 182.128 340.404 180.944 340.753 179.677C341.102 178.41 341.205 177.085 341.058 175.777C340.911 174.468 340.515 173.203 339.894 172.053Z" fill="url(#paint5_linear_202_809)"/>
<path d="M325.908 153.67L336.614 147.512C340.202 145.449 344.437 144.94 348.388 146.099C352.339 147.259 355.682 149.99 357.681 153.693L361.005 159.849C363.005 163.552 363.497 167.923 362.374 172C361.251 176.078 358.605 179.528 355.017 181.592L344.311 187.75C340.723 189.813 336.488 190.322 332.536 189.163C328.585 188.003 325.242 185.272 323.243 181.569L319.919 175.414C317.919 171.711 317.427 167.339 318.55 163.262C319.673 159.184 322.32 155.734 325.908 153.67V153.67Z" fill="url(#paint6_linear_202_809)"/>
<path style="mix-blend-mode:screen" opacity="0.44" d="M326.323 163.881L343.559 153.967C344.907 153.192 346.39 152.698 347.922 152.514C349.455 152.33 351.008 152.46 352.492 152.895C353.976 153.331 355.363 154.064 356.572 155.052C357.782 156.041 358.791 157.265 359.542 158.656L365.454 169.605C365.237 168.206 364.783 166.858 364.113 165.621L357.15 152.726C355.633 149.917 353.097 147.845 350.1 146.965C347.102 146.086 343.889 146.471 341.167 148.037L323.931 157.951C322.584 158.726 321.397 159.767 320.439 161.016C319.481 162.264 318.771 163.695 318.349 165.227C317.927 166.759 317.802 168.362 317.98 169.943C318.158 171.525 318.637 173.055 319.388 174.446L320.439 176.393C320.058 173.936 320.419 171.418 321.471 169.18C322.524 166.942 324.218 165.092 326.323 163.881V163.881Z" fill="url(#paint7_linear_202_809)"/>
<path style="mix-blend-mode:multiply" opacity="0.42" d="M362.825 163.212L355.862 150.317C354.816 148.373 353.269 146.764 351.393 145.669C351.453 145.773 351.514 145.876 351.572 145.982L358.535 158.877C360.052 161.687 360.425 165.003 359.573 168.096C358.721 171.19 356.713 173.807 353.991 175.373L336.755 185.287C334.994 186.301 333.01 186.829 330.993 186.822C328.977 186.815 326.996 186.272 325.242 185.245C326.808 187.952 329.334 189.923 332.284 190.74C335.235 191.557 338.377 191.156 341.046 189.622L358.282 179.708C359.63 178.933 360.816 177.891 361.774 176.643C362.732 175.394 363.442 173.963 363.864 172.431C364.286 170.9 364.411 169.297 364.233 167.715C364.055 166.133 363.577 164.603 362.825 163.212V163.212Z" fill="url(#paint8_linear_202_809)"/>
<path d="M427.739 174.233C396.946 176.289 379.862 172.182 360.915 183.065C348.018 190.473 325.614 148.924 338.51 141.516C359.131 129.672 364.58 113.116 380.925 87.5396L427.739 174.233Z" fill="url(#paint9_linear_202_809)"/>
<path style="mix-blend-mode:screen" d="M341.845 151.99C362.465 140.146 368.95 125.922 385.295 100.346L383.328 95.6862C366.982 121.262 360.498 135.486 339.877 147.33C333.919 150.752 336.946 160.82 341.638 170.622C338.602 162.292 336.824 154.874 341.845 151.99Z" fill="url(#paint10_linear_202_809)"/>
<path style="mix-blend-mode:multiply" opacity="0.3" d="M422.91 165.297C393.13 167.109 376.306 163.339 357.693 174.03C350.677 178.06 340.848 167.6 335.419 156.031C338.75 170.2 352.069 188.154 360.916 183.073C379.863 172.19 396.946 176.296 427.739 174.241L422.91 165.297Z" fill="url(#paint11_linear_202_809)"/>
<path d="M427.74 174.237C435.198 169.947 430.765 147.062 417.838 123.123C404.91 99.1828 388.385 83.2534 380.926 87.5432C373.468 91.8331 377.901 114.718 390.829 138.657C403.756 162.597 420.282 178.527 427.74 174.237Z" fill="url(#paint12_linear_202_809)"/>
<path style="mix-blend-mode:multiply" opacity="0.3" d="M424.395 174.904C426.717 166.116 421.82 147.594 411.446 128.382C400.2 107.555 386.232 92.7984 377.879 92.1355C375.557 100.923 380.454 119.446 390.828 138.657C402.074 159.484 416.041 174.241 424.395 174.904Z" fill="url(#paint13_linear_202_809)"/>
<path d="M421.726 120.883C407.171 93.93 387.258 76.7472 377.249 82.5044C367.239 88.2616 370.924 114.779 385.478 141.732C400.033 168.685 419.946 185.868 429.955 180.111C439.965 174.353 436.28 147.836 421.726 120.883ZM427.739 174.234C420.281 178.524 403.755 162.595 390.828 138.655C377.901 114.715 373.467 91.8306 380.925 87.5408C388.384 83.251 404.909 99.1803 417.837 123.12C430.764 147.06 435.198 169.945 427.739 174.234Z" fill="url(#paint14_linear_202_809)"/>
<g style="mix-blend-mode:multiply" opacity="0.5">
<path style="mix-blend-mode:multiply" opacity="0.5" d="M419.012 119.886C406.085 95.9459 389.559 80.0164 382.101 84.3064C381.217 84.9062 380.47 85.6972 379.911 86.6246C379.353 87.552 378.996 88.5936 378.866 89.6772C379.359 88.791 380.069 88.0545 380.925 87.5418C388.384 83.252 404.909 99.1813 417.837 123.121C427.911 141.778 432.825 159.791 430.974 168.864C435.262 161.546 430.488 141.137 419.012 119.886Z" fill="url(#paint15_linear_202_809)"/>
<path style="mix-blend-mode:multiply" opacity="0.5" d="M431.131 176.878C421.122 182.635 401.209 165.452 386.654 138.499C375.547 117.931 370.772 97.6183 373.58 86.5895C368.639 96.4714 373.173 118.946 385.478 141.735C400.033 168.688 419.946 185.871 429.956 180.113C431.205 179.3 432.28 178.232 433.113 176.973C433.946 175.714 434.52 174.292 434.8 172.795C433.999 174.504 432.721 175.925 431.131 176.878Z" fill="url(#paint16_linear_202_809)"/>
</g>
<path d="M390.828 138.654C393.509 143.639 396.47 148.458 399.695 153.087L412.77 145.567L396.673 115.759L383.599 123.279C385.717 128.545 388.13 133.678 390.828 138.654Z" fill="url(#paint17_linear_202_809)"/>
<path style="mix-blend-mode:screen" d="M387.133 131.348C387.133 131.348 384.651 125.911 383.599 123.279L396.673 115.759L401.035 123.837L387.133 131.348Z" fill="url(#paint18_linear_202_809)"/>
<path style="mix-blend-mode:multiply" opacity="0.5" d="M407.01 137.43L394.296 144.742C396.063 147.689 397.872 150.482 399.697 153.088L412.771 145.568L407.01 137.43Z" fill="url(#paint19_linear_202_809)"/>
<path d="M412.77 145.573C415.334 144.098 413.81 136.23 409.365 127.998C404.92 119.767 399.238 114.29 396.673 115.765C394.109 117.24 395.633 125.109 400.078 133.34C404.523 141.571 410.205 147.048 412.77 145.573Z" fill="url(#paint20_linear_202_809)"/>
<path d="M374.667 221.533C378.696 220.468 382.854 228.178 377.683 231.383C373.802 233.81 369.509 235.453 365.033 236.224C360.968 236.838 359.188 231.199 363.25 227.92C366.604 225.025 370.486 222.853 374.667 221.533V221.533Z" fill="#FFDEDE"/>
<path d="M365.03 236.228C369.507 235.459 373.8 233.817 377.68 231.389C378.585 230.878 379.301 230.072 379.715 229.097C380.129 228.122 380.219 227.032 379.97 225.999C379.676 226.28 379.354 226.529 379.011 226.742C375.131 229.17 370.837 230.812 366.361 231.581C365.471 231.748 364.552 231.543 363.808 231.012C363.064 230.48 362.554 229.665 362.392 228.746C359.483 232.06 361.294 236.795 365.03 236.228Z" fill="#FFD2D2"/>
<path d="M372.184 211.565C376.941 210.307 381.851 219.411 375.745 223.196C371.162 226.062 366.093 228.002 360.807 228.912C356.008 229.638 353.906 222.978 358.703 219.107C362.663 215.688 367.247 213.123 372.184 211.565V211.565Z" fill="#FFDEDE"/>
<path d="M360.807 228.911C366.092 227.998 371.162 226.058 375.746 223.194C376.866 222.553 377.737 221.534 378.214 220.308C378.69 219.082 378.742 217.724 378.361 216.463C377.933 217.872 376.997 219.058 375.746 219.776C371.164 222.644 366.093 224.584 360.807 225.493C359.838 225.678 358.838 225.488 357.997 224.959C357.156 224.43 356.534 223.6 356.25 222.627C355.228 226.02 357.294 229.446 360.807 228.911Z" fill="#FFD2D2"/>
<path d="M365.263 200C370.325 197.25 378.272 206.2 372.341 212.191C367.896 216.716 362.658 220.328 356.906 222.832C351.656 224.991 347.532 218.029 351.956 212.305C355.55 207.327 360.074 203.142 365.263 200V200Z" fill="#FFDEDE"/>
<path d="M356.907 222.835C362.66 220.33 367.898 216.718 372.342 212.191C373.293 211.305 373.964 210.145 374.268 208.861C374.571 207.576 374.493 206.227 374.044 204.989C373.665 205.973 373.084 206.861 372.342 207.592C367.896 212.114 362.658 215.724 356.907 218.228C356.289 218.502 355.623 218.638 354.95 218.627C354.278 218.617 353.616 218.46 353.007 218.167C352.397 217.873 351.855 217.45 351.415 216.926C350.975 216.401 350.648 215.786 350.455 215.122C348.884 220.032 352.497 224.648 356.907 222.835Z" fill="#FFD2D2"/>
<path d="M357.023 191.049C361.724 188.495 369.101 196.805 363.594 202.367C359.688 206.463 355.252 209.982 350.411 212.822C345.285 215.509 340.688 209.438 344.796 204.124C348.904 198.809 353.01 193.229 357.023 191.049Z" fill="#FFDEDE"/>
<path d="M350.409 212.824C355.25 209.986 359.687 206.468 363.592 202.372C364.708 201.308 365.4 199.852 365.531 198.29C365.663 196.728 365.225 195.171 364.304 193.924C364.275 194.746 364.088 195.555 363.753 196.302C363.418 197.049 362.943 197.72 362.355 198.276C358.451 202.374 354.014 205.892 349.171 208.728C348.232 209.299 347.132 209.519 346.054 209.352C344.976 209.185 343.987 208.64 343.252 207.81C343.115 208.733 343.234 209.678 343.596 210.535C343.958 211.391 344.547 212.124 345.296 212.649C346.045 213.174 346.923 213.469 347.828 213.5C348.733 213.531 349.628 213.297 350.409 212.824V212.824Z" fill="#FFD2D2"/>
<path d="M351.54 185.359C356.371 185.376 360.212 195.212 344.85 202.78C345.148 206.983 342.255 209.739 345.126 213.328C349.503 218.798 351.788 221.882 350.864 227.757C349.912 233.809 342.747 237.648 335.744 233.879C328.565 230.015 318.514 211.517 336.696 194.842C338.373 193.304 346.442 189.094 347.165 188.324C349.506 185.831 350.233 185.354 351.54 185.359Z" fill="#FFDEDE"/>
<path d="M335.747 233.878C342.749 237.647 349.913 233.807 350.865 227.754C351.786 221.877 349.503 218.795 345.124 213.325C342.254 209.74 345.148 206.985 344.853 202.777C360.211 195.208 356.374 185.378 351.538 185.354C351.435 185.351 351.331 185.357 351.229 185.37C353.294 188.66 352.196 195.287 341.124 200.741C341.426 204.941 338.532 207.696 341.403 211.289C345.774 216.759 348.064 219.841 347.136 225.718C346.277 231.196 344.079 233.759 335.747 233.878Z" fill="#FFD2D2"/>
<path d="M356.549 244.148H321.362V298.311H356.549V244.148Z" fill="white"/>
<path d="M360.175 250.795H317.737V298.315H360.175V250.795Z" fill="url(#paint21_linear_202_809)"/>
<path style="mix-blend-mode:multiply" opacity="0.8" d="M360.175 298.315H326.519C335.903 283.96 342.378 267.797 345.557 250.795H360.175V298.315Z" fill="url(#paint22_linear_202_809)"/>
<path d="M416.258 93.375C415.631 93.3742 415.017 93.1993 414.478 92.8687C413.939 92.538 413.497 92.0639 413.197 91.4959C412.897 90.928 412.75 90.2872 412.773 89.6408C412.795 88.9944 412.986 88.3661 413.325 87.822L444.296 38.124C444.798 37.3221 445.588 36.7584 446.492 36.5567C447.396 36.355 448.341 36.5317 449.118 37.0481C449.896 37.5645 450.444 38.3784 450.641 39.311C450.838 40.2437 450.669 41.2189 450.17 42.0227L419.198 91.7207C418.882 92.2287 418.447 92.6465 417.933 92.9355C417.419 93.2246 416.843 93.3758 416.258 93.375V93.375ZM437.869 115.314L489.064 88.8596C489.891 88.4306 490.518 87.6808 490.809 86.7748C491.1 85.8688 491.031 84.8807 490.617 84.0271C490.203 83.1736 489.478 82.5245 488.601 82.2223C487.723 81.92 486.766 81.9893 485.938 82.4149L434.742 108.869C434.331 109.081 433.965 109.374 433.664 109.731C433.363 110.089 433.134 110.504 432.989 110.954C432.843 111.403 432.785 111.877 432.818 112.35C432.851 112.822 432.973 113.284 433.179 113.707C433.384 114.131 433.668 114.508 434.015 114.818C434.362 115.128 434.765 115.365 435.201 115.514C435.636 115.663 436.096 115.722 436.554 115.688C437.012 115.654 437.458 115.527 437.869 115.314V115.314ZM445.172 147.804L502.381 145.456C503.306 145.418 504.179 145.002 504.807 144.3C505.435 143.598 505.768 142.667 505.731 141.712C505.694 140.757 505.291 139.856 504.611 139.208C503.931 138.559 503.029 138.216 502.103 138.254L444.894 140.602C444.436 140.621 443.986 140.733 443.57 140.931C443.153 141.129 442.779 141.41 442.468 141.758C442.157 142.106 441.915 142.513 441.757 142.957C441.598 143.401 441.526 143.873 441.544 144.346C441.562 144.819 441.671 145.284 441.863 145.713C442.055 146.143 442.327 146.529 442.664 146.85C443.001 147.171 443.396 147.421 443.826 147.585C444.256 147.748 444.714 147.823 445.172 147.804Z" fill="url(#paint23_linear_202_809)"/>
<path d="M171.924 117.463C171.924 117.896 171.8 118.319 171.567 118.679C171.334 119.038 171.003 119.319 170.616 119.484C170.228 119.65 169.802 119.693 169.391 119.609C168.98 119.524 168.602 119.316 168.306 119.01C168.01 118.704 167.808 118.314 167.726 117.89C167.644 117.466 167.686 117.026 167.847 116.626C168.007 116.226 168.279 115.885 168.627 115.645C168.976 115.404 169.386 115.276 169.805 115.276C170.367 115.276 170.906 115.506 171.303 115.917C171.701 116.327 171.924 116.883 171.924 117.463V117.463ZM176.717 115.276C176.298 115.276 175.888 115.404 175.54 115.645C175.191 115.885 174.92 116.227 174.759 116.626C174.599 117.026 174.557 117.466 174.639 117.89C174.72 118.315 174.922 118.704 175.219 119.01C175.515 119.316 175.893 119.525 176.304 119.609C176.715 119.693 177.141 119.65 177.529 119.485C177.916 119.319 178.247 119.039 178.48 118.679C178.713 118.319 178.837 117.896 178.837 117.463C178.837 117.176 178.782 116.892 178.676 116.626C178.569 116.361 178.413 116.12 178.216 115.917C178.019 115.713 177.786 115.552 177.529 115.442C177.271 115.332 176.996 115.276 176.717 115.276ZM183.63 115.276C183.211 115.276 182.801 115.404 182.453 115.645C182.104 115.885 181.833 116.227 181.672 116.626C181.512 117.026 181.47 117.466 181.551 117.89C181.633 118.315 181.835 118.704 182.132 119.01C182.428 119.316 182.806 119.525 183.217 119.609C183.628 119.693 184.054 119.65 184.442 119.485C184.829 119.319 185.16 119.039 185.393 118.679C185.626 118.319 185.75 117.896 185.75 117.463C185.75 117.176 185.695 116.892 185.589 116.626C185.482 116.361 185.326 116.12 185.129 115.917C184.932 115.713 184.699 115.552 184.442 115.442C184.184 115.332 183.909 115.276 183.63 115.276V115.276Z" fill="white"/>
<g style="mix-blend-mode:multiply">
<path d="M100.257 269.209H183.29C187.809 269.209 192.143 271.061 195.338 274.359C198.534 277.657 200.329 282.13 200.329 286.794V334.578C200.329 339.242 198.534 343.715 195.338 347.013C192.143 350.311 187.809 352.164 183.29 352.164H100.257C98.0194 352.164 95.8036 351.709 93.7363 350.825C91.669 349.941 89.7906 348.646 88.2083 347.013C86.626 345.38 85.3709 343.441 84.5146 341.308C83.6583 339.174 83.2175 336.887 83.2175 334.578V286.794C83.2175 282.13 85.0127 277.657 88.2082 274.359C91.4037 271.061 95.7378 269.209 100.257 269.209V269.209Z" fill="#E6F4FF"/>
</g>
<path d="M176.954 269.209H93.9216C84.511 269.209 76.8822 277.082 76.8822 286.794V334.578C76.8822 344.29 84.511 352.164 93.9216 352.164H176.954C186.365 352.164 193.994 344.29 193.994 334.578V286.794C193.994 277.082 186.365 269.209 176.954 269.209Z" fill="url(#paint24_linear_202_809)"/>
<path d="M118.711 327.994V293.384C118.711 292.743 118.878 292.114 119.194 291.562C119.51 291.01 119.963 290.556 120.507 290.246C121.052 289.937 121.666 289.784 122.287 289.804C122.908 289.823 123.512 290.014 124.037 290.356L150.55 307.662C151.045 307.985 151.452 308.432 151.735 308.961C152.017 309.49 152.165 310.085 152.165 310.689C152.165 311.293 152.017 311.888 151.735 312.417C151.452 312.946 151.045 313.393 150.55 313.716L124.037 331.021C123.512 331.364 122.908 331.555 122.287 331.574C121.666 331.594 121.051 331.441 120.507 331.131C119.963 330.822 119.51 330.368 119.194 329.816C118.878 329.264 118.711 328.635 118.711 327.994V327.994Z" fill="white"/>
<g style="mix-blend-mode:multiply">
<path d="M105.192 162.804H139.231C139.868 162.804 140.498 162.934 141.086 163.185C141.674 163.436 142.208 163.805 142.658 164.269C143.108 164.734 143.465 165.285 143.709 165.892C143.952 166.499 144.078 167.149 144.078 167.806V191.67C144.078 192.327 143.952 192.977 143.709 193.584C143.465 194.191 143.108 194.742 142.658 195.207C142.208 195.671 141.674 196.04 141.086 196.291C140.498 196.543 139.868 196.672 139.231 196.672H136.759L142.105 202.284L128.168 196.672H105.192C104.556 196.672 103.926 196.543 103.338 196.291C102.75 196.04 102.215 195.671 101.765 195.207C101.315 194.742 100.958 194.191 100.715 193.584C100.471 192.977 100.346 192.327 100.346 191.67V167.806C100.346 167.149 100.471 166.499 100.715 165.892C100.958 165.285 101.315 164.734 101.765 164.269C102.215 163.805 102.75 163.436 103.338 163.185C103.926 162.934 104.556 162.804 105.192 162.804V162.804Z" fill="#E6F4FF"/>
</g>
<path d="M102.747 194.034H135.148C138.277 194.034 140.813 191.416 140.813 188.187V166.014C140.813 162.785 138.277 160.167 135.148 160.167H102.747C99.618 160.167 97.0814 162.785 97.0814 166.014V188.187C97.0814 191.416 99.618 194.034 102.747 194.034Z" fill="white"/>
<path d="M131.881 192.34L138.842 199.644L120.701 192.34" fill="white"/>
<path d="M136.065 171.532H101.829C101.49 171.532 101.165 171.393 100.925 171.146C100.686 170.898 100.551 170.563 100.551 170.213C100.551 169.864 100.686 169.528 100.925 169.281C101.165 169.034 101.49 168.895 101.829 168.895H136.065C136.404 168.895 136.729 169.034 136.969 169.281C137.208 169.528 137.343 169.864 137.343 170.213C137.343 170.563 137.208 170.898 136.969 171.146C136.729 171.393 136.404 171.532 136.065 171.532V171.532ZM137.343 177.097C137.343 176.923 137.31 176.752 137.246 176.592C137.181 176.432 137.087 176.287 136.969 176.164C136.85 176.042 136.709 175.945 136.554 175.878C136.399 175.812 136.233 175.778 136.065 175.778H101.829C101.49 175.778 101.165 175.917 100.925 176.164C100.686 176.411 100.551 176.747 100.551 177.097C100.551 177.446 100.686 177.782 100.925 178.029C101.165 178.276 101.49 178.415 101.829 178.415H136.065C136.404 178.415 136.729 178.276 136.969 178.029C137.208 177.782 137.343 177.446 137.343 177.097V177.097ZM137.343 183.98C137.343 183.807 137.31 183.635 137.246 183.475C137.181 183.315 137.087 183.17 136.969 183.048C136.85 182.925 136.709 182.828 136.554 182.762C136.399 182.695 136.233 182.661 136.065 182.661H101.829C101.49 182.661 101.165 182.8 100.925 183.048C100.686 183.295 100.551 183.63 100.551 183.98C100.551 184.33 100.686 184.665 100.925 184.912C101.165 185.16 101.49 185.299 101.829 185.299H136.065C136.404 185.299 136.729 185.16 136.969 184.912C137.208 184.665 137.343 184.33 137.343 183.98V183.98Z" fill="#DEF2FB"/>
<g style="mix-blend-mode:multiply">
<path d="M607.296 60.0168H573.257C572.621 60.0168 571.99 60.1462 571.402 60.3975C570.814 60.6489 570.28 61.0173 569.83 61.4818C569.38 61.9462 569.023 62.4976 568.779 63.1045C568.536 63.7113 568.41 64.3618 568.41 65.0186V88.8824C568.41 89.5393 568.536 90.1897 568.779 90.7966C569.023 91.4034 569.38 91.9548 569.83 92.4193C570.28 92.8838 570.814 93.2522 571.402 93.5036C571.99 93.7549 572.621 93.8843 573.257 93.8843H575.73L570.383 99.4961L584.32 93.8843H607.296C608.581 93.8843 609.814 93.3573 610.723 92.4193C611.632 91.4812 612.142 90.209 612.142 88.8824V65.0186C612.142 63.6921 611.632 62.4198 610.723 61.4818C609.814 60.5438 608.581 60.0168 607.296 60.0168V60.0168Z" fill="#E6F4FF"/>
</g>
<path d="M602.702 57.3846H570.301C567.172 57.3846 564.635 60.0026 564.635 63.232V85.4046C564.635 88.6341 567.172 91.252 570.301 91.252H602.702C605.831 91.252 608.367 88.6341 608.367 85.4046V63.232C608.367 60.0026 605.831 57.3846 602.702 57.3846Z" fill="white"/>
<path d="M573.567 89.5512L566.608 96.8566L584.748 89.5512" fill="white"/>
<path d="M568.105 67.4314C568.105 67.0817 568.239 66.7463 568.479 66.499C568.719 66.2518 569.043 66.1128 569.382 66.1128H603.619C603.958 66.1128 604.283 66.2517 604.522 66.499C604.762 66.7463 604.896 67.0817 604.896 67.4314C604.896 67.7811 604.762 68.1166 604.522 68.3639C604.283 68.6112 603.958 68.7501 603.619 68.7501H569.382C569.043 68.7501 568.719 68.6111 568.479 68.3638C568.239 68.1166 568.105 67.7811 568.105 67.4314V67.4314ZM569.382 75.6335H603.619C603.958 75.6335 604.283 75.4946 604.522 75.2473C604.762 75 604.896 74.6646 604.896 74.3149C604.896 73.9651 604.762 73.6297 604.522 73.3824C604.283 73.1352 603.958 72.9962 603.619 72.9962H569.382C569.043 72.9962 568.719 73.1352 568.479 73.3824C568.239 73.6297 568.105 73.9651 568.105 74.3149C568.105 74.6646 568.239 75 568.479 75.2473C568.719 75.4946 569.043 75.6335 569.382 75.6335V75.6335ZM569.382 82.5168H603.619C603.958 82.5168 604.283 82.3778 604.522 82.1306C604.762 81.8833 604.896 81.5479 604.896 81.1981C604.896 80.8484 604.762 80.513 604.522 80.2657C604.283 80.0184 603.958 79.8795 603.619 79.8795H569.382C569.043 79.8795 568.719 80.0184 568.479 80.2657C568.239 80.513 568.105 80.8484 568.105 81.1981C568.105 81.5479 568.239 81.8833 568.479 82.1306C568.719 82.3778 569.043 82.5168 569.382 82.5168Z" fill="#DEF2FB"/>
<path d="M642.135 190.452V185.541H640.12C640.001 185.172 639.856 184.812 639.685 184.465L641.112 182.992L637.747 179.519L636.32 180.992C635.984 180.816 635.635 180.665 635.277 180.543V178.463H630.518V180.543C630.16 180.665 629.811 180.816 629.475 180.992L628.048 179.519L624.683 182.992L626.11 184.465C625.939 184.812 625.794 185.172 625.675 185.541H623.66V190.452H625.675C625.794 190.822 625.939 191.182 626.11 191.529L624.683 193.001L628.048 196.474L629.475 195.002C629.811 195.178 630.16 195.328 630.518 195.451V197.53H635.277V195.451C635.635 195.328 635.984 195.178 636.32 195.002L637.747 196.474L641.112 193.001L639.685 191.529C639.856 191.182 640.001 190.822 640.12 190.452H642.135ZM632.897 192.945C631.949 192.945 631.022 192.654 630.234 192.111C629.446 191.567 628.831 190.794 628.468 189.89C628.105 188.986 628.01 187.991 628.195 187.031C628.38 186.072 628.837 185.19 629.507 184.498C630.178 183.806 631.032 183.335 631.962 183.144C632.892 182.953 633.856 183.051 634.732 183.425C635.608 183.8 636.357 184.434 636.884 185.248C637.41 186.061 637.692 187.018 637.692 187.997C637.692 189.309 637.187 190.567 636.287 191.495C635.388 192.423 634.169 192.945 632.897 192.945V192.945ZM648.395 211.128V208.55H647.338C647.275 208.356 647.199 208.167 647.109 207.984L647.859 207.211L646.092 205.388L645.343 206.161C645.166 206.069 644.983 205.99 644.795 205.926V204.834H642.297V205.926C642.109 205.99 641.926 206.069 641.75 206.161L641 205.388L639.234 207.211L639.983 207.984C639.893 208.167 639.817 208.356 639.755 208.55H638.697V211.128H639.755C639.817 211.322 639.893 211.511 639.983 211.693L639.234 212.466L641 214.289L641.75 213.516C641.926 213.609 642.109 213.688 642.297 213.752V214.844H644.795V213.752C644.983 213.688 645.166 213.609 645.343 213.516L646.092 214.289L647.859 212.466L647.109 211.693C647.199 211.511 647.275 211.322 647.338 211.128H648.395ZM643.546 212.436C643.048 212.436 642.562 212.284 642.148 211.998C641.734 211.713 641.412 211.307 641.221 210.833C641.031 210.358 640.981 209.836 641.078 209.332C641.175 208.828 641.415 208.365 641.767 208.002C642.119 207.639 642.567 207.391 643.055 207.291C643.544 207.191 644.05 207.242 644.51 207.439C644.969 207.636 645.362 207.969 645.639 208.396C645.916 208.823 646.063 209.325 646.063 209.839C646.063 210.18 645.998 210.518 645.872 210.833C645.745 211.148 645.56 211.434 645.326 211.676C645.092 211.917 644.815 212.108 644.509 212.239C644.204 212.369 643.877 212.436 643.546 212.436V212.436Z" fill="white"/>
<path d="M116.392 231.143L113.823 227.112L112.17 228.235C111.879 227.998 111.571 227.784 111.249 227.594L111.65 225.59L107.072 224.616L106.671 226.619C106.303 226.662 105.938 226.733 105.58 226.832L104.492 225.126L100.587 227.777L101.675 229.484C101.445 229.784 101.238 230.101 101.054 230.433L99.1126 230.02L98.1681 234.745L100.11 235.158C100.151 235.538 100.22 235.915 100.316 236.284L98.662 237.407L101.231 241.437L102.885 240.315C103.176 240.552 103.483 240.766 103.805 240.956L103.405 242.959L107.983 243.934L108.383 241.93C108.752 241.888 109.116 241.817 109.474 241.718L110.562 243.424L114.467 240.773L113.379 239.066C113.609 238.766 113.817 238.448 114 238.116L115.942 238.53L116.886 233.805L114.945 233.391C114.904 233.011 114.835 232.635 114.739 232.265L116.392 231.143ZM110.116 238.335C109.338 238.864 108.425 239.142 107.494 239.135C106.562 239.128 105.654 238.837 104.883 238.297C104.112 237.757 103.514 236.994 103.163 236.103C102.813 235.212 102.727 234.234 102.915 233.293C103.103 232.351 103.558 231.488 104.221 230.813C104.884 230.139 105.727 229.682 106.641 229.501C107.556 229.32 108.502 229.423 109.36 229.798C110.219 230.172 110.95 230.8 111.462 231.603C112.148 232.68 112.392 233.994 112.14 235.257C111.887 236.519 111.159 237.627 110.116 238.335V238.335ZM92.5204 237.793L90.9049 235.259L89.8652 235.965C89.6824 235.816 89.4889 235.681 89.2865 235.562L89.5384 234.302L86.6598 233.689L86.4078 234.949C86.1763 234.976 85.947 235.02 85.722 235.082L85.038 234.009L82.5824 235.677L83.2665 236.75C83.1221 236.938 82.9916 237.138 82.8759 237.347L81.6552 237.087L81.0613 240.058L82.2821 240.318C82.308 240.557 82.3513 240.794 82.4116 241.026L81.3718 241.732L82.9874 244.266L84.0272 243.56C84.21 243.709 84.4034 243.844 84.6057 243.963L84.3539 245.223L87.2325 245.836L87.4844 244.576C87.716 244.549 87.9453 244.504 88.1703 244.442L88.8544 245.515L91.3098 243.848L90.6259 242.775C90.7703 242.586 90.9008 242.387 91.0163 242.178L92.2371 242.438L92.8311 239.467L91.6104 239.207C91.5843 238.968 91.5409 238.731 91.4806 238.499L92.5204 237.793ZM88.5738 242.315C88.0845 242.648 87.5107 242.823 86.9251 242.819C86.3394 242.814 85.7681 242.631 85.2834 242.291C84.7988 241.952 84.4225 241.472 84.2022 240.912C83.9819 240.352 83.9275 239.737 84.0458 239.145C84.1642 238.553 84.45 238.01 84.8671 237.586C85.2841 237.162 85.8138 236.874 86.389 236.761C86.9642 236.647 87.5592 236.712 88.0987 236.947C88.6382 237.182 89.098 237.578 89.4199 238.083C89.8516 238.76 90.0049 239.586 89.8462 240.38C89.6876 241.174 89.2298 241.87 88.5738 242.315V242.315Z" fill="white"/>
<path d="M298.334 61.715L294.844 56.2398L292.598 57.7653C292.203 57.4431 291.785 57.1521 291.348 56.8946L291.892 54.1724L285.672 52.8481L285.128 55.5701C284.628 55.6281 284.133 55.7247 283.646 55.859L282.168 53.5407L276.863 57.143L278.341 59.4613C278.029 59.869 277.747 60.3003 277.498 60.7515L274.86 60.1899L273.577 66.6086L276.214 67.1703C276.27 67.6866 276.364 68.1979 276.494 68.6997L274.248 70.2252L277.738 75.7001L279.985 74.1749C280.38 74.497 280.798 74.788 281.235 75.0456L280.69 77.7677L286.91 79.092L287.454 76.3699C287.954 76.312 288.45 76.2154 288.936 76.0809L290.414 78.3992L295.719 74.7969L294.241 72.4788C294.553 72.0711 294.835 71.6399 295.085 71.1887L297.722 71.7501L299.005 65.3313L296.368 64.7697C296.312 64.2534 296.218 63.7422 296.088 63.2403L298.334 61.715ZM289.808 71.4862C288.75 72.2039 287.511 72.5821 286.246 72.5728C284.98 72.5635 283.746 72.1671 282.699 71.4339C281.652 70.7006 280.839 69.6633 280.363 68.4533C279.887 67.2432 279.77 65.9147 280.025 64.6357C280.281 63.3567 280.898 62.1846 281.8 61.2678C282.701 60.351 283.845 59.7305 285.088 59.4848C286.33 59.2392 287.616 59.3794 288.782 59.8877C289.947 60.3961 290.94 61.2497 291.636 62.3407C292.569 63.8037 292.9 65.5891 292.557 67.3042C292.214 69.0193 291.225 70.5236 289.808 71.4862V71.4862ZM265.905 70.7493L263.71 67.3065L262.298 68.2656C262.049 68.0631 261.786 67.8801 261.511 67.7182L261.854 66.0065L257.943 65.1739L257.601 66.8855C257.286 66.9219 256.975 66.9826 256.669 67.067L255.74 65.6092L252.404 67.8744L253.333 69.332C253.137 69.5884 252.96 69.8596 252.803 70.1433L251.144 69.7903L250.338 73.8261L251.996 74.1793C252.031 74.504 252.09 74.8255 252.172 75.1412L250.76 76.1002L252.954 79.5429L254.367 78.5837C254.615 78.7861 254.878 78.9692 255.153 79.1313L254.811 80.8427L258.721 81.6754L259.063 79.9639C259.378 79.9275 259.689 79.8668 259.995 79.7823L260.925 81.2399L264.26 78.975L263.331 77.5173C263.527 77.2609 263.704 76.9897 263.861 76.706L265.52 77.0591L266.327 73.0231L264.668 72.6699C264.633 72.3453 264.574 72.0239 264.492 71.7083L265.905 70.7493ZM260.543 76.8931C259.879 77.3445 259.099 77.5823 258.304 77.5765C257.508 77.5706 256.732 77.3214 256.073 76.8604C255.415 76.3993 254.904 75.7472 254.605 74.9863C254.305 74.2254 254.231 73.39 254.392 72.5858C254.553 71.7816 254.941 71.0446 255.508 70.4681C256.074 69.8916 256.794 69.5015 257.575 69.347C258.357 69.1925 259.165 69.2807 259.898 69.6003C260.631 69.92 261.255 70.4567 261.693 71.1427C261.983 71.5982 262.184 72.1082 262.283 72.6437C262.383 73.1792 262.379 73.7297 262.272 74.2636C262.165 74.7976 261.958 75.3047 261.661 75.7558C261.364 76.207 260.985 76.5935 260.543 76.8931Z" fill="white"/>
<path d="M155.768 84.0714C164.004 84.0714 170.681 77.1809 170.681 68.681C170.681 60.1811 164.004 53.2906 155.768 53.2906C147.533 53.2906 140.856 60.1811 140.856 68.681C140.856 77.1809 147.533 84.0714 155.768 84.0714Z" fill="#DF7D5A"/>
<path d="M154.732 81.6047V78.4266C153.082 78.421 151.467 77.9413 150.068 77.0414L150.799 74.9329C152.107 75.8093 153.631 76.2791 155.19 76.2862C157.354 76.2862 158.818 74.9956 158.818 73.2027C158.818 71.4712 157.629 70.4017 155.372 69.4573C152.263 68.1999 150.341 66.7521 150.341 64.015C150.36 62.7304 150.842 61.4993 151.694 60.5623C152.545 59.6253 153.705 59.0498 154.946 58.9482V55.7696H156.835V58.8217C158.226 58.8332 159.591 59.2124 160.8 59.9231L160.037 62.0009C158.876 61.2869 157.547 60.9164 156.195 60.9302C153.848 60.9302 152.964 62.3778 152.964 63.6367C152.964 65.2736 154.091 66.0914 156.744 67.2237C159.885 68.5449 161.47 70.1819 161.47 72.9816C161.446 74.329 160.941 75.6198 160.053 76.6071C159.164 77.5943 157.954 78.2086 156.653 78.3321V81.6047H154.732Z" fill="white"/>
<path d="M381.579 66.4489C390.62 66.4489 397.949 58.8848 397.949 49.554C397.949 40.2233 390.62 32.6592 381.579 32.6592C372.538 32.6592 365.209 40.2233 365.209 49.554C365.209 58.8848 372.538 66.4489 381.579 66.4489Z" fill="#070C69"/>
<path d="M380.44 63.7284V60.2397C378.629 60.2336 376.856 59.7071 375.32 58.7191L376.123 56.4045C377.558 57.3668 379.231 57.8825 380.943 57.8903C383.319 57.8903 384.925 56.4734 384.925 54.5052C384.925 52.6045 383.62 51.4305 381.142 50.3938C377.73 49.0133 375.62 47.4242 375.62 44.4194C375.641 43.0093 376.17 41.6579 377.105 40.6293C378.04 39.6007 379.313 38.9689 380.675 38.8574V35.3679H382.749V38.7185C384.276 38.7312 385.774 39.1475 387.101 39.9277L386.264 42.2085C384.989 41.4245 383.53 41.0178 382.046 41.0329C379.469 41.0329 378.499 42.6223 378.499 44.0042C378.499 45.8011 379.737 46.6989 382.648 47.9418C386.097 49.3922 387.837 51.1892 387.837 54.2626C387.81 55.7416 387.256 57.1587 386.281 58.2424C385.305 59.3262 383.977 60.0004 382.549 60.136V63.7284H380.44Z" fill="white"/>
<path d="M619.006 131.423C625.642 131.423 631.022 125.871 631.022 119.022C631.022 112.173 625.642 106.62 619.006 106.62C612.37 106.62 606.99 112.173 606.99 119.022C606.99 125.871 612.37 131.423 619.006 131.423Z" fill="#DF7D5A"/>
<path d="M618.17 129.425V126.864C616.841 126.859 615.539 126.473 614.411 125.748L615.001 124.049C616.054 124.755 617.283 125.134 618.539 125.139C620.283 125.139 621.462 124.099 621.462 122.655C621.462 121.26 620.504 120.398 618.685 119.637C616.18 118.624 614.632 117.457 614.632 115.251C614.647 114.216 615.036 113.224 615.722 112.469C616.408 111.714 617.342 111.251 618.342 111.169V108.607H619.865V111.067C620.986 111.076 622.085 111.382 623.059 111.954L622.445 113.628C621.509 113.053 620.438 112.755 619.349 112.766C617.457 112.766 616.745 113.932 616.745 114.946C616.745 116.266 617.654 116.924 619.791 117.837C622.322 118.901 623.599 120.221 623.599 122.476C623.58 123.562 623.173 124.602 622.457 125.398C621.741 126.193 620.766 126.688 619.718 126.788V129.425H618.17Z" fill="white"/>
<path d="M108.302 133.184C115.401 133.184 121.156 127.245 121.156 119.918C121.156 112.591 115.401 106.652 108.302 106.652C101.202 106.652 95.4475 112.591 95.4475 119.918C95.4475 127.245 101.202 133.184 108.302 133.184Z" fill="white"/>
<path d="M108.302 109.855C108.713 111.506 108.983 113.191 109.109 114.89C109.253 116.568 109.311 118.247 109.292 119.925L108.302 118.904C109.738 118.925 111.173 118.984 112.608 119.149C114.062 119.287 115.502 119.547 116.915 119.925C115.502 120.303 114.062 120.563 112.608 120.701C111.173 120.866 109.738 120.925 108.302 120.946L107.324 120.961L107.313 119.925C107.294 118.247 107.351 116.568 107.495 114.89C107.621 113.191 107.891 111.506 108.302 109.855Z" fill="#7FD4FF"/>
<path d="M522.025 78.6442C530.293 78.6442 536.995 71.7269 536.995 63.194C536.995 54.6611 530.293 47.7438 522.025 47.7438C513.757 47.7438 507.055 54.6611 507.055 63.194C507.055 71.7269 513.757 78.6442 522.025 78.6442Z" fill="white"/>
<path d="M530.769 62.7549C531.485 61.4951 531.835 60.0495 531.778 58.5902C531.72 57.1309 531.258 55.7195 530.445 54.5239C529.632 53.3283 528.503 52.399 527.193 51.8467C525.883 51.2943 524.447 51.1422 523.056 51.4085C521.664 51.6747 520.376 52.3481 519.345 53.3484C518.314 54.3487 517.583 55.6338 517.24 57.0507C516.896 58.4675 516.955 59.9564 517.408 61.3399C517.861 62.7235 518.69 63.9435 519.796 64.8546L515.591 72.3218C515.519 72.4486 515.473 72.5886 515.454 72.7339C515.435 72.8792 515.444 73.0269 515.48 73.1686C515.517 73.3103 515.58 73.4433 515.666 73.5598C515.752 73.6764 515.86 73.7743 515.982 73.848C516.105 73.9217 516.241 73.9697 516.382 73.9893C516.522 74.0088 516.666 73.9996 516.803 73.962C516.94 73.9245 517.069 73.8594 517.182 73.7705C517.295 73.6816 517.39 73.5706 517.461 73.4439L521.666 65.9765C523.306 66.6538 525.127 66.7011 526.797 66.1098C528.468 65.5186 529.877 64.3281 530.769 62.7549ZM521.763 63.5828C520.871 63.0474 520.153 62.2509 519.699 61.2941C519.245 60.3373 519.077 59.263 519.214 58.2073C519.352 57.1515 519.79 56.1617 520.473 55.3629C521.156 54.564 522.053 53.9921 523.051 53.7194C524.049 53.4468 525.102 53.4856 526.079 53.831C527.055 54.1764 527.91 54.8128 528.536 55.6599C529.162 56.5069 529.531 57.5265 529.595 58.5897C529.66 59.6529 529.417 60.712 528.899 61.633C528.202 62.867 527.06 63.7653 525.722 64.1309C524.384 64.4964 522.96 64.2993 521.763 63.5828V63.5828Z" fill="#070C69"/>
<path d="M615.579 287.149C620.665 287.149 624.788 282.894 624.788 277.644C624.788 272.395 620.665 268.139 615.579 268.139C610.492 268.139 606.369 272.395 606.369 277.644C606.369 282.894 610.492 287.149 615.579 287.149Z" fill="#00BBFF"/>
<path d="M618.898 277.985C619.6 277.102 619.942 275.973 619.853 274.836C619.764 273.698 619.25 272.641 618.421 271.886C617.851 271.365 617.157 271.011 616.41 270.858C615.664 270.706 614.891 270.762 614.172 271.019C613.453 271.277 612.814 271.728 612.319 272.325C611.825 272.922 611.493 273.644 611.359 274.417C611.248 275.041 611.271 275.682 611.425 276.297C611.579 276.911 611.861 277.483 612.251 277.973C612.998 278.859 613.424 279.986 613.456 281.161V281.673H613.351V283.805H617.808V281.673H617.704V281.16C617.731 279.99 618.154 278.867 618.898 277.985V277.985ZM612.94 277.392C612.631 277.004 612.408 276.55 612.286 276.063C612.164 275.576 612.147 275.068 612.235 274.573C612.369 273.842 612.723 273.173 613.246 272.66C613.769 272.148 614.436 271.819 615.15 271.72C615.629 271.657 616.115 271.7 616.576 271.846C617.038 271.992 617.463 272.238 617.825 272.567C618.187 272.897 618.477 273.301 618.676 273.755C618.875 274.209 618.977 274.701 618.977 275.199C618.98 276.003 618.709 276.783 618.211 277.402C617.335 278.448 616.84 279.778 616.815 281.16V281.349H616.365C616.688 280.254 617.253 278.094 616.887 277.413C616.855 277.351 616.812 277.296 616.76 277.251C616.708 277.206 616.648 277.172 616.583 277.152C616.426 277.115 616.262 277.141 616.123 277.225C616.055 277.129 615.967 277.05 615.865 276.994C615.763 276.939 615.651 276.908 615.536 276.904H615.535C615.422 276.902 615.311 276.932 615.213 276.99C615.116 277.048 615.035 277.133 614.98 277.234C614.956 277.221 614.931 277.208 614.906 277.198C614.807 277.151 614.698 277.135 614.59 277.15C614.483 277.165 614.381 277.211 614.298 277.283C613.85 277.674 614.341 279.796 614.778 281.349H614.345V281.161C614.315 279.775 613.818 278.442 612.94 277.392ZM615.246 281.349C614.812 280.153 614.593 278.886 614.6 277.608C614.623 277.589 614.651 277.563 614.737 277.601C614.765 277.615 614.792 277.631 614.817 277.65C614.782 277.754 614.774 277.866 614.793 277.974C614.812 278.083 614.857 278.185 614.924 278.27C614.977 278.317 615.042 278.347 615.112 278.355C615.181 278.364 615.251 278.351 615.314 278.318C615.374 278.29 615.425 278.244 615.46 278.186C615.494 278.127 615.511 278.059 615.507 277.991C615.491 277.825 615.427 277.668 615.323 277.541C615.339 277.505 615.358 277.472 615.381 277.44C615.408 277.401 615.462 277.337 615.516 277.339C615.569 277.343 615.621 277.359 615.666 277.388C615.711 277.417 615.749 277.457 615.776 277.504C615.685 277.602 615.614 277.717 615.568 277.843C615.546 277.895 615.536 277.95 615.537 278.006C615.538 278.062 615.551 278.117 615.575 278.167C615.599 278.217 615.633 278.262 615.675 278.297C615.717 278.333 615.766 278.358 615.818 278.372C615.881 278.393 615.948 278.396 616.012 278.38C616.076 278.364 616.134 278.331 616.181 278.283C616.248 278.191 616.294 278.085 616.314 277.972C616.335 277.858 616.329 277.742 616.297 277.632C616.342 277.598 616.394 277.576 616.449 277.567C616.466 277.578 616.479 277.594 616.487 277.612C616.558 278.888 616.356 280.164 615.894 281.349H615.246Z" fill="white"/>
<g style="mix-blend-mode:multiply">
<path d="M194.015 293.143H268.305C269.403 293.143 270.456 293.593 271.233 294.395C272.01 295.196 272.446 296.284 272.446 297.417V347.884C272.446 348.445 272.339 349.001 272.131 349.52C271.923 350.038 271.617 350.51 271.233 350.906C270.848 351.303 270.392 351.618 269.889 351.833C269.387 352.048 268.848 352.158 268.305 352.158H194.015C192.917 352.158 191.863 351.708 191.087 350.906C190.31 350.105 189.874 349.018 189.874 347.884V297.417C189.874 296.856 189.981 296.3 190.189 295.781C190.397 295.263 190.702 294.792 191.086 294.395C191.471 293.998 191.928 293.683 192.43 293.468C192.932 293.254 193.471 293.143 194.015 293.143V293.143Z" fill="#E6F4FF"/>
</g>
<path d="M189.36 293.143H263.65C264.748 293.143 265.801 293.593 266.578 294.395C267.355 295.196 267.791 296.284 267.791 297.417V347.884C267.791 348.445 267.684 349.001 267.476 349.52C267.268 350.038 266.963 350.51 266.578 350.906C266.193 351.303 265.737 351.618 265.234 351.833C264.732 352.048 264.194 352.158 263.65 352.158H189.36C188.261 352.158 187.208 351.708 186.431 350.906C185.655 350.105 185.219 349.018 185.219 347.884V297.417C185.219 296.284 185.655 295.196 186.431 294.395C187.208 293.593 188.261 293.143 189.36 293.143Z" fill="#FFCC00"/>
<g style="mix-blend-mode:multiply" opacity="0.22">
<path d="M189.258 348.329L225.917 308.882C226.002 308.793 226.103 308.722 226.215 308.674C226.327 308.625 226.446 308.601 226.567 308.601C226.688 308.601 226.808 308.625 226.92 308.674C227.031 308.722 227.133 308.793 227.218 308.882L262.844 347.405L189.258 348.329Z" fill="#FFCC00"/>
</g>
<path d="M189.258 348.325L224.474 314.906C225.027 314.38 225.752 314.088 226.505 314.088C227.257 314.088 227.982 314.38 228.536 314.906L263.751 348.325C264.068 348.626 264.29 349.019 264.387 349.452C264.484 349.885 264.453 350.338 264.296 350.753C264.14 351.167 263.866 351.523 263.51 351.774C263.154 352.025 262.733 352.159 262.302 352.159H190.707C190.276 352.159 189.855 352.025 189.5 351.774C189.144 351.523 188.87 351.167 188.713 350.753C188.557 350.338 188.525 349.885 188.622 349.452C188.72 349.019 188.941 348.626 189.258 348.325V348.325Z" fill="#FFDA00"/>
<path d="M223.257 327.442L188.463 296.07C188.215 295.846 188.039 295.55 187.958 295.22C187.878 294.891 187.897 294.544 188.013 294.226C188.128 293.908 188.335 293.634 188.606 293.44C188.876 293.247 189.198 293.143 189.527 293.143H263.48C263.809 293.143 264.131 293.247 264.401 293.44C264.672 293.634 264.879 293.908 264.995 294.226C265.11 294.544 265.129 294.891 265.049 295.22C264.968 295.55 264.792 295.846 264.544 296.07L229.75 327.442C228.851 328.253 227.698 328.7 226.504 328.7C225.31 328.7 224.156 328.253 223.257 327.442V327.442Z" fill="#FFE356"/>
<g style="mix-blend-mode:multiply" opacity="0.22">
<path d="M224.322 331.393L188.464 296.073H264.545L228.687 331.393C228.083 331.938 227.307 332.238 226.505 332.238C225.702 332.238 224.927 331.938 224.322 331.393V331.393Z" fill="#DF7D5A"/>
</g>
<path d="M615.183 360H63.2546C62.7527 360 62.2558 359.898 61.7922 359.7C61.3285 359.502 60.9073 359.211 60.5524 358.845C60.1976 358.479 59.9161 358.044 59.7241 357.565C59.532 357.087 59.4332 356.574 59.4332 356.056V356.056C59.4332 355.538 59.532 355.025 59.7241 354.547C59.9161 354.068 60.1976 353.634 60.5524 353.267C60.9073 352.901 61.3286 352.611 61.7922 352.412C62.2558 352.214 62.7527 352.112 63.2546 352.112H615.183C615.685 352.112 616.182 352.214 616.645 352.412C617.109 352.611 617.53 352.901 617.885 353.267C618.24 353.634 618.521 354.068 618.713 354.547C618.906 355.025 619.004 355.538 619.004 356.056V356.056C619.004 356.574 618.905 357.087 618.713 357.565C618.521 358.044 618.24 358.479 617.885 358.845C617.53 359.211 617.109 359.502 616.645 359.7C616.182 359.898 615.685 360 615.183 360V360Z" fill="#334EC5"/>
<path d="M606.27 214.023L609.111 217.298L619.689 218.99L605.497 222.954L601.622 216.023L606.27 214.023Z" fill="#030478"/>
<path d="M535.652 158.762C531.328 171.486 535.667 175.009 543.198 177.597C546.192 178.626 571.043 176.209 578.47 178.643C585.897 181.077 601.623 218.826 601.623 218.826L608.451 214.605C608.451 214.605 592.914 170.424 590.663 168.812C587.159 166.302 566.647 164.214 560.754 162.585C554.861 160.956 550.194 154.718 550.194 154.718L535.652 158.762Z" fill="url(#paint25_linear_202_809)"/>
<path d="M537.688 129.658C537.688 129.658 539.363 147.592 541.37 151.327C543.378 155.063 566.988 163.257 569.058 163.408C570.95 163.267 572.798 162.745 574.496 161.872C574.496 161.872 579.708 163.805 580.566 163.334C581.423 162.863 575.903 158.794 573.784 158.364C571.665 157.935 568.445 159.656 568.445 159.656C568.445 159.656 550.203 151.819 548.159 148.447C546.115 145.074 544.58 128.354 544.58 128.354L537.688 129.658Z" fill="#F8C3C7"/>
<path d="M542.169 112.114L539.922 118.257L545.586 119.535L546.575 112.607L542.169 112.114Z" fill="#FFCCCC"/>
<path d="M539.88 107.597C539.945 107.801 539.991 108.011 540.019 108.224C540.192 109.807 540.722 111.327 541.568 112.659C542.022 113.368 542.621 113.965 543.323 114.408C544.025 114.851 544.813 115.13 545.631 115.224C546.375 115.252 547.117 115.124 547.813 114.848C548.508 114.572 549.143 114.155 549.678 113.62C550.744 112.541 551.546 111.216 552.019 109.755C552.818 107.495 553.734 104.684 552.461 102.669C551.847 101.697 548.641 100.084 546.357 99.0257C545.68 98.7127 544.923 98.6309 544.197 98.7921C543.472 98.9533 542.815 99.3491 542.322 99.9219L540.09 102.509C539.682 102.982 539.402 103.557 539.278 104.177C539.153 104.797 539.189 105.44 539.382 106.041L539.88 107.597Z" fill="#FFCCCC"/>
<path d="M543.095 101.261C542.749 101.197 542.392 101.258 542.084 101.432C541.776 101.607 541.535 101.885 541.401 102.22C541.278 102.56 541.226 102.922 541.247 103.284C541.268 103.646 541.362 103.999 541.523 104.321C541.85 104.963 542.262 105.553 542.748 106.076C541.872 107.385 540.388 109.028 540.568 110.608C539.379 109.829 539.455 108.838 538.523 107.749C536.793 105.728 534.108 97.5413 540.283 95.1733C546.931 86.2137 556.423 99.8919 557.918 99.1899C557.767 100.56 557.152 101.83 556.182 102.778C555.211 103.726 553.948 104.289 552.615 104.37C551.036 104.61 549.425 104.313 548.023 103.525C547.368 103.07 546.669 102.685 545.938 102.375C545.384 102.184 544.817 104.638 544.351 104.431C543.901 104.231 543.657 101.411 543.095 101.261Z" fill="#241D9E"/>
<path d="M604.029 216.083L606.87 219.357L617.448 221.05L603.254 225.013L599.38 218.082L604.029 216.083Z" fill="#030478"/>
<path d="M536.216 156.644C531.892 169.368 533.426 177.07 540.956 179.658C543.951 180.687 579.035 180.972 579.035 180.972L599.381 220.887L606.209 216.666C606.209 216.666 589.353 172.112 587.391 170.463C585.43 168.815 565.065 165.85 559.173 164.221C553.28 162.592 550.759 152.601 550.759 152.601L536.216 156.644Z" fill="url(#paint26_linear_202_809)"/>
<path d="M546.21 118.753C540.571 113.8 533.745 117.155 532.525 132.666C531.829 144.446 531.729 156.255 532.225 168.045C541.918 170.391 552.008 166.999 560.5 163.033C560.5 163.033 552.602 152.8 550.903 142.772C549.524 134.636 550.771 122.758 546.21 118.753Z" fill="url(#paint27_linear_202_809)"/>
<path d="M541.806 130.906C540.935 131.07 540.157 131.568 539.629 132.301C539.101 133.034 538.862 133.947 538.962 134.855C539.553 140.23 540.837 150.461 542.298 153.179C544.305 156.914 563.229 164.285 565.298 164.435C566.782 164.387 568.242 164.039 569.596 163.41C570.352 163.097 571.191 163.069 571.965 163.331C573.562 163.871 576.216 164.685 576.806 164.361C577.663 163.89 572.144 159.821 570.024 159.392C568.664 159.266 567.295 159.499 566.046 160.068C565.586 160.249 565.093 160.327 564.602 160.296C564.11 160.266 563.63 160.128 563.194 159.891C559.615 157.962 550.712 152.98 549.086 150.298C547.667 147.957 546.494 139.181 545.909 134.034C545.853 133.544 545.701 133.071 545.461 132.644C545.221 132.217 544.899 131.846 544.514 131.552C544.13 131.259 543.691 131.05 543.225 130.939C542.759 130.828 542.276 130.817 541.806 130.906V130.906Z" fill="#FFCCCC"/>
<path d="M540.581 119.482C533.526 121.467 536.797 136.687 536.797 136.687C540.059 137.882 544.092 137.411 548.521 136.084C547.181 132.454 546.939 117.693 540.581 119.482Z" fill="white"/>
<path d="M588.275 165.855H560.754C560.334 165.855 559.931 165.683 559.635 165.377C559.338 165.07 559.171 164.655 559.171 164.222C559.171 163.789 559.338 163.373 559.635 163.067C559.931 162.761 560.334 162.589 560.754 162.589H586.915L590.621 137.472C590.652 137.26 590.724 137.056 590.831 136.873C590.939 136.689 591.08 136.529 591.248 136.402C591.415 136.275 591.605 136.183 591.807 136.131C592.009 136.08 592.218 136.07 592.424 136.103C592.629 136.135 592.826 136.209 593.004 136.32C593.182 136.43 593.337 136.577 593.46 136.749C593.583 136.922 593.672 137.118 593.722 137.326C593.772 137.535 593.782 137.751 593.75 137.963L589.84 164.467C589.783 164.854 589.594 165.206 589.307 165.46C589.02 165.715 588.654 165.855 588.275 165.855V165.855Z" fill="#FF9A25"/>
<g style="mix-blend-mode:multiply">
<path d="M491.88 177.907H576.352C579.506 177.907 582.531 179.2 584.761 181.502C586.991 183.803 588.244 186.925 588.244 190.18V339.887C588.244 343.142 586.991 346.264 584.761 348.565C582.531 350.867 579.506 352.16 576.353 352.16H491.88C488.726 352.16 485.701 350.867 483.471 348.565C481.241 346.264 479.988 343.142 479.988 339.887V190.18C479.988 186.925 481.241 183.803 483.471 181.502C485.701 179.2 488.726 177.907 491.88 177.907V177.907Z" fill="#E6F4FF"/>
</g>
<path d="M486.113 177.907H570.585C573.739 177.907 576.764 179.2 578.994 181.502C581.224 183.803 582.477 186.925 582.477 190.18V339.887C582.477 343.142 581.224 346.264 578.994 348.565C576.764 350.867 573.739 352.16 570.585 352.16H486.113C482.959 352.16 479.934 350.867 477.704 348.565C475.474 346.264 474.221 343.142 474.221 339.887V190.18C474.221 186.925 475.474 183.803 477.704 181.502C479.934 179.2 482.959 177.907 486.113 177.907V177.907Z" fill="url(#paint28_linear_202_809)"/>
<path d="M582.477 189.667H474.221V340.41H582.477V189.667Z" fill="white"/>
<g opacity="0.55">
<path opacity="0.69" d="M572.567 200.917H484.131C483.575 200.917 483.042 200.689 482.648 200.283C482.255 199.877 482.034 199.327 482.034 198.752V198.752C482.034 198.178 482.255 197.628 482.648 197.222C483.042 196.816 483.575 196.588 484.131 196.588H572.567C572.842 196.588 573.115 196.644 573.37 196.752C573.624 196.861 573.855 197.021 574.05 197.222C574.245 197.423 574.399 197.661 574.505 197.924C574.61 198.187 574.664 198.468 574.664 198.752V198.752C574.664 199.037 574.61 199.318 574.505 199.581C574.399 199.844 574.245 200.082 574.05 200.283C573.855 200.484 573.624 200.644 573.37 200.752C573.115 200.861 572.842 200.917 572.567 200.917Z" fill="#C2EEFF"/>
<path opacity="0.69" d="M572.567 210.393H484.131C483.575 210.393 483.041 210.165 482.648 209.759C482.255 209.353 482.034 208.802 482.034 208.228C482.034 207.654 482.255 207.103 482.648 206.697C483.041 206.292 483.575 206.063 484.131 206.063H572.567C572.842 206.063 573.115 206.119 573.369 206.228C573.624 206.337 573.855 206.496 574.05 206.697C574.244 206.898 574.399 207.137 574.504 207.4C574.61 207.662 574.664 207.944 574.664 208.228V208.228C574.664 208.512 574.61 208.794 574.504 209.057C574.399 209.319 574.245 209.558 574.05 209.759C573.855 209.96 573.624 210.119 573.369 210.228C573.115 210.337 572.842 210.393 572.567 210.393V210.393Z" fill="#C2EEFF"/>
<path opacity="0.69" d="M572.567 219.863H484.131C483.575 219.863 483.041 219.635 482.648 219.229C482.255 218.823 482.034 218.272 482.034 217.698C482.034 217.124 482.255 216.574 482.648 216.168C483.041 215.762 483.575 215.534 484.131 215.534H572.567C572.842 215.534 573.115 215.59 573.369 215.698C573.624 215.807 573.855 215.967 574.05 216.168C574.244 216.369 574.399 216.607 574.504 216.87C574.61 217.133 574.664 217.414 574.664 217.698V217.698C574.664 217.983 574.61 218.264 574.504 218.527C574.399 218.789 574.245 219.028 574.05 219.229C573.855 219.43 573.624 219.59 573.369 219.698C573.115 219.807 572.842 219.863 572.567 219.863V219.863Z" fill="#C2EEFF"/>
<path opacity="0.69" d="M572.567 229.335H484.131C483.575 229.335 483.041 229.107 482.648 228.701C482.255 228.295 482.034 227.745 482.034 227.171V227.171C482.034 226.887 482.088 226.605 482.193 226.342C482.299 226.08 482.453 225.841 482.648 225.64C482.843 225.439 483.074 225.28 483.328 225.171C483.583 225.062 483.856 225.006 484.131 225.006H572.567C572.842 225.006 573.115 225.062 573.369 225.171C573.624 225.28 573.855 225.439 574.05 225.64C574.244 225.841 574.399 226.08 574.504 226.342C574.61 226.605 574.664 226.887 574.664 227.171C574.664 227.455 574.61 227.737 574.504 227.999C574.399 228.262 574.244 228.5 574.05 228.701C573.855 228.902 573.624 229.062 573.369 229.171C573.115 229.279 572.842 229.335 572.567 229.335Z" fill="#C2EEFF"/>
<path opacity="0.55" d="M488.855 234.17H567.843C569.652 234.17 571.387 234.912 572.666 236.232C573.946 237.552 574.664 239.343 574.664 241.21V299.975C574.664 301.842 573.946 303.632 572.666 304.953C571.387 306.273 569.652 307.015 567.843 307.015H488.855C487.046 307.015 485.311 306.273 484.032 304.953C482.752 303.632 482.034 301.842 482.034 299.975V241.21C482.034 239.343 482.752 237.552 484.031 236.232C485.311 234.912 487.046 234.17 488.855 234.17V234.17Z" fill="#C2EEFF"/>
</g>
<path opacity="0.55" d="M569.603 332.297H487.096C485.753 332.297 484.466 331.747 483.517 330.767C482.567 329.787 482.034 328.459 482.034 327.073V326.212C482.034 324.827 482.567 323.498 483.517 322.518C484.466 321.539 485.753 320.988 487.096 320.988H569.603C570.945 320.988 572.233 321.539 573.182 322.518C574.131 323.498 574.664 324.827 574.664 326.212V327.073C574.664 328.459 574.131 329.787 573.182 330.767C572.233 331.747 570.945 332.297 569.603 332.297V332.297ZM572.614 312.513H484.085C483.541 312.513 483.019 312.736 482.635 313.133C482.25 313.53 482.034 314.068 482.034 314.629C482.034 315.191 482.25 315.729 482.635 316.126C483.019 316.523 483.541 316.746 484.085 316.746H572.614C573.158 316.746 573.679 316.523 574.064 316.126C574.448 315.729 574.664 315.191 574.664 314.629C574.664 314.068 574.448 313.53 574.064 313.133C573.679 312.736 573.158 312.513 572.614 312.513V312.513Z" fill="#C2EEFF"/>
<path d="M163.258 221.265C170.252 213.273 175.07 203.51 177.221 192.972L181.738 192.029C181.738 192.029 179.971 214.456 172.752 222.21C165.534 229.964 163.258 221.265 163.258 221.265Z" fill="url(#paint29_linear_202_809)"/>
<path d="M178.297 192.679C177.673 192.167 177.206 191.48 176.95 190.7C176.694 189.921 176.661 189.082 176.854 188.284C177.546 185.514 179.291 185.15 179.016 186.708C178.942 187.194 178.962 187.691 179.075 188.169C179.188 188.648 179.392 189.098 179.674 189.495C180.087 190.376 180.192 191.377 179.972 192.329L178.297 192.679Z" fill="#FFCCCC"/>
<path d="M164.326 211.959C164.718 212.677 163.538 218.24 163.538 218.24L168.364 216.888L167.277 211.342L164.326 211.959Z" fill="#FFCCCC"/>
<path d="M164.87 212.405C163.154 212.337 161.473 211.884 159.944 211.077L156.146 207.957L155.768 200.972L163.539 195.452C163.539 195.452 174.741 210.824 164.87 212.405Z" fill="#FFCCCC"/>
<path d="M157.493 203.936C160.055 202.578 162.148 200.437 163.487 197.805C164.825 195.174 165.343 192.179 164.969 189.232C163.615 190.661 161.955 191.742 160.122 192.39C158.294 193.034 156.575 193.972 155.029 195.167C154.262 195.776 153.669 196.587 153.311 197.515C152.953 198.442 152.844 199.452 152.995 200.439C150.912 201.089 150.229 203.909 150.781 206.081C151.08 207.234 151.613 208.307 152.344 209.231C153.075 210.155 153.987 210.909 155.021 211.444C157.089 212.495 160.027 211.913 162.151 210.989C160.125 210.37 156.146 207.952 159.417 207.082C158.884 205.967 158.239 204.912 157.493 203.936Z" fill="#030478"/>
<path d="M160.505 218.314C161.006 216.931 161.576 215.575 162.213 214.252L170.764 213.587L171.251 216.07L160.505 218.314Z" fill="white"/>
<path d="M171.718 343.803L171.855 347.703L180.644 352.118L166.723 351.956L168.487 342.925L171.718 343.803Z" fill="#030478"/>
<path d="M143.731 343.791L143.592 347.691L134.803 352.106L148.725 351.946L146.961 342.915L143.731 343.791Z" fill="#030478"/>
<path d="M160.484 264.069C160.491 263.986 160.5 263.898 160.505 263.828L157.616 263.949L154.943 263.837C154.948 263.901 154.956 263.984 154.962 264.06L142.949 264.562V347.953L148.391 347.514C148.391 347.514 154.14 309.452 157.723 284.512C161.306 309.452 167.056 347.523 167.056 347.523L172.499 347.962V264.571L160.484 264.069Z" fill="url(#paint30_linear_202_809)"/>
<path d="M208.251 205.401C208.251 205.401 209.032 202.314 210.608 202.15L210.142 203.97C211.314 203.263 212.349 202.338 213.194 201.242C213.884 199.985 215.846 204.701 213.905 206.529C212.985 207.537 211.756 208.186 210.425 208.365L208.251 205.401Z" fill="#FFCCCC"/>
<path d="M139.725 275.743C139.725 275.743 150.133 224.011 160.819 217.402C164.968 214.836 177.036 217.225 187.946 214.798C202.353 211.592 208.445 204.455 208.445 204.455L212.989 207.417C212.989 207.417 204.189 219.994 176.361 228.048C170.527 244.343 175.602 275.743 175.602 275.743C175.602 275.743 150.502 273.612 139.725 275.743Z" fill="url(#paint31_linear_202_809)"/>
<path d="M446.026 271.9C444.19 272.335 433.231 269.148 428.571 265.17C428.571 265.17 434.634 241.93 434.463 236.192C434.291 230.454 437.286 218.411 441.283 227.428C445.281 236.444 446.026 271.9 446.026 271.9Z" fill="url(#paint32_linear_202_809)"/>
<path d="M445.697 342.978L445.932 346.873L437.606 352.159H451.865L449.77 341.86L445.697 342.978Z" fill="#030478"/>
<path d="M454.775 261.703C454.915 268.699 450.691 346.213 450.691 346.213L445.317 347.202L437.606 262.521L454.775 261.703Z" fill="url(#paint33_linear_202_809)"/>
<path d="M438.445 342.978L438.68 346.873L430.353 352.159L444.508 351.652L442.517 341.86L438.445 342.978Z" fill="#030478"/>
<path d="M447.524 261.703C447.664 268.699 443.44 346.213 443.44 346.213L438.066 347.202L432.816 261.876L447.524 261.703Z" fill="url(#paint34_linear_202_809)"/>
<path d="M450.052 266.255C438.435 266.616 432.778 263.348 432.163 262.211C431.549 261.075 432.416 260.28 432.805 258.735C434.355 252.588 438.2 236.826 438.063 232.24C437.892 226.502 440.886 214.459 444.884 223.476C448.882 232.492 450.052 266.255 450.052 266.255Z" fill="white"/>
<path d="M388.954 238.724L418.326 264.064L425.711 250.167L400.188 230.554L388.954 238.724Z" fill="#FDB42C"/>
<path d="M391.122 239.034L418.275 261.703L424.632 250.332L400.317 231.627L391.122 239.034Z" fill="white"/>
<path d="M390.293 236.512L391.492 237.402L398.728 232.134L397.77 231.439L390.293 236.512Z" fill="#00D1FF"/>
<path d="M408.728 222.345L408.221 227.622C408.221 227.622 427.701 248.948 445.442 228.635L444.145 216.632C444.145 216.632 432.843 240.939 408.728 222.345Z" fill="url(#paint35_linear_202_809)"/>
<path d="M408.727 222.344C406.28 221.486 405.284 218.837 403.93 221.707C401.436 226.992 408.22 227.62 408.22 227.62L408.727 222.344Z" fill="#FFCCCC"/>
<path d="M406.914 211.813L402.953 227.204L403.044 229.294L404.294 227.672L408.162 212.295C408.321 211.108 407.369 210.7 406.914 211.813Z" fill="#030478"/>
<path d="M406.593 223.203C406.593 223.203 403.677 224.266 403.388 223.656C403.099 223.045 405.655 221.872 406.21 220.953C406.765 220.035 407.865 222.47 407.865 222.47L406.593 223.203Z" fill="#FFCCCC"/>
<path d="M438.701 208.38L441.591 215.313L444.179 212.963L444.56 205.347L438.701 208.38Z" fill="#FFCCCC"/>
<path d="M434.237 197.41C432.997 205.006 432.117 210.094 437.649 210.427C442.662 210.73 446.962 202.657 446.962 202.657C450.822 193.768 436.387 184.248 434.237 197.41Z" fill="#FFCCCC"/>
<path d="M429.175 189.845C434.237 197.416 441.389 198.561 443.62 197.765C444.66 197.394 444.691 198.561 444.275 200.83C447.085 199.495 446.081 203.17 444.039 204.507C443.629 205.565 443.325 206.665 443.132 207.787C443.132 207.787 450.083 203.153 450.098 198.197C450.117 192.196 445.808 192.864 445.808 192.864C445.808 192.864 443.256 184.762 436.215 187.304L429.175 189.845Z" fill="#030478"/>
<path d="M438.966 213.32L445.861 209.348L447.816 212.963L437.782 218.744L438.966 213.32Z" fill="white"/>
<path d="M406.296 250.167L407.095 256.547C406.91 256.712 428.57 265.168 437.782 240.145C436.361 249.928 434.414 259.623 431.95 269.183C439.769 272.534 448.358 273.49 456.69 271.939C456.69 271.939 458.609 227.619 449.116 213.766C444.085 206.425 437.028 218.437 435.277 225.809C433.052 235.175 427.804 256.109 406.296 250.167Z" fill="url(#paint36_linear_202_809)"/>
<path d="M406.295 250.17C406.295 250.17 402.563 249.124 401.157 250.076C399.75 251.028 401.712 254.147 403.345 255.897C403.828 256.392 404.448 256.72 405.119 256.837C405.791 256.954 406.481 256.853 407.095 256.55L406.295 250.17Z" fill="#FFCCCC"/>
<path d="M595.872 324.308C597.318 323.529 646.659 306.122 646.659 306.122L651.153 313.001L595.872 324.308Z" fill="#70D9FF"/>
<path d="M651.153 313.001L650.698 336.28L595.872 324.308L651.153 313.001Z" fill="#00BBFF"/>
<path d="M650.698 336.284L595.872 324.313L656.892 320.778L650.698 336.284Z" fill="#00BBFF"/>
<path d="M656.892 320.778L595.872 324.313L663.984 332.97L656.892 320.778Z" fill="#70D9FF"/>
<path d="M163.382 0C164.561 0.571448 178.732 11.6278 178.732 11.6278L222.849 4.79865L163.382 0Z" fill="#13C0FF"/>
<path d="M177.559 30.9904L178.732 11.6287L222.85 4.79968L177.559 30.9904Z" fill="#70D9FF"/>
<path d="M190.279 19.4535L208.138 32.6322L222.849 4.79968L190.279 19.4535Z" fill="#13C0FF"/>
<path d="M177.559 30.9904L190.279 19.4535L222.85 4.79968L177.559 30.9904Z" fill="#00BBFF"/>
<defs>
<linearGradient id="paint0_linear_202_809" x1="338.478" y1="363.662" x2="338.478" y2="314.158" gradientUnits="userSpaceOnUse">
<stop stop-color="#085EFF"/>
<stop offset="0.99808" stop-color="#0E0092"/>
</linearGradient>
<linearGradient id="paint1_linear_202_809" x1="149.646" y1="210.933" x2="527.309" y2="210.933" gradientUnits="userSpaceOnUse">
<stop stop-color="#020764"/>
<stop offset="1" stop-color="#0F3460"/>
</linearGradient>
<linearGradient id="paint2_linear_202_809" x1="79503.9" y1="3583.41" x2="79503.9" y2="3943.8" gradientUnits="userSpaceOnUse">
<stop stop-color="#347BFF"/>
<stop offset="0.99808" stop-color="#0E0092"/>
</linearGradient>
<linearGradient id="paint3_linear_202_809" x1="313.561" y1="182.985" x2="336.78" y2="170.665" gradientUnits="userSpaceOnUse">
<stop offset="0.00116" stop-color="#00D1FF"/>
<stop offset="0.99577" stop-color="#0162FF"/>
</linearGradient>
<linearGradient id="paint4_linear_202_809" x1="11558.4" y1="6828.76" x2="12002.2" y2="6444.82" gradientUnits="userSpaceOnUse">
<stop offset="0.00116" stop-color="#00D1FF"/>
<stop offset="0.99577" stop-color="#0162FF"/>
</linearGradient>
<linearGradient id="paint5_linear_202_809" x1="11063.6" y1="9021.14" x2="10618.1" y2="9310.95" gradientUnits="userSpaceOnUse">
<stop offset="0.00116" stop-color="#00D1FF"/>
<stop offset="0.99577" stop-color="#0162FF"/>
</linearGradient>
<linearGradient id="paint6_linear_202_809" x1="16024.8" y1="12186.4" x2="16680.4" y2="11778.4" gradientUnits="userSpaceOnUse">
<stop offset="0.00116" stop-color="#00D1FF"/>
<stop offset="0.99577" stop-color="#0162FF"/>
</linearGradient>
<linearGradient id="paint7_linear_202_809" x1="17467.2" y1="9364.81" x2="18191" y2="8755.92" gradientUnits="userSpaceOnUse">
<stop offset="0.00116" stop-color="#00D1FF"/>
<stop offset="0.99577" stop-color="#0162FF"/>
</linearGradient>
<linearGradient id="paint8_linear_202_809" x1="15196.6" y1="13845" x2="14423.6" y2="14242.8" gradientUnits="userSpaceOnUse">
<stop offset="0.00116" stop-color="#00D1FF"/>
<stop offset="0.99577" stop-color="#0162FF"/>
</linearGradient>
<linearGradient id="paint9_linear_202_809" x1="334.763" y1="174.354" x2="391.039" y2="141.343" gradientUnits="userSpaceOnUse">
<stop offset="0.00693" stop-color="#FF9A25"/>
<stop offset="1" stop-color="#FFE000"/>
</linearGradient>
<linearGradient id="paint10_linear_202_809" x1="329.02" y1="162.133" x2="380.254" y2="120.478" gradientUnits="userSpaceOnUse">
<stop stop-color="#FFE000"/>
<stop offset="0.99962" stop-color="#FFE000" stop-opacity="0"/>
</linearGradient>
<linearGradient id="paint11_linear_202_809" x1="34204.5" y1="8837.37" x2="36640.1" y2="6449.55" gradientUnits="userSpaceOnUse">
<stop offset="0.00693" stop-color="#FF9A25"/>
<stop offset="1" stop-color="#FFE000"/>
</linearGradient>
<linearGradient id="paint12_linear_202_809" x1="12678.4" y1="28795.7" x2="13976.6" y2="28573.2" gradientUnits="userSpaceOnUse">
<stop offset="0.00693" stop-color="#FF9A25"/>
<stop offset="1" stop-color="#FFE000"/>
</linearGradient>
<linearGradient id="paint13_linear_202_809" x1="19428.8" y1="23249.5" x2="20949" y2="23249.5" gradientUnits="userSpaceOnUse">
<stop offset="0.00693" stop-color="#FF9A25"/>
<stop offset="1" stop-color="#FFE000"/>
</linearGradient>
<linearGradient id="paint14_linear_202_809" x1="26494.8" y1="26343.3" x2="30521.1" y2="30690.8" gradientUnits="userSpaceOnUse">
<stop offset="0.00116" stop-color="#00D1FF"/>
<stop offset="0.99577" stop-color="#0162FF"/>
</linearGradient>
<linearGradient id="paint15_linear_202_809" x1="21889.5" y1="23534.2" x2="23817.5" y2="23534.2" gradientUnits="userSpaceOnUse">
<stop offset="0.00116" stop-color="#00D1FF"/>
<stop offset="0.99577" stop-color="#0162FF"/>
</linearGradient>
<linearGradient id="paint16_linear_202_809" x1="25392.1" y1="26587.7" x2="28064.8" y2="26587.7" gradientUnits="userSpaceOnUse">
<stop offset="0.00116" stop-color="#00D1FF"/>
<stop offset="0.99577" stop-color="#0162FF"/>
</linearGradient>
<linearGradient id="paint17_linear_202_809" x1="12505" y1="10536.2" x2="12163.2" y2="10721.9" gradientUnits="userSpaceOnUse">
<stop offset="0.00116" stop-color="#00D1FF"/>
<stop offset="0.99577" stop-color="#0162FF"/>
</linearGradient>
<linearGradient id="paint18_linear_202_809" x1="7632.57" y1="4315.59" x2="7432.06" y2="4465.4" gradientUnits="userSpaceOnUse">
<stop offset="0.00116" stop-color="#00D1FF"/>
<stop offset="0.99577" stop-color="#0162FF"/>
</linearGradient>
<linearGradient id="paint19_linear_202_809" x1="8349.63" y1="4523.38" x2="8014.33" y2="4739.61" gradientUnits="userSpaceOnUse">
<stop offset="0.00116" stop-color="#00D1FF"/>
<stop offset="0.99577" stop-color="#0162FF"/>
</linearGradient>
<linearGradient id="paint20_linear_202_809" x1="4819.7" y1="9441.32" x2="5308.58" y2="9734.82" gradientUnits="userSpaceOnUse">
<stop offset="0.00116" stop-color="#00D1FF"/>
<stop offset="0.99577" stop-color="#0162FF"/>
</linearGradient>
<linearGradient id="paint21_linear_202_809" x1="16195.2" y1="17713.2" x2="16195.2" y2="20013.9" gradientUnits="userSpaceOnUse">
<stop stop-color="#085EFF"/>
<stop offset="0.99808" stop-color="#0E0092"/>
</linearGradient>
<linearGradient id="paint22_linear_202_809" x1="13017.1" y1="19013.2" x2="13017.1" y2="17114.4" gradientUnits="userSpaceOnUse">
<stop offset="0.00116" stop-color="#00D1FF"/>
<stop offset="0.99577" stop-color="#0162FF"/>
</linearGradient>
<linearGradient id="paint23_linear_202_809" x1="37214.2" y1="31883.9" x2="44612.3" y2="28857.7" gradientUnits="userSpaceOnUse">
<stop offset="0.00693" stop-color="#FF9A25"/>
<stop offset="1" stop-color="#FFE000"/>
</linearGradient>
<linearGradient id="paint24_linear_202_809" x1="135.438" y1="236.169" x2="135.438" y2="347.367" gradientUnits="userSpaceOnUse">
<stop stop-color="#FF6570"/>
<stop offset="1" stop-color="#EC374F"/>
</linearGradient>
<linearGradient id="paint25_linear_202_809" x1="42670.7" y1="22054.8" x2="39498.7" y2="18701.8" gradientUnits="userSpaceOnUse">
<stop stop-color="#085EFF"/>
<stop offset="0.99808" stop-color="#0E0092"/>
</linearGradient>
<linearGradient id="paint26_linear_202_809" x1="41163.5" y1="21615.6" x2="37108.2" y2="21615.6" gradientUnits="userSpaceOnUse">
<stop stop-color="#085EFF"/>
<stop offset="0.99808" stop-color="#0E0092"/>
</linearGradient>
<linearGradient id="paint27_linear_202_809" x1="531.915" y1="142.724" x2="560.5" y2="142.724" gradientUnits="userSpaceOnUse">
<stop stop-color="#FFC600"/>
<stop offset="1" stop-color="#DF7D5A"/>
</linearGradient>
<linearGradient id="paint28_linear_202_809" x1="474.221" y1="265.033" x2="582.477" y2="265.033" gradientUnits="userSpaceOnUse">
<stop stop-color="#FFC600"/>
<stop offset="1" stop-color="#DF7D5A"/>
</linearGradient>
<linearGradient id="paint29_linear_202_809" x1="5017.83" y1="11737.9" x2="5017.83" y2="10759" gradientUnits="userSpaceOnUse">
<stop offset="0.00693" stop-color="#FF9A25"/>
<stop offset="1" stop-color="#FFE000"/>
</linearGradient>
<linearGradient id="paint30_linear_202_809" x1="142.949" y1="305.895" x2="172.499" y2="305.895" gradientUnits="userSpaceOnUse">
<stop stop-color="#020764"/>
<stop offset="1" stop-color="#0F3460"/>
</linearGradient>
<linearGradient id="paint31_linear_202_809" x1="139.725" y1="240.099" x2="212.989" y2="240.099" gradientUnits="userSpaceOnUse">
<stop stop-color="#FFC600"/>
<stop offset="1" stop-color="#DF7D5A"/>
</linearGradient>
<linearGradient id="paint32_linear_202_809" x1="8249.51" y1="16356.9" x2="7443.36" y2="17259.6" gradientUnits="userSpaceOnUse">
<stop stop-color="#FF6570"/>
<stop offset="1" stop-color="#EC374F"/>
</linearGradient>
<linearGradient id="paint33_linear_202_809" x1="437.606" y1="304.452" x2="454.778" y2="304.452" gradientUnits="userSpaceOnUse">
<stop stop-color="#020764"/>
<stop offset="1" stop-color="#0F3460"/>
</linearGradient>
<linearGradient id="paint34_linear_202_809" x1="432.816" y1="304.452" x2="447.527" y2="304.452" gradientUnits="userSpaceOnUse">
<stop stop-color="#020764"/>
<stop offset="1" stop-color="#0F3460"/>
</linearGradient>
<linearGradient id="paint35_linear_202_809" x1="15687.5" y1="7248.5" x2="16965.1" y2="7406" gradientUnits="userSpaceOnUse">
<stop stop-color="#FF6570"/>
<stop offset="1" stop-color="#EC374F"/>
</linearGradient>
<linearGradient id="paint36_linear_202_809" x1="406.296" y1="242.069" x2="456.849" y2="242.069" gradientUnits="userSpaceOnUse">
<stop stop-color="#FFC600"/>
<stop offset="1" stop-color="#DF7D5A"/>
</linearGradient>
<clipPath id="clip0_202_809">
<rect width="591.641" height="407" fill="white" transform="translate(0.566162 151)"/>
</clipPath>
</defs>
</svg>
